<?xml version="1.0" standalone="no"?>
<!DOCTYPE svg PUBLIC "-//W3C//DTD SVG 20010904//EN"
 "http://www.w3.org/TR/2001/REC-SVG-20010904/DTD/svg10.dtd">
<svg version="1.0" xmlns="http://www.w3.org/2000/svg"
 width="139.000000pt" height="139.000000pt" viewBox="0 0 139.000000 139.000000"
 preserveAspectRatio="xMidYMid meet">
<metadata>
Created by potrace 1.14, written by Peter Selinger 2001-2017
</metadata>
<g transform="translate(0.000000,139.000000) scale(0.100000,-0.100000)"
fill="#000000" stroke="none">
<path d="M254 1345 c-15 -15 -36 -25 -54 -25 -18 0 -42 -11 -62 -29 -18 -17
-44 -38 -57 -48 -31 -25 -30 -54 8 -198 18 -66 33 -124 34 -130 2 -5 6 -16 10
-22 5 -7 6 -13 4 -13 -3 0 1 -21 9 -47 10 -31 11 -50 4 -57 -5 -5 -10 -18 -10
-28 0 -10 -4 -18 -9 -18 -4 0 -6 -12 -3 -26 3 -16 1 -25 -5 -21 -10 6 -9 -51
2 -110 5 -27 3 -33 -7 -28 -7 3 -6 0 3 -7 17 -14 62 -155 54 -169 -3 -4 -2 -9
3 -11 4 -1 17 -38 29 -80 l21 -78 -29 0 c-25 0 -33 -7 -31 -30 3 -49 15 -147
19 -153 4 -7 110 -2 163 8 8 1 53 6 100 11 47 4 88 9 93 10 4 1 16 2 27 3 18
1 20 6 15 49 -3 26 -8 57 -10 68 -4 20 -2 21 28 15 36 -7 159 -6 195 3 13 3
33 8 44 12 15 4 19 3 14 -7 -4 -8 -1 -6 7 4 8 9 19 17 26 17 6 0 30 12 52 26
34 21 43 23 57 12 15 -12 16 -11 4 4 -11 14 -10 18 10 29 12 7 40 32 61 56 22
23 44 40 50 36 5 -3 7 -1 3 5 -3 6 10 37 29 69 19 32 35 64 35 71 0 6 3 12 8
12 4 0 8 17 9 37 1 20 8 40 15 44 10 6 10 9 1 9 -9 0 -10 7 -4 23 6 17 7 142
1 142 -2 0 -10 38 -12 63 -1 12 -6 22 -10 22 -4 0 -8 4 -8 9 0 5 -5 22 -12 38
-6 15 -11 31 -10 36 1 4 -3 7 -8 7 -6 0 -10 5 -10 12 0 6 -18 33 -41 60 -23
27 -37 53 -33 60 4 7 3 8 -4 4 -6 -4 -33 10 -60 31 -26 21 -68 47 -92 58 -25
11 -47 22 -50 25 -3 3 -9 5 -15 5 -42 2 -121 20 -127 29 -4 6 -8 7 -8 1 0 -5
-19 -10 -42 -9 -24 0 -53 -3 -66 -8 -14 -5 -21 -4 -17 1 3 5 -8 3 -25 -5 -16
-9 -34 -13 -40 -9 -5 3 -10 2 -10 -2 0 -5 -17 -15 -37 -22 -21 -8 -51 -23 -66
-33 l-28 -20 5 45 c3 25 6 49 7 54 1 4 0 10 -1 13 -1 3 -3 19 -5 35 -4 44 -3
42 -27 65 -31 28 -83 26 -114 -5z"/>
<path d="M745 1350 c-3 -6 1 -7 9 -4 18 7 21 14 7 14 -6 0 -13 -4 -16 -10z"/>
</g>
</svg>
