<svg width="16" height="12" viewBox="0 0 16 12" fill="none" xmlns="http://www.w3.org/2000/svg">
    <path fill-rule="evenodd" clip-rule="evenodd" d="M4.22859 0.666687H7.4605C7.92825 0.666687 8.39143 0.760493 8.82358 0.942751C9.25573 1.12501 9.64839 1.39215 9.97914 1.72891C10.3099 2.06568 10.5723 2.46548 10.7513 2.90549C10.9303 3.3455 11.0224 3.81709 11.0224 4.29335V4.51202C11.021 5.47295 10.6451 6.39404 9.97729 7.07301C9.30946 7.75199 8.40427 8.13335 7.4605 8.13335H6.9524V7.06669H7.4605C8.12461 7.06528 8.7612 6.79641 9.23129 6.31878C9.70138 5.84114 9.96678 5.19353 9.96954 4.51735V4.29335C9.96955 3.61624 9.70609 2.96671 9.23683 2.48692C8.76758 2.00713 8.13075 1.73617 7.46573 1.73335H4.22859C3.56176 1.73335 2.92224 2.00307 2.45072 2.48316C1.9792 2.96325 1.71431 3.6144 1.71431 4.29335V4.51202C1.71588 5.11525 1.92714 5.69844 2.31065 6.15823C2.69416 6.61803 3.22516 6.92474 3.80954 7.02402V8.09069C2.9482 7.98681 2.15368 7.56651 1.57504 6.90861C0.996406 6.25072 0.673422 5.40046 0.666687 4.51735V4.29335C0.668073 3.33193 1.04379 2.4103 1.71148 1.73047C2.37916 1.05064 3.28434 0.668098 4.22859 0.666687ZM12.1905 4.97602V3.90935C13.0536 4.01346 13.8496 4.4353 14.4284 5.09542C15.0073 5.75555 15.3292 6.6084 15.3334 7.49335V7.71202C15.3306 8.67159 14.955 9.59106 14.2886 10.2696C13.6222 10.9481 12.7191 11.3305 11.7767 11.3334H8.53954C7.59759 11.3319 6.69453 10.9507 6.02798 10.273C5.36142 9.59535 4.98565 8.67643 4.98288 7.71735V7.49335C4.98288 6.53242 5.35743 5.61078 6.02428 4.9308C6.69114 4.25082 7.59578 3.8681 8.53954 3.86669H9.04764V4.93335H8.53954C7.87362 4.93477 7.23545 5.2051 6.76506 5.68504C6.29467 6.16498 6.03049 6.81532 6.0305 7.49335V7.71202C6.03188 8.38913 6.29667 9.0381 6.76691 9.51689C7.23715 9.99567 7.87453 10.2653 8.53954 10.2667H11.7767C12.4408 10.2653 13.0774 9.99641 13.5475 9.51878C14.0176 9.04114 14.283 8.39353 14.2857 7.71735V7.49335C14.2854 6.8892 14.0747 6.30474 13.6911 5.84384C13.3075 5.38294 12.7758 5.07545 12.1905 4.97602Z" fill="#FFBF00"/>
</svg>
