<svg width="232" height="66" viewBox="0 0 232 66" fill="none" xmlns="http://www.w3.org/2000/svg">
    <circle cx="33" cy="33" r="33" fill="#E6F9EA"/>
    <path d="M33.4948 49.4862C26.3438 49.4862 14.3781 49.4862 13.348 36.7144C13.2883 35.9903 13.5346 35.2737 14.0348 34.7363C14.5274 34.1988 15.2291 33.8928 15.9606 33.8928H51.044C51.768 33.8928 52.4622 34.1988 52.9624 34.7288C53.455 35.2588 53.7088 35.9754 53.6566 36.6994C52.7235 49.4862 42.0567 49.4862 33.4948 49.4862ZM15.9531 35.8933C15.7217 35.8933 15.5725 36.0202 15.4978 36.0948C15.4306 36.1695 15.3187 36.3262 15.3411 36.5501C16.1547 46.6347 24.7538 47.4857 33.4948 47.4857C42.0343 47.4857 50.8648 47.4857 51.6486 36.5576C51.6635 36.3262 51.5516 36.1695 51.4844 36.0948C51.4172 36.0202 51.2679 35.9007 51.0365 35.9007H15.9531V35.8933Z" fill="#190134"/>
    <path d="M49.7672 31.743H17.2218C15.7886 31.743 14.5196 30.9965 13.8254 29.735C13.1312 28.481 13.176 27.0105 13.9374 25.8012C18.1997 19.0383 25.5074 15 33.4945 15C41.4816 15 48.7894 19.0383 53.0516 25.8012C53.813 27.0105 53.8578 28.481 53.1636 29.735C52.4694 30.9891 51.2004 31.743 49.7672 31.743ZM33.4945 17.0005C26.2016 17.0005 19.5209 20.688 15.6318 26.8686C15.2661 27.4509 15.2437 28.1675 15.5796 28.7721C15.9155 29.3767 16.5276 29.7425 17.2218 29.7425H49.7747C50.4689 29.7425 51.081 29.3767 51.4169 28.7721C51.7528 28.1675 51.7304 27.4583 51.3646 26.8686C47.4681 20.688 40.7874 17.0005 33.4945 17.0005Z" fill="#190134"/>
    <path d="M20.0139 24.7562C19.8273 24.7562 19.6407 24.689 19.4914 24.5472C19.1928 24.256 19.1853 23.7858 19.469 23.4872C22.619 20.2326 26.6275 18.1053 31.0689 17.3439C31.4795 17.2767 31.8676 17.5454 31.9348 17.956C32.002 18.3665 31.7333 18.7547 31.3227 18.8218C27.2023 19.531 23.4775 21.5016 20.5514 24.5322C20.4095 24.6741 20.2155 24.7562 20.0139 24.7562Z" fill="#FCFCFC"/>
    <path d="M52.2081 34.2884H14.7809C13.6463 34.2884 12.8028 33.2359 13.0416 32.1311C13.2208 31.3175 13.9449 30.7353 14.7809 30.7353H52.2156C53.3801 30.7353 54.231 31.84 53.9324 32.9672C53.7234 33.7435 53.0218 34.2884 52.2081 34.2884Z" fill="#FFBF00"/>
    <path d="M52.2083 35.2886H14.781C13.9375 35.2886 13.1463 34.9079 12.6163 34.2511C12.0863 33.5942 11.8848 32.7432 12.0639 31.9147C12.3401 30.6457 13.4822 29.7275 14.781 29.7275H52.2157C53.0816 29.7275 53.8878 30.1232 54.4178 30.8099C54.9478 31.4966 55.1269 32.37 54.903 33.2135C54.582 34.4302 53.4698 35.2886 52.2083 35.2886ZM14.781 31.728C14.4153 31.728 14.1017 31.9818 14.0196 32.3401C13.9525 32.6536 14.0868 32.885 14.1764 32.997C14.266 33.1015 14.46 33.2881 14.781 33.2881H52.2157C52.5666 33.2881 52.8801 33.0493 52.9697 32.7059C53.0294 32.4745 52.9846 32.2282 52.8353 32.0341C52.686 31.84 52.4621 31.728 52.2157 31.728H14.781Z" fill="#190134"/>
    <path d="M12.9968 34.9303C12.9968 35.1916 13.1984 35.4081 13.4596 35.4305C16.4231 35.7141 16.5723 38.6776 19.8269 38.6776C23.2382 38.6776 23.2382 35.4081 26.6569 35.4081C30.0757 35.4081 30.0757 38.6776 33.487 38.6776C36.9058 38.6776 36.9058 35.4081 40.3171 35.4081C43.7358 35.4081 43.7358 38.6776 47.1471 38.6776C50.4017 38.6776 50.5584 35.7141 53.5219 35.4305C53.7831 35.4081 53.9847 35.1916 53.9847 34.9303C53.9847 34.6542 53.7607 34.4228 53.4771 34.4228H13.5044C13.2282 34.4228 12.9968 34.6467 12.9968 34.9303Z" fill="#FFBF00"/>
    <path d="M47.1547 39.6778C45.0422 39.6778 43.9375 38.6178 43.0492 37.7669C42.258 37.0055 41.6309 36.4083 40.3246 36.4083C39.0184 36.4083 38.3913 37.0055 37.6001 37.7669C36.7118 38.6178 35.5996 39.6778 33.4946 39.6778C31.3821 39.6778 30.2774 38.6178 29.3891 37.7669C28.5978 37.0055 27.9708 36.4083 26.6645 36.4083C25.3582 36.4083 24.7312 37.0055 23.94 37.7669C23.0517 38.6178 21.9395 39.6778 19.8345 39.6778C17.722 39.6778 16.6172 38.6178 15.729 37.7669C15.0049 37.0727 14.4301 36.5278 13.3702 36.4307C12.5939 36.3561 12.0042 35.7141 12.0042 34.9304C12.0042 34.1018 12.6834 33.4225 13.512 33.4225H53.4921C54.3207 33.4225 54.9999 34.1018 54.9999 34.9304C54.9999 35.7141 54.4102 36.3561 53.6265 36.4307C52.5665 36.5278 51.9917 37.0801 51.2677 37.7669C50.3794 38.6178 49.2672 39.6778 47.1547 39.6778ZM43.4075 35.423C43.7957 35.7141 44.1241 36.0276 44.4301 36.3188C45.2214 37.0801 45.8484 37.6773 47.1547 37.6773C48.461 37.6773 49.088 37.0801 49.8793 36.3188C50.1853 36.0276 50.5138 35.7141 50.9019 35.423H43.4075ZM29.7474 35.423C30.1355 35.7141 30.464 36.0276 30.77 36.3188C31.5613 37.0801 32.1883 37.6773 33.4946 37.6773C34.8009 37.6773 35.4279 37.0801 36.2191 36.3188C36.5252 36.0276 36.8536 35.7141 37.2418 35.423H29.7474ZM16.0798 35.423C16.468 35.7141 16.7964 36.0276 17.1024 36.3188C17.8937 37.0727 18.5207 37.6773 19.827 37.6773C21.1333 37.6773 21.7603 37.0801 22.5516 36.3188C22.8576 36.0276 23.186 35.7141 23.5742 35.423H16.0798ZM13.5493 34.4302C13.5568 34.4302 13.5568 34.4302 13.5493 34.4302C13.5568 34.4302 13.5568 34.4302 13.5493 34.4302Z" fill="#190134"/>
    <path d="M27.1795 25.4727C26.9183 25.8684 26.3883 25.9803 26.0001 25.7191C25.6045 25.4578 25.4926 24.9278 25.7538 24.5397C26.0151 24.1441 27.2542 22.9423 27.6498 23.2035C28.038 23.4573 27.4333 25.0771 27.1795 25.4727Z" fill="#190134"/>
    <path d="M21.6634 26.5103C21.3648 26.8761 20.8273 26.9283 20.4616 26.6223C20.0958 26.3237 20.0436 25.7863 20.3496 25.4205C20.6482 25.0547 22.0217 24.0022 22.38 24.3008C22.7457 24.6069 21.9694 26.1446 21.6634 26.5103Z" fill="#190134"/>
    <path d="M33.7857 26.9731C33.7558 27.4434 33.3527 27.8017 32.8825 27.7718C32.4122 27.742 32.0539 27.3389 32.0838 26.8686C32.1136 26.3984 32.5988 24.7412 33.0691 24.7711C33.5394 24.7935 33.8155 26.5029 33.7857 26.9731Z" fill="#190134"/>
    <path d="M32.9199 21.4568C32.7333 21.8898 32.2257 22.0839 31.7928 21.8973C31.3598 21.7106 31.1657 21.2031 31.3523 20.7701C31.539 20.3372 32.5691 18.9488 33.002 19.1354C33.435 19.3295 33.1065 21.0239 32.9199 21.4568Z" fill="#190134"/>
    <path d="M40.489 20.4342C40.7801 20.8074 40.7204 21.3449 40.3471 21.636C39.9739 21.9271 39.4365 21.8674 39.1453 21.4942C38.8542 21.1209 38.1078 19.5608 38.4735 19.2697C38.8468 18.9786 40.1904 20.061 40.489 20.4342Z" fill="#190134"/>
    <path d="M40.5112 27.518C40.6381 27.9734 40.3694 28.4436 39.9215 28.5705C39.4662 28.6974 38.9959 28.4287 38.869 27.9808C38.7421 27.5255 38.66 25.8012 39.1153 25.6743C39.5632 25.5474 40.3843 27.0702 40.5112 27.518Z" fill="#190134"/>
    <path d="M46.207 24.4725C46.4832 24.8532 46.4011 25.3906 46.0278 25.6668C45.6471 25.943 45.1097 25.8609 44.8335 25.4877C44.5573 25.107 43.8631 23.5245 44.2438 23.2408C44.6245 22.9572 45.9308 24.0918 46.207 24.4725Z" fill="#190134"/>
    <path d="M18.9536 26.2715C18.9536 26.6521 18.6475 26.9582 18.2668 26.9582C17.8861 26.9582 17.5801 26.6521 17.5801 26.2715C17.5801 25.8908 17.8861 25.5847 18.2668 25.5847C18.6475 25.5847 18.9536 25.8908 18.9536 26.2715Z" fill="#FCFCFC"/>
    <path d="M29.4563 32.8702H15.0497C14.7735 32.8702 14.5496 32.6462 14.5496 32.37C14.5496 32.0938 14.7735 31.8699 15.0497 31.8699H29.4488C29.725 31.8699 29.9489 32.0938 29.9489 32.37C29.9489 32.6462 29.7325 32.8702 29.4563 32.8702Z" fill="#FCFCFC"/>
    <path d="M34.6515 32.8702H31.3373C31.0611 32.8702 30.8372 32.6462 30.8372 32.37C30.8372 32.0938 31.0611 31.8699 31.3373 31.8699H34.6441C34.9203 31.8699 35.1442 32.0938 35.1442 32.37C35.1442 32.6462 34.9277 32.8702 34.6515 32.8702Z" fill="#FCFCFC"/>
    <path d="M90.502 27.032C91.65 27.032 92.6113 27.3167 93.386 27.886C94.17 28.4553 94.6973 29.23 94.968 30.21H93.624C93.3907 29.6127 92.9987 29.132 92.448 28.768C91.9067 28.404 91.2627 28.222 90.516 28.222C89.844 28.222 89.242 28.3807 88.71 28.698C88.178 29.006 87.758 29.4493 87.45 30.028C87.1513 30.6067 87.002 31.288 87.002 32.072C87.002 32.8747 87.156 33.57 87.464 34.158C87.772 34.7367 88.1967 35.1847 88.738 35.502C89.2887 35.81 89.9187 35.964 90.628 35.964C91.2347 35.964 91.79 35.8333 92.294 35.572C92.798 35.3107 93.2087 34.9327 93.526 34.438C93.8527 33.934 94.0487 33.346 94.114 32.674H90.236V31.722H95.192V32.898C95.108 33.682 94.8653 34.3913 94.464 35.026C94.0627 35.6607 93.5213 36.1647 92.84 36.538C92.1587 36.9113 91.384 37.098 90.516 37.098C89.564 37.098 88.724 36.888 87.996 36.468C87.268 36.0387 86.6987 35.446 86.288 34.69C85.8867 33.9247 85.686 33.052 85.686 32.072C85.686 31.092 85.8867 30.224 86.288 29.468C86.6987 28.7027 87.268 28.1053 87.996 27.676C88.724 27.2467 89.5593 27.032 90.502 27.032ZM104.154 37L101.578 32.968H100.192V37H98.9185V27.13H102.166C103.286 27.13 104.126 27.4007 104.686 27.942C105.246 28.474 105.526 29.1833 105.526 30.07C105.526 30.8727 105.302 31.5213 104.854 32.016C104.406 32.5013 103.758 32.8047 102.908 32.926L105.596 37H104.154ZM100.192 32.044H102.054C103.501 32.044 104.224 31.4093 104.224 30.14C104.224 28.8707 103.501 28.236 102.054 28.236H100.192V32.044ZM110.355 28.166V31.54H114.107V32.52H110.355V35.964H114.527V37H109.081V27.13H114.527V28.166H110.355ZM123.945 34.718H119.605L118.779 37H117.407L121.061 27.312H122.503L126.143 37H124.771L123.945 34.718ZM123.581 33.724L121.775 28.74L119.969 33.724H123.581ZM135.48 27.13V28.166H132.694V37H131.42V28.166H128.634V27.13H135.48ZM150.45 34.438C150.45 34.9047 150.338 35.3387 150.114 35.74C149.89 36.1413 149.549 36.468 149.092 36.72C148.634 36.972 148.07 37.098 147.398 37.098C146.744 37.098 146.161 36.9813 145.648 36.748C145.144 36.5053 144.738 36.1787 144.43 35.768C144.131 35.348 143.958 34.872 143.912 34.34H145.27C145.298 34.62 145.391 34.8953 145.55 35.166C145.718 35.4273 145.951 35.6467 146.25 35.824C146.558 35.992 146.926 36.076 147.356 36.076C147.916 36.076 148.345 35.9267 148.644 35.628C148.942 35.3293 149.092 34.9467 149.092 34.48C149.092 34.0787 148.984 33.752 148.77 33.5C148.564 33.248 148.308 33.052 148 32.912C147.692 32.7627 147.272 32.604 146.74 32.436C146.114 32.2307 145.61 32.0393 145.228 31.862C144.854 31.6753 144.532 31.4 144.262 31.036C144 30.672 143.87 30.1913 143.87 29.594C143.87 29.0807 143.991 28.628 144.234 28.236C144.486 27.844 144.84 27.5407 145.298 27.326C145.764 27.1113 146.31 27.004 146.936 27.004C147.906 27.004 148.676 27.242 149.246 27.718C149.815 28.1847 150.146 28.782 150.24 29.51H148.868C148.793 29.118 148.592 28.7727 148.266 28.474C147.939 28.1753 147.496 28.026 146.936 28.026C146.422 28.026 146.012 28.1613 145.704 28.432C145.396 28.6933 145.242 29.0667 145.242 29.552C145.242 29.9347 145.34 30.2473 145.536 30.49C145.741 30.7233 145.993 30.91 146.292 31.05C146.59 31.1807 147.001 31.33 147.524 31.498C148.158 31.7033 148.667 31.8993 149.05 32.086C149.442 32.2727 149.773 32.5573 150.044 32.94C150.314 33.3133 150.45 33.8127 150.45 34.438ZM159.945 34.718H155.605L154.779 37H153.407L157.061 27.312H158.503L162.143 37H160.771L159.945 34.718ZM159.581 33.724L157.775 28.74L155.969 33.724H159.581ZM173.104 37H171.83L166.706 29.202V37H165.432V27.13H166.706L171.83 34.942V27.13H173.104V37ZM185.469 32.058C185.469 33.0567 185.268 33.9293 184.867 34.676C184.466 35.4133 183.873 35.9873 183.089 36.398C182.314 36.7993 181.381 37 180.289 37H177.153V27.13H180.289C181.381 27.13 182.314 27.3307 183.089 27.732C183.873 28.124 184.466 28.6933 184.867 29.44C185.268 30.1773 185.469 31.05 185.469 32.058ZM180.191 35.852C181.479 35.852 182.464 35.5207 183.145 34.858C183.826 34.1953 184.167 33.262 184.167 32.058C184.167 30.854 183.826 29.9207 183.145 29.258C182.473 28.586 181.488 28.25 180.191 28.25H178.427V35.852H180.191ZM201.326 27.13L198.82 37H197.266L194.984 28.936L192.702 37H191.148L188.628 27.13H190.042L191.932 35.516L194.27 27.13H195.684L198.022 35.488L199.926 27.13H201.326ZM206.093 27.13V37H204.819V27.13H206.093ZM214.509 27.032C215.713 27.032 216.707 27.3307 217.491 27.928C218.275 28.516 218.816 29.3233 219.115 30.35H217.771C217.519 29.6967 217.113 29.1787 216.553 28.796C215.993 28.404 215.307 28.208 214.495 28.208C213.851 28.208 213.272 28.3667 212.759 28.684C212.255 28.992 211.854 29.44 211.555 30.028C211.266 30.6067 211.121 31.288 211.121 32.072C211.121 32.8467 211.266 33.5233 211.555 34.102C211.854 34.6807 212.255 35.1287 212.759 35.446C213.272 35.754 213.851 35.908 214.495 35.908C215.307 35.908 215.993 35.7167 216.553 35.334C217.113 34.942 217.519 34.4193 217.771 33.766H219.115C218.816 34.7927 218.275 35.6047 217.491 36.202C216.707 36.79 215.713 37.084 214.509 37.084C213.585 37.084 212.768 36.874 212.059 36.454C211.35 36.0247 210.794 35.432 210.393 34.676C210.001 33.9107 209.805 33.0427 209.805 32.072C209.805 31.092 210.001 30.2193 210.393 29.454C210.794 28.6887 211.35 28.096 212.059 27.676C212.768 27.2467 213.585 27.032 214.509 27.032ZM230.393 27.13V37H229.105V32.436H224.093V37H222.819V27.13H224.093V31.4H229.105V27.13H230.393Z" fill="black"/>
</svg>
