<svg width="1060" height="47" viewBox="0 0 1060 47" fill="none" xmlns="http://www.w3.org/2000/svg">
    <g opacity="0.5">
        <path d="M529.796 46.2C520.216 46.2 504.186 46.2 502.806 29.09C502.726 28.12 503.056 27.16 503.726 26.44C504.386 25.72 505.326 25.31 506.306 25.31H553.306C554.276 25.31 555.206 25.72 555.876 26.43C556.536 27.14 556.876 28.1 556.806 29.07C555.556 46.2 541.266 46.2 529.796 46.2ZM506.296 27.99C505.986 27.99 505.786 28.16 505.686 28.26C505.596 28.36 505.446 28.57 505.476 28.87C506.566 42.38 518.086 43.52 529.796 43.52C541.236 43.52 553.066 43.52 554.116 28.88C554.136 28.57 553.986 28.36 553.896 28.26C553.806 28.16 553.606 28 553.296 28H506.296V27.99Z" fill="#190134"/>
        <path d="M551.596 22.43H507.996C506.076 22.43 504.376 21.43 503.446 19.74C502.516 18.06 502.576 16.09 503.596 14.47C509.306 5.41 519.096 0 529.796 0C540.496 0 550.286 5.41 555.996 14.47C557.016 16.09 557.076 18.06 556.146 19.74C555.216 21.42 553.516 22.43 551.596 22.43ZM529.796 2.68C520.026 2.68 511.076 7.62 505.866 15.9C505.376 16.68 505.346 17.64 505.796 18.45C506.246 19.26 507.066 19.75 507.996 19.75H551.606C552.536 19.75 553.356 19.26 553.806 18.45C554.256 17.64 554.226 16.69 553.736 15.9C548.516 7.62 539.566 2.68 529.796 2.68Z" fill="#190134"/>
        <path d="M511.736 13.07C511.486 13.07 511.236 12.98 511.036 12.79C510.636 12.4 510.626 11.77 511.006 11.37C515.226 7.00999 520.596 4.15999 526.546 3.13999C527.096 3.04999 527.616 3.40999 527.706 3.95999C527.796 4.50999 527.436 5.02999 526.886 5.11999C521.366 6.06999 516.376 8.70999 512.456 12.77C512.266 12.96 512.006 13.07 511.736 13.07Z" fill="#FCFCFC"/>
        <path d="M554.866 25.84H504.726C503.206 25.84 502.076 24.43 502.396 22.95C502.636 21.86 503.606 21.08 504.726 21.08H554.876C556.436 21.08 557.576 22.56 557.176 24.07C556.896 25.11 555.956 25.84 554.866 25.84Z" fill="#FFBF00"/>
        <path d="M554.866 27.18H504.726C503.596 27.18 502.536 26.67 501.826 25.79C501.116 24.91 500.846 23.77 501.086 22.66C501.456 20.96 502.986 19.73 504.726 19.73H554.876C556.036 19.73 557.116 20.26 557.826 21.18C558.536 22.1 558.776 23.27 558.476 24.4C558.046 26.03 556.556 27.18 554.866 27.18ZM504.726 22.41C504.236 22.41 503.816 22.75 503.706 23.23C503.616 23.65 503.796 23.96 503.916 24.11C504.036 24.25 504.296 24.5 504.726 24.5H554.876C555.346 24.5 555.766 24.18 555.886 23.72C555.966 23.41 555.906 23.08 555.706 22.82C555.506 22.56 555.206 22.41 554.876 22.41H504.726Z" fill="#190134"/>
        <path d="M502.336 26.7C502.336 27.05 502.606 27.34 502.956 27.37C506.926 27.75 507.126 31.72 511.486 31.72C516.056 31.72 516.056 27.34 520.636 27.34C525.216 27.34 525.216 31.72 529.786 31.72C534.366 31.72 534.366 27.34 538.936 27.34C543.516 27.34 543.516 31.72 548.086 31.72C552.446 31.72 552.656 27.75 556.626 27.37C556.976 27.34 557.246 27.05 557.246 26.7C557.246 26.33 556.946 26.02 556.566 26.02H503.016C502.646 26.02 502.336 26.32 502.336 26.7Z" fill="#FFBF00"/>
        <path d="M548.096 33.06C545.266 33.06 543.786 31.64 542.596 30.5C541.536 29.48 540.696 28.68 538.946 28.68C537.196 28.68 536.356 29.48 535.296 30.5C534.106 31.64 532.616 33.06 529.796 33.06C526.966 33.06 525.486 31.64 524.296 30.5C523.236 29.48 522.396 28.68 520.646 28.68C518.896 28.68 518.056 29.48 516.996 30.5C515.806 31.64 514.316 33.06 511.496 33.06C508.666 33.06 507.186 31.64 505.996 30.5C505.026 29.57 504.256 28.84 502.836 28.71C501.796 28.61 501.006 27.75 501.006 26.7C501.006 25.59 501.916 24.68 503.026 24.68H556.586C557.696 24.68 558.606 25.59 558.606 26.7C558.606 27.75 557.816 28.61 556.766 28.71C555.346 28.84 554.576 29.58 553.606 30.5C552.416 31.64 550.926 33.06 548.096 33.06ZM543.076 27.36C543.596 27.75 544.036 28.17 544.446 28.56C545.506 29.58 546.346 30.38 548.096 30.38C549.846 30.38 550.686 29.58 551.746 28.56C552.156 28.17 552.596 27.75 553.116 27.36H543.076ZM524.776 27.36C525.296 27.75 525.736 28.17 526.146 28.56C527.206 29.58 528.046 30.38 529.796 30.38C531.546 30.38 532.386 29.58 533.446 28.56C533.856 28.17 534.296 27.75 534.816 27.36H524.776ZM506.466 27.36C506.986 27.75 507.426 28.17 507.836 28.56C508.896 29.57 509.736 30.38 511.486 30.38C513.236 30.38 514.076 29.58 515.136 28.56C515.546 28.17 515.986 27.75 516.506 27.36H506.466ZM503.076 26.03C503.086 26.03 503.086 26.03 503.076 26.03C503.086 26.03 503.086 26.03 503.076 26.03Z" fill="#190134"/>
        <path d="M521.336 14.03C520.986 14.56 520.276 14.71 519.756 14.36C519.226 14.01 519.076 13.3 519.426 12.78C519.776 12.25 521.436 10.64 521.966 10.99C522.486 11.33 521.676 13.5 521.336 14.03Z" fill="#190134"/>
        <path d="M513.946 15.42C513.546 15.91 512.826 15.98 512.336 15.57C511.846 15.17 511.776 14.45 512.186 13.96C512.586 13.47 514.426 12.06 514.906 12.46C515.396 12.87 514.356 14.93 513.946 15.42Z" fill="#190134"/>
        <path d="M530.186 16.04C530.146 16.67 529.606 17.15 528.976 17.11C528.346 17.07 527.866 16.53 527.906 15.9C527.946 15.27 528.596 13.05 529.226 13.09C529.856 13.12 530.226 15.41 530.186 16.04Z" fill="#190134"/>
        <path d="M529.026 8.65C528.776 9.23 528.096 9.49 527.516 9.24C526.936 8.99 526.676 8.31 526.926 7.73C527.176 7.15 528.556 5.29 529.136 5.54001C529.716 5.8 529.276 8.07 529.026 8.65Z" fill="#190134"/>
        <path d="M539.166 7.28C539.556 7.78 539.476 8.5 538.976 8.89C538.476 9.28 537.756 9.2 537.366 8.7C536.976 8.2 535.976 6.11 536.466 5.72C536.966 5.33 538.766 6.78 539.166 7.28Z" fill="#190134"/>
        <path d="M539.196 16.77C539.366 17.38 539.006 18.01 538.406 18.18C537.796 18.35 537.166 17.99 536.996 17.39C536.826 16.78 536.716 14.47 537.326 14.3C537.926 14.13 539.026 16.17 539.196 16.77Z" fill="#190134"/>
        <path d="M546.826 12.69C547.196 13.2 547.086 13.92 546.586 14.29C546.076 14.66 545.356 14.55 544.986 14.05C544.616 13.54 543.686 11.42 544.196 11.04C544.706 10.66 546.456 12.18 546.826 12.69Z" fill="#190134"/>
        <path d="M510.316 15.1C510.316 15.61 509.906 16.02 509.396 16.02C508.886 16.02 508.476 15.61 508.476 15.1C508.476 14.59 508.886 14.18 509.396 14.18C509.906 14.18 510.316 14.59 510.316 15.1Z" fill="#FCFCFC"/>
        <path d="M524.386 23.94H505.086C504.716 23.94 504.416 23.64 504.416 23.27C504.416 22.9 504.716 22.6 505.086 22.6H524.376C524.746 22.6 525.046 22.9 525.046 23.27C525.046 23.64 524.756 23.94 524.386 23.94Z" fill="#FCFCFC"/>
        <path d="M531.346 23.94H526.906C526.536 23.94 526.236 23.64 526.236 23.27C526.236 22.9 526.536 22.6 526.906 22.6H531.336C531.706 22.6 532.006 22.9 532.006 23.27C532.006 23.64 531.716 23.94 531.346 23.94Z" fill="#FCFCFC"/>
    </g>
    <g opacity="0.6">
        <path d="M362.796 46.2C353.216 46.2 337.186 46.2 335.806 29.09C335.726 28.12 336.056 27.16 336.726 26.44C337.386 25.72 338.326 25.31 339.306 25.31H386.306C387.276 25.31 388.206 25.72 388.876 26.43C389.536 27.14 389.876 28.1 389.806 29.07C388.556 46.2 374.266 46.2 362.796 46.2ZM339.296 27.99C338.986 27.99 338.786 28.16 338.686 28.26C338.596 28.36 338.446 28.57 338.476 28.87C339.566 42.38 351.086 43.52 362.796 43.52C374.236 43.52 386.066 43.52 387.116 28.88C387.136 28.57 386.986 28.36 386.896 28.26C386.806 28.16 386.606 28 386.296 28H339.296V27.99Z" fill="#190134"/>
        <path d="M384.596 22.43H340.996C339.076 22.43 337.376 21.43 336.446 19.74C335.516 18.06 335.576 16.09 336.596 14.47C342.306 5.41 352.096 0 362.796 0C373.496 0 383.286 5.41 388.996 14.47C390.016 16.09 390.076 18.06 389.146 19.74C388.216 21.42 386.516 22.43 384.596 22.43ZM362.796 2.68C353.026 2.68 344.076 7.62 338.866 15.9C338.376 16.68 338.346 17.64 338.796 18.45C339.246 19.26 340.066 19.75 340.996 19.75H384.606C385.536 19.75 386.356 19.26 386.806 18.45C387.256 17.64 387.226 16.69 386.736 15.9C381.516 7.62 372.566 2.68 362.796 2.68Z" fill="#190134"/>
        <path d="M344.736 13.07C344.486 13.07 344.236 12.98 344.036 12.79C343.636 12.4 343.626 11.77 344.006 11.37C348.226 7.00999 353.596 4.15999 359.546 3.13999C360.096 3.04999 360.616 3.40999 360.706 3.95999C360.796 4.50999 360.436 5.02999 359.886 5.11999C354.366 6.06999 349.376 8.70999 345.456 12.77C345.266 12.96 345.006 13.07 344.736 13.07Z" fill="#FCFCFC"/>
        <path d="M387.866 25.84H337.726C336.206 25.84 335.076 24.43 335.396 22.95C335.636 21.86 336.606 21.08 337.726 21.08H387.876C389.436 21.08 390.576 22.56 390.176 24.07C389.896 25.11 388.956 25.84 387.866 25.84Z" fill="#FFBF00"/>
        <path d="M387.866 27.18H337.726C336.596 27.18 335.536 26.67 334.826 25.79C334.116 24.91 333.846 23.77 334.086 22.66C334.456 20.96 335.986 19.73 337.726 19.73H387.876C389.036 19.73 390.116 20.26 390.826 21.18C391.536 22.1 391.776 23.27 391.476 24.4C391.046 26.03 389.556 27.18 387.866 27.18ZM337.726 22.41C337.236 22.41 336.816 22.75 336.706 23.23C336.616 23.65 336.796 23.96 336.916 24.11C337.036 24.25 337.296 24.5 337.726 24.5H387.876C388.346 24.5 388.766 24.18 388.886 23.72C388.966 23.41 388.906 23.08 388.706 22.82C388.506 22.56 388.206 22.41 387.876 22.41H337.726Z" fill="#190134"/>
        <path d="M335.336 26.7C335.336 27.05 335.606 27.34 335.956 27.37C339.926 27.75 340.126 31.72 344.486 31.72C349.056 31.72 349.056 27.34 353.636 27.34C358.216 27.34 358.216 31.72 362.786 31.72C367.366 31.72 367.366 27.34 371.936 27.34C376.516 27.34 376.516 31.72 381.086 31.72C385.446 31.72 385.656 27.75 389.626 27.37C389.976 27.34 390.246 27.05 390.246 26.7C390.246 26.33 389.946 26.02 389.566 26.02H336.016C335.646 26.02 335.336 26.32 335.336 26.7Z" fill="#FFBF00"/>
        <path d="M381.096 33.06C378.266 33.06 376.786 31.64 375.596 30.5C374.536 29.48 373.696 28.68 371.946 28.68C370.196 28.68 369.356 29.48 368.296 30.5C367.106 31.64 365.616 33.06 362.796 33.06C359.966 33.06 358.486 31.64 357.296 30.5C356.236 29.48 355.396 28.68 353.646 28.68C351.896 28.68 351.056 29.48 349.996 30.5C348.806 31.64 347.316 33.06 344.496 33.06C341.666 33.06 340.186 31.64 338.996 30.5C338.026 29.57 337.256 28.84 335.836 28.71C334.796 28.61 334.006 27.75 334.006 26.7C334.006 25.59 334.916 24.68 336.026 24.68H389.586C390.696 24.68 391.606 25.59 391.606 26.7C391.606 27.75 390.816 28.61 389.766 28.71C388.346 28.84 387.576 29.58 386.606 30.5C385.416 31.64 383.926 33.06 381.096 33.06ZM376.076 27.36C376.596 27.75 377.036 28.17 377.446 28.56C378.506 29.58 379.346 30.38 381.096 30.38C382.846 30.38 383.686 29.58 384.746 28.56C385.156 28.17 385.596 27.75 386.116 27.36H376.076ZM357.776 27.36C358.296 27.75 358.736 28.17 359.146 28.56C360.206 29.58 361.046 30.38 362.796 30.38C364.546 30.38 365.386 29.58 366.446 28.56C366.856 28.17 367.296 27.75 367.816 27.36H357.776ZM339.466 27.36C339.986 27.75 340.426 28.17 340.836 28.56C341.896 29.57 342.736 30.38 344.486 30.38C346.236 30.38 347.076 29.58 348.136 28.56C348.546 28.17 348.986 27.75 349.506 27.36H339.466ZM336.076 26.03C336.086 26.03 336.086 26.03 336.076 26.03C336.086 26.03 336.086 26.03 336.076 26.03Z" fill="#190134"/>
        <path d="M354.336 14.03C353.986 14.56 353.276 14.71 352.756 14.36C352.226 14.01 352.076 13.3 352.426 12.78C352.776 12.25 354.436 10.64 354.966 10.99C355.486 11.33 354.676 13.5 354.336 14.03Z" fill="#190134"/>
        <path d="M346.946 15.42C346.546 15.91 345.826 15.98 345.336 15.57C344.846 15.17 344.776 14.45 345.186 13.96C345.586 13.47 347.426 12.06 347.906 12.46C348.396 12.87 347.356 14.93 346.946 15.42Z" fill="#190134"/>
        <path d="M363.186 16.04C363.146 16.67 362.606 17.15 361.976 17.11C361.346 17.07 360.866 16.53 360.906 15.9C360.946 15.27 361.596 13.05 362.226 13.09C362.856 13.12 363.226 15.41 363.186 16.04Z" fill="#190134"/>
        <path d="M362.026 8.65C361.776 9.23 361.096 9.49 360.516 9.24C359.936 8.99 359.676 8.31 359.926 7.73C360.176 7.15 361.556 5.29 362.136 5.54001C362.716 5.8 362.276 8.07 362.026 8.65Z" fill="#190134"/>
        <path d="M372.166 7.28C372.556 7.78 372.476 8.5 371.976 8.89C371.476 9.28 370.756 9.2 370.366 8.7C369.976 8.2 368.976 6.11 369.466 5.72C369.966 5.33 371.766 6.78 372.166 7.28Z" fill="#190134"/>
        <path d="M372.196 16.77C372.366 17.38 372.006 18.01 371.406 18.18C370.796 18.35 370.166 17.99 369.996 17.39C369.826 16.78 369.716 14.47 370.326 14.3C370.926 14.13 372.026 16.17 372.196 16.77Z" fill="#190134"/>
        <path d="M379.826 12.69C380.196 13.2 380.086 13.92 379.586 14.29C379.076 14.66 378.356 14.55 377.986 14.05C377.616 13.54 376.686 11.42 377.196 11.04C377.706 10.66 379.456 12.18 379.826 12.69Z" fill="#190134"/>
        <path d="M343.316 15.1C343.316 15.61 342.906 16.02 342.396 16.02C341.886 16.02 341.476 15.61 341.476 15.1C341.476 14.59 341.886 14.18 342.396 14.18C342.906 14.18 343.316 14.59 343.316 15.1Z" fill="#FCFCFC"/>
        <path d="M357.386 23.94H338.086C337.716 23.94 337.416 23.64 337.416 23.27C337.416 22.9 337.716 22.6 338.086 22.6H357.376C357.746 22.6 358.046 22.9 358.046 23.27C358.046 23.64 357.756 23.94 357.386 23.94Z" fill="#FCFCFC"/>
        <path d="M364.346 23.94H359.906C359.536 23.94 359.236 23.64 359.236 23.27C359.236 22.9 359.536 22.6 359.906 22.6H364.336C364.706 22.6 365.006 22.9 365.006 23.27C365.006 23.64 364.716 23.94 364.346 23.94Z" fill="#FCFCFC"/>
    </g>
    <g opacity="0.7">
        <path d="M195.796 46.2C186.216 46.2 170.186 46.2 168.806 29.09C168.726 28.12 169.056 27.16 169.726 26.44C170.386 25.72 171.326 25.31 172.306 25.31H219.306C220.276 25.31 221.206 25.72 221.876 26.43C222.536 27.14 222.876 28.1 222.806 29.07C221.556 46.2 207.266 46.2 195.796 46.2ZM172.296 27.99C171.986 27.99 171.786 28.16 171.686 28.26C171.596 28.36 171.446 28.57 171.476 28.87C172.566 42.38 184.086 43.52 195.796 43.52C207.236 43.52 219.066 43.52 220.116 28.88C220.136 28.57 219.986 28.36 219.896 28.26C219.806 28.16 219.606 28 219.296 28H172.296V27.99Z" fill="#190134"/>
        <path d="M217.596 22.43H173.996C172.076 22.43 170.376 21.43 169.446 19.74C168.516 18.06 168.576 16.09 169.596 14.47C175.306 5.41 185.096 0 195.796 0C206.496 0 216.286 5.41 221.996 14.47C223.016 16.09 223.076 18.06 222.146 19.74C221.216 21.42 219.516 22.43 217.596 22.43ZM195.796 2.68C186.026 2.68 177.076 7.62 171.866 15.9C171.376 16.68 171.346 17.64 171.796 18.45C172.246 19.26 173.066 19.75 173.996 19.75H217.606C218.536 19.75 219.356 19.26 219.806 18.45C220.256 17.64 220.226 16.69 219.736 15.9C214.516 7.62 205.566 2.68 195.796 2.68Z" fill="#190134"/>
        <path d="M177.736 13.07C177.486 13.07 177.236 12.98 177.036 12.79C176.636 12.4 176.626 11.77 177.006 11.37C181.226 7.00999 186.596 4.15999 192.546 3.13999C193.096 3.04999 193.616 3.40999 193.706 3.95999C193.796 4.50999 193.436 5.02999 192.886 5.11999C187.366 6.06999 182.376 8.70999 178.456 12.77C178.266 12.96 178.006 13.07 177.736 13.07Z" fill="#FCFCFC"/>
        <path d="M220.866 25.84H170.726C169.206 25.84 168.076 24.43 168.396 22.95C168.636 21.86 169.606 21.08 170.726 21.08H220.876C222.436 21.08 223.576 22.56 223.176 24.07C222.896 25.11 221.956 25.84 220.866 25.84Z" fill="#FFBF00"/>
        <path d="M220.866 27.18H170.726C169.596 27.18 168.536 26.67 167.826 25.79C167.116 24.91 166.846 23.77 167.086 22.66C167.456 20.96 168.986 19.73 170.726 19.73H220.876C222.036 19.73 223.116 20.26 223.826 21.18C224.536 22.1 224.776 23.27 224.476 24.4C224.046 26.03 222.556 27.18 220.866 27.18ZM170.726 22.41C170.236 22.41 169.816 22.75 169.706 23.23C169.616 23.65 169.796 23.96 169.916 24.11C170.036 24.25 170.296 24.5 170.726 24.5H220.876C221.346 24.5 221.766 24.18 221.886 23.72C221.966 23.41 221.906 23.08 221.706 22.82C221.506 22.56 221.206 22.41 220.876 22.41H170.726Z" fill="#190134"/>
        <path d="M168.336 26.7C168.336 27.05 168.606 27.34 168.956 27.37C172.926 27.75 173.126 31.72 177.486 31.72C182.056 31.72 182.056 27.34 186.636 27.34C191.216 27.34 191.216 31.72 195.786 31.72C200.366 31.72 200.366 27.34 204.936 27.34C209.516 27.34 209.516 31.72 214.086 31.72C218.446 31.72 218.656 27.75 222.626 27.37C222.976 27.34 223.246 27.05 223.246 26.7C223.246 26.33 222.946 26.02 222.566 26.02H169.016C168.646 26.02 168.336 26.32 168.336 26.7Z" fill="#FFBF00"/>
        <path d="M214.096 33.06C211.266 33.06 209.786 31.64 208.596 30.5C207.536 29.48 206.696 28.68 204.946 28.68C203.196 28.68 202.356 29.48 201.296 30.5C200.106 31.64 198.616 33.06 195.796 33.06C192.966 33.06 191.486 31.64 190.296 30.5C189.236 29.48 188.396 28.68 186.646 28.68C184.896 28.68 184.056 29.48 182.996 30.5C181.806 31.64 180.316 33.06 177.496 33.06C174.666 33.06 173.186 31.64 171.996 30.5C171.026 29.57 170.256 28.84 168.836 28.71C167.796 28.61 167.006 27.75 167.006 26.7C167.006 25.59 167.916 24.68 169.026 24.68H222.586C223.696 24.68 224.606 25.59 224.606 26.7C224.606 27.75 223.816 28.61 222.766 28.71C221.346 28.84 220.576 29.58 219.606 30.5C218.416 31.64 216.926 33.06 214.096 33.06ZM209.076 27.36C209.596 27.75 210.036 28.17 210.446 28.56C211.506 29.58 212.346 30.38 214.096 30.38C215.846 30.38 216.686 29.58 217.746 28.56C218.156 28.17 218.596 27.75 219.116 27.36H209.076ZM190.776 27.36C191.296 27.75 191.736 28.17 192.146 28.56C193.206 29.58 194.046 30.38 195.796 30.38C197.546 30.38 198.386 29.58 199.446 28.56C199.856 28.17 200.296 27.75 200.816 27.36H190.776ZM172.466 27.36C172.986 27.75 173.426 28.17 173.836 28.56C174.896 29.57 175.736 30.38 177.486 30.38C179.236 30.38 180.076 29.58 181.136 28.56C181.546 28.17 181.986 27.75 182.506 27.36H172.466ZM169.076 26.03C169.086 26.03 169.086 26.03 169.076 26.03C169.086 26.03 169.086 26.03 169.076 26.03Z" fill="#190134"/>
        <path d="M187.336 14.03C186.986 14.56 186.276 14.71 185.756 14.36C185.226 14.01 185.076 13.3 185.426 12.78C185.776 12.25 187.436 10.64 187.966 10.99C188.486 11.33 187.676 13.5 187.336 14.03Z" fill="#190134"/>
        <path d="M179.946 15.42C179.546 15.91 178.826 15.98 178.336 15.57C177.846 15.17 177.776 14.45 178.186 13.96C178.586 13.47 180.426 12.06 180.906 12.46C181.396 12.87 180.356 14.93 179.946 15.42Z" fill="#190134"/>
        <path d="M196.186 16.04C196.146 16.67 195.606 17.15 194.976 17.11C194.346 17.07 193.866 16.53 193.906 15.9C193.946 15.27 194.596 13.05 195.226 13.09C195.856 13.12 196.226 15.41 196.186 16.04Z" fill="#190134"/>
        <path d="M195.026 8.65C194.776 9.23 194.096 9.49 193.516 9.24C192.936 8.99 192.676 8.31 192.926 7.73C193.176 7.15 194.556 5.29 195.136 5.54001C195.716 5.8 195.276 8.07 195.026 8.65Z" fill="#190134"/>
        <path d="M205.166 7.28C205.556 7.78 205.476 8.5 204.976 8.89C204.476 9.28 203.756 9.2 203.366 8.7C202.976 8.2 201.976 6.11 202.466 5.72C202.966 5.33 204.766 6.78 205.166 7.28Z" fill="#190134"/>
        <path d="M205.196 16.77C205.366 17.38 205.006 18.01 204.406 18.18C203.796 18.35 203.166 17.99 202.996 17.39C202.826 16.78 202.716 14.47 203.326 14.3C203.926 14.13 205.026 16.17 205.196 16.77Z" fill="#190134"/>
        <path d="M212.826 12.69C213.196 13.2 213.086 13.92 212.586 14.29C212.076 14.66 211.356 14.55 210.986 14.05C210.616 13.54 209.686 11.42 210.196 11.04C210.706 10.66 212.456 12.18 212.826 12.69Z" fill="#190134"/>
        <path d="M176.316 15.1C176.316 15.61 175.906 16.02 175.396 16.02C174.886 16.02 174.476 15.61 174.476 15.1C174.476 14.59 174.886 14.18 175.396 14.18C175.906 14.18 176.316 14.59 176.316 15.1Z" fill="#FCFCFC"/>
        <path d="M190.386 23.94H171.086C170.716 23.94 170.416 23.64 170.416 23.27C170.416 22.9 170.716 22.6 171.086 22.6H190.376C190.746 22.6 191.046 22.9 191.046 23.27C191.046 23.64 190.756 23.94 190.386 23.94Z" fill="#FCFCFC"/>
        <path d="M197.346 23.94H192.906C192.536 23.94 192.236 23.64 192.236 23.27C192.236 22.9 192.536 22.6 192.906 22.6H197.336C197.706 22.6 198.006 22.9 198.006 23.27C198.006 23.64 197.716 23.94 197.346 23.94Z" fill="#FCFCFC"/>
    </g>
    <g opacity="0.8">
        <path d="M28.7957 46.2C19.2157 46.2 3.18566 46.2 1.80566 29.09C1.72566 28.12 2.05566 27.16 2.72566 26.44C3.38566 25.72 4.32566 25.31 5.30566 25.31H52.3057C53.2757 25.31 54.2057 25.72 54.8757 26.43C55.5357 27.14 55.8757 28.1 55.8057 29.07C54.5557 46.2 40.2657 46.2 28.7957 46.2ZM5.29566 27.99C4.98566 27.99 4.78565 28.16 4.68565 28.26C4.59565 28.36 4.44566 28.57 4.47566 28.87C5.56566 42.38 17.0857 43.52 28.7957 43.52C40.2357 43.52 52.0657 43.52 53.1157 28.88C53.1357 28.57 52.9857 28.36 52.8957 28.26C52.8057 28.16 52.6057 28 52.2957 28H5.29566V27.99Z" fill="#190134"/>
        <path d="M50.5957 22.43H6.99566C5.07566 22.43 3.37566 21.43 2.44566 19.74C1.51566 18.06 1.57566 16.09 2.59566 14.47C8.30566 5.41 18.0957 0 28.7957 0C39.4957 0 49.2857 5.41 54.9957 14.47C56.0157 16.09 56.0757 18.06 55.1457 19.74C54.2157 21.42 52.5157 22.43 50.5957 22.43ZM28.7957 2.68C19.0257 2.68 10.0757 7.62 4.86566 15.9C4.37566 16.68 4.34566 17.64 4.79566 18.45C5.24566 19.26 6.06566 19.75 6.99566 19.75H50.6057C51.5357 19.75 52.3557 19.26 52.8057 18.45C53.2557 17.64 53.2257 16.69 52.7357 15.9C47.5157 7.62 38.5657 2.68 28.7957 2.68Z" fill="#190134"/>
        <path d="M10.7357 13.07C10.4857 13.07 10.2357 12.98 10.0357 12.79C9.63566 12.4 9.62566 11.77 10.0057 11.37C14.2257 7.00999 19.5957 4.15999 25.5457 3.13999C26.0957 3.04999 26.6157 3.40999 26.7057 3.95999C26.7957 4.50999 26.4357 5.02999 25.8857 5.11999C20.3657 6.06999 15.3757 8.70999 11.4557 12.77C11.2657 12.96 11.0057 13.07 10.7357 13.07Z" fill="#FCFCFC"/>
        <path d="M53.8657 25.84H3.72567C2.20567 25.84 1.07567 24.43 1.39567 22.95C1.63567 21.86 2.60567 21.08 3.72567 21.08H53.8757C55.4357 21.08 56.5757 22.56 56.1757 24.07C55.8957 25.11 54.9557 25.84 53.8657 25.84Z" fill="#FFBF00"/>
        <path d="M53.8656 27.18H3.72564C2.59564 27.18 1.53564 26.67 0.825639 25.79C0.115639 24.91 -0.154359 23.77 0.0856409 22.66C0.455641 20.96 1.98564 19.73 3.72564 19.73H53.8756C55.0356 19.73 56.1156 20.26 56.8256 21.18C57.5356 22.1 57.7756 23.27 57.4756 24.4C57.0456 26.03 55.5556 27.18 53.8656 27.18ZM3.72564 22.41C3.23564 22.41 2.81564 22.75 2.70564 23.23C2.61564 23.65 2.79564 23.96 2.91564 24.11C3.03564 24.25 3.29564 24.5 3.72564 24.5H53.8756C54.3456 24.5 54.7656 24.18 54.8856 23.72C54.9656 23.41 54.9056 23.08 54.7056 22.82C54.5056 22.56 54.2056 22.41 53.8756 22.41H3.72564Z" fill="#190134"/>
        <path d="M1.33563 26.7C1.33563 27.05 1.60563 27.34 1.95563 27.37C5.92563 27.75 6.12563 31.72 10.4856 31.72C15.0556 31.72 15.0556 27.34 19.6356 27.34C24.2156 27.34 24.2156 31.72 28.7856 31.72C33.3656 31.72 33.3656 27.34 37.9356 27.34C42.5156 27.34 42.5156 31.72 47.0856 31.72C51.4456 31.72 51.6556 27.75 55.6256 27.37C55.9756 27.34 56.2456 27.05 56.2456 26.7C56.2456 26.33 55.9456 26.02 55.5656 26.02H2.01563C1.64563 26.02 1.33563 26.32 1.33563 26.7Z" fill="#FFBF00"/>
        <path d="M47.0956 33.06C44.2656 33.06 42.7856 31.64 41.5956 30.5C40.5356 29.48 39.6956 28.68 37.9456 28.68C36.1956 28.68 35.3556 29.48 34.2956 30.5C33.1056 31.64 31.6156 33.06 28.7956 33.06C25.9656 33.06 24.4856 31.64 23.2956 30.5C22.2356 29.48 21.3956 28.68 19.6456 28.68C17.8956 28.68 17.0556 29.48 15.9956 30.5C14.8056 31.64 13.3156 33.06 10.4956 33.06C7.66562 33.06 6.18562 31.64 4.99562 30.5C4.02562 29.57 3.25562 28.84 1.83562 28.71C0.795617 28.61 0.00561523 27.75 0.00561523 26.7C0.00561523 25.59 0.915616 24.68 2.02562 24.68H55.5856C56.6956 24.68 57.6056 25.59 57.6056 26.7C57.6056 27.75 56.8156 28.61 55.7656 28.71C54.3456 28.84 53.5756 29.58 52.6056 30.5C51.4156 31.64 49.9256 33.06 47.0956 33.06ZM42.0756 27.36C42.5956 27.75 43.0356 28.17 43.4456 28.56C44.5056 29.58 45.3456 30.38 47.0956 30.38C48.8456 30.38 49.6856 29.58 50.7456 28.56C51.1556 28.17 51.5956 27.75 52.1156 27.36H42.0756ZM23.7756 27.36C24.2956 27.75 24.7356 28.17 25.1456 28.56C26.2056 29.58 27.0456 30.38 28.7956 30.38C30.5456 30.38 31.3856 29.58 32.4456 28.56C32.8556 28.17 33.2956 27.75 33.8156 27.36H23.7756ZM5.46562 27.36C5.98562 27.75 6.42562 28.17 6.83562 28.56C7.89562 29.57 8.73562 30.38 10.4856 30.38C12.2356 30.38 13.0756 29.58 14.1356 28.56C14.5456 28.17 14.9856 27.75 15.5056 27.36H5.46562ZM2.07561 26.03C2.08561 26.03 2.08561 26.03 2.07561 26.03C2.08561 26.03 2.08561 26.03 2.07561 26.03Z" fill="#190134"/>
        <path d="M20.3356 14.03C19.9856 14.56 19.2756 14.71 18.7556 14.36C18.2256 14.01 18.0756 13.3 18.4256 12.78C18.7756 12.25 20.4356 10.64 20.9656 10.99C21.4856 11.33 20.6756 13.5 20.3356 14.03Z" fill="#190134"/>
        <path d="M12.9456 15.42C12.5456 15.91 11.8256 15.98 11.3356 15.57C10.8456 15.17 10.7756 14.45 11.1856 13.96C11.5856 13.47 13.4256 12.06 13.9056 12.46C14.3956 12.87 13.3556 14.93 12.9456 15.42Z" fill="#190134"/>
        <path d="M29.1856 16.04C29.1456 16.67 28.6056 17.15 27.9756 17.11C27.3456 17.07 26.8656 16.53 26.9056 15.9C26.9456 15.27 27.5956 13.05 28.2256 13.09C28.8556 13.12 29.2256 15.41 29.1856 16.04Z" fill="#190134"/>
        <path d="M28.0256 8.65C27.7756 9.23 27.0956 9.49 26.5156 9.24C25.9356 8.99 25.6756 8.31 25.9256 7.73C26.1756 7.15 27.5556 5.29 28.1356 5.54001C28.7156 5.8 28.2756 8.07 28.0256 8.65Z" fill="#190134"/>
        <path d="M38.1657 7.28C38.5557 7.78 38.4757 8.5 37.9757 8.89C37.4757 9.28 36.7557 9.2 36.3657 8.7C35.9757 8.2 34.9756 6.11 35.4656 5.72C35.9656 5.33 37.7657 6.78 38.1657 7.28Z" fill="#190134"/>
        <path d="M38.1956 16.77C38.3656 17.38 38.0056 18.01 37.4056 18.18C36.7956 18.35 36.1656 17.99 35.9956 17.39C35.8256 16.78 35.7156 14.47 36.3256 14.3C36.9256 14.13 38.0256 16.17 38.1956 16.77Z" fill="#190134"/>
        <path d="M45.8256 12.69C46.1956 13.2 46.0856 13.92 45.5856 14.29C45.0756 14.66 44.3556 14.55 43.9856 14.05C43.6156 13.54 42.6856 11.42 43.1956 11.04C43.7056 10.66 45.4556 12.18 45.8256 12.69Z" fill="#190134"/>
        <path d="M9.31565 15.1C9.31565 15.61 8.90565 16.02 8.39565 16.02C7.88565 16.02 7.47565 15.61 7.47565 15.1C7.47565 14.59 7.88565 14.18 8.39565 14.18C8.90565 14.18 9.31565 14.59 9.31565 15.1Z" fill="#FCFCFC"/>
        <path d="M23.3857 23.94H4.08565C3.71565 23.94 3.41565 23.64 3.41565 23.27C3.41565 22.9 3.71565 22.6 4.08565 22.6H23.3757C23.7457 22.6 24.0457 22.9 24.0457 23.27C24.0457 23.64 23.7557 23.94 23.3857 23.94Z" fill="#FCFCFC"/>
        <path d="M30.3457 23.94H25.9057C25.5357 23.94 25.2357 23.64 25.2357 23.27C25.2357 22.9 25.5357 22.6 25.9057 22.6H30.3357C30.7057 22.6 31.0057 22.9 31.0057 23.27C31.0057 23.64 30.7157 23.94 30.3457 23.94Z" fill="#FCFCFC"/>
    </g>
    <g opacity="0.3">
        <path d="M863.796 46.2C854.216 46.2 838.186 46.2 836.806 29.09C836.726 28.12 837.056 27.16 837.726 26.44C838.386 25.72 839.326 25.31 840.306 25.31H887.306C888.276 25.31 889.206 25.72 889.876 26.43C890.536 27.14 890.876 28.1 890.806 29.07C889.556 46.2 875.266 46.2 863.796 46.2ZM840.296 27.99C839.986 27.99 839.786 28.16 839.686 28.26C839.596 28.36 839.446 28.57 839.476 28.87C840.566 42.38 852.086 43.52 863.796 43.52C875.236 43.52 887.066 43.52 888.116 28.88C888.136 28.57 887.986 28.36 887.896 28.26C887.806 28.16 887.606 28 887.296 28H840.296V27.99Z" fill="#190134"/>
        <path d="M885.596 22.43H841.996C840.076 22.43 838.376 21.43 837.446 19.74C836.516 18.06 836.576 16.09 837.596 14.47C843.306 5.41 853.096 0 863.796 0C874.496 0 884.286 5.41 889.996 14.47C891.016 16.09 891.076 18.06 890.146 19.74C889.216 21.42 887.516 22.43 885.596 22.43ZM863.796 2.68C854.026 2.68 845.076 7.62 839.866 15.9C839.376 16.68 839.346 17.64 839.796 18.45C840.246 19.26 841.066 19.75 841.996 19.75H885.606C886.536 19.75 887.356 19.26 887.806 18.45C888.256 17.64 888.226 16.69 887.736 15.9C882.516 7.62 873.566 2.68 863.796 2.68Z" fill="#190134"/>
        <path d="M845.736 13.07C845.486 13.07 845.236 12.98 845.036 12.79C844.636 12.4 844.626 11.77 845.006 11.37C849.226 7.00999 854.596 4.15999 860.546 3.13999C861.096 3.04999 861.616 3.40999 861.706 3.95999C861.796 4.50999 861.436 5.02999 860.886 5.11999C855.366 6.06999 850.376 8.70999 846.456 12.77C846.266 12.96 846.006 13.07 845.736 13.07Z" fill="#FCFCFC"/>
        <path d="M888.866 25.84H838.726C837.206 25.84 836.076 24.43 836.396 22.95C836.636 21.86 837.606 21.08 838.726 21.08H888.876C890.436 21.08 891.576 22.56 891.176 24.07C890.896 25.11 889.956 25.84 888.866 25.84Z" fill="#FFBF00"/>
        <path d="M888.866 27.18H838.726C837.596 27.18 836.536 26.67 835.826 25.79C835.116 24.91 834.846 23.77 835.086 22.66C835.456 20.96 836.986 19.73 838.726 19.73H888.876C890.036 19.73 891.116 20.26 891.826 21.18C892.536 22.1 892.776 23.27 892.476 24.4C892.046 26.03 890.556 27.18 888.866 27.18ZM838.726 22.41C838.236 22.41 837.816 22.75 837.706 23.23C837.616 23.65 837.796 23.96 837.916 24.11C838.036 24.25 838.296 24.5 838.726 24.5H888.876C889.346 24.5 889.766 24.18 889.886 23.72C889.966 23.41 889.906 23.08 889.706 22.82C889.506 22.56 889.206 22.41 888.876 22.41H838.726Z" fill="#190134"/>
        <path d="M836.336 26.7C836.336 27.05 836.606 27.34 836.956 27.37C840.926 27.75 841.126 31.72 845.486 31.72C850.056 31.72 850.056 27.34 854.636 27.34C859.216 27.34 859.216 31.72 863.786 31.72C868.366 31.72 868.366 27.34 872.936 27.34C877.516 27.34 877.516 31.72 882.086 31.72C886.446 31.72 886.656 27.75 890.626 27.37C890.976 27.34 891.246 27.05 891.246 26.7C891.246 26.33 890.946 26.02 890.566 26.02H837.016C836.646 26.02 836.336 26.32 836.336 26.7Z" fill="#FFBF00"/>
        <path d="M882.096 33.06C879.266 33.06 877.786 31.64 876.596 30.5C875.536 29.48 874.696 28.68 872.946 28.68C871.196 28.68 870.356 29.48 869.296 30.5C868.106 31.64 866.616 33.06 863.796 33.06C860.966 33.06 859.486 31.64 858.296 30.5C857.236 29.48 856.396 28.68 854.646 28.68C852.896 28.68 852.056 29.48 850.996 30.5C849.806 31.64 848.316 33.06 845.496 33.06C842.666 33.06 841.186 31.64 839.996 30.5C839.026 29.57 838.256 28.84 836.836 28.71C835.796 28.61 835.006 27.75 835.006 26.7C835.006 25.59 835.916 24.68 837.026 24.68H890.586C891.696 24.68 892.606 25.59 892.606 26.7C892.606 27.75 891.816 28.61 890.766 28.71C889.346 28.84 888.576 29.58 887.606 30.5C886.416 31.64 884.926 33.06 882.096 33.06ZM877.076 27.36C877.596 27.75 878.036 28.17 878.446 28.56C879.506 29.58 880.346 30.38 882.096 30.38C883.846 30.38 884.686 29.58 885.746 28.56C886.156 28.17 886.596 27.75 887.116 27.36H877.076ZM858.776 27.36C859.296 27.75 859.736 28.17 860.146 28.56C861.206 29.58 862.046 30.38 863.796 30.38C865.546 30.38 866.386 29.58 867.446 28.56C867.856 28.17 868.296 27.75 868.816 27.36H858.776ZM840.466 27.36C840.986 27.75 841.426 28.17 841.836 28.56C842.896 29.57 843.736 30.38 845.486 30.38C847.236 30.38 848.076 29.58 849.136 28.56C849.546 28.17 849.986 27.75 850.506 27.36H840.466ZM837.076 26.03C837.086 26.03 837.086 26.03 837.076 26.03C837.086 26.03 837.086 26.03 837.076 26.03Z" fill="#190134"/>
        <path d="M855.336 14.03C854.986 14.56 854.276 14.71 853.756 14.36C853.226 14.01 853.076 13.3 853.426 12.78C853.776 12.25 855.436 10.64 855.966 10.99C856.486 11.33 855.676 13.5 855.336 14.03Z" fill="#190134"/>
        <path d="M847.946 15.42C847.546 15.91 846.826 15.98 846.336 15.57C845.846 15.17 845.776 14.45 846.186 13.96C846.586 13.47 848.426 12.06 848.906 12.46C849.396 12.87 848.356 14.93 847.946 15.42Z" fill="#190134"/>
        <path d="M864.186 16.04C864.146 16.67 863.606 17.15 862.976 17.11C862.346 17.07 861.866 16.53 861.906 15.9C861.946 15.27 862.596 13.05 863.226 13.09C863.856 13.12 864.226 15.41 864.186 16.04Z" fill="#190134"/>
        <path d="M863.026 8.65C862.776 9.23 862.096 9.49 861.516 9.24C860.936 8.99 860.676 8.31 860.926 7.73C861.176 7.15 862.556 5.29 863.136 5.54001C863.716 5.8 863.276 8.07 863.026 8.65Z" fill="#190134"/>
        <path d="M873.166 7.28C873.556 7.78 873.476 8.5 872.976 8.89C872.476 9.28 871.756 9.2 871.366 8.7C870.976 8.2 869.976 6.11 870.466 5.72C870.966 5.33 872.766 6.78 873.166 7.28Z" fill="#190134"/>
        <path d="M873.196 16.77C873.366 17.38 873.006 18.01 872.406 18.18C871.796 18.35 871.166 17.99 870.996 17.39C870.826 16.78 870.716 14.47 871.326 14.3C871.926 14.13 873.026 16.17 873.196 16.77Z" fill="#190134"/>
        <path d="M880.826 12.69C881.196 13.2 881.086 13.92 880.586 14.29C880.076 14.66 879.356 14.55 878.986 14.05C878.616 13.54 877.686 11.42 878.196 11.04C878.706 10.66 880.456 12.18 880.826 12.69Z" fill="#190134"/>
        <path d="M844.316 15.1C844.316 15.61 843.906 16.02 843.396 16.02C842.886 16.02 842.476 15.61 842.476 15.1C842.476 14.59 842.886 14.18 843.396 14.18C843.906 14.18 844.316 14.59 844.316 15.1Z" fill="#FCFCFC"/>
        <path d="M858.386 23.94H839.086C838.716 23.94 838.416 23.64 838.416 23.27C838.416 22.9 838.716 22.6 839.086 22.6H858.376C858.746 22.6 859.046 22.9 859.046 23.27C859.046 23.64 858.756 23.94 858.386 23.94Z" fill="#FCFCFC"/>
        <path d="M865.346 23.94H860.906C860.536 23.94 860.236 23.64 860.236 23.27C860.236 22.9 860.536 22.6 860.906 22.6H865.336C865.706 22.6 866.006 22.9 866.006 23.27C866.006 23.64 865.716 23.94 865.346 23.94Z" fill="#FCFCFC"/>
    </g>
    <g opacity="0.2">
        <path d="M1030.8 46.2C1021.22 46.2 1005.19 46.2 1003.81 29.09C1003.73 28.12 1004.06 27.16 1004.73 26.44C1005.39 25.72 1006.33 25.31 1007.31 25.31H1054.31C1055.28 25.31 1056.21 25.72 1056.88 26.43C1057.54 27.14 1057.88 28.1 1057.81 29.07C1056.56 46.2 1042.27 46.2 1030.8 46.2ZM1007.3 27.99C1006.99 27.99 1006.79 28.16 1006.69 28.26C1006.6 28.36 1006.45 28.57 1006.48 28.87C1007.57 42.38 1019.09 43.52 1030.8 43.52C1042.24 43.52 1054.07 43.52 1055.12 28.88C1055.14 28.57 1054.99 28.36 1054.9 28.26C1054.81 28.16 1054.61 28 1054.3 28H1007.3V27.99Z" fill="#190134"/>
        <path d="M1052.6 22.43H1009C1007.08 22.43 1005.38 21.43 1004.45 19.74C1003.52 18.06 1003.58 16.09 1004.6 14.47C1010.31 5.41 1020.1 0 1030.8 0C1041.5 0 1051.29 5.41 1057 14.47C1058.02 16.09 1058.08 18.06 1057.15 19.74C1056.22 21.42 1054.52 22.43 1052.6 22.43ZM1030.8 2.68C1021.03 2.68 1012.08 7.62 1006.87 15.9C1006.38 16.68 1006.35 17.64 1006.8 18.45C1007.25 19.26 1008.07 19.75 1009 19.75H1052.61C1053.54 19.75 1054.36 19.26 1054.81 18.45C1055.26 17.64 1055.23 16.69 1054.74 15.9C1049.52 7.62 1040.57 2.68 1030.8 2.68Z" fill="#190134"/>
        <path d="M1012.74 13.07C1012.49 13.07 1012.24 12.98 1012.04 12.79C1011.64 12.4 1011.63 11.77 1012.01 11.37C1016.23 7.00999 1021.6 4.15999 1027.55 3.13999C1028.1 3.04999 1028.62 3.40999 1028.71 3.95999C1028.8 4.50999 1028.44 5.02999 1027.89 5.11999C1022.37 6.06999 1017.38 8.70999 1013.46 12.77C1013.27 12.96 1013.01 13.07 1012.74 13.07Z" fill="#FCFCFC"/>
        <path d="M1055.87 25.84H1005.73C1004.21 25.84 1003.08 24.43 1003.4 22.95C1003.64 21.86 1004.61 21.08 1005.73 21.08H1055.88C1057.44 21.08 1058.58 22.56 1058.18 24.07C1057.9 25.11 1056.96 25.84 1055.87 25.84Z" fill="#FFBF00"/>
        <path d="M1055.87 27.18H1005.73C1004.6 27.18 1003.54 26.67 1002.83 25.79C1002.12 24.91 1001.85 23.77 1002.09 22.66C1002.46 20.96 1003.99 19.73 1005.73 19.73H1055.88C1057.04 19.73 1058.12 20.26 1058.83 21.18C1059.54 22.1 1059.78 23.27 1059.48 24.4C1059.05 26.03 1057.56 27.18 1055.87 27.18ZM1005.73 22.41C1005.24 22.41 1004.82 22.75 1004.71 23.23C1004.62 23.65 1004.8 23.96 1004.92 24.11C1005.04 24.25 1005.3 24.5 1005.73 24.5H1055.88C1056.35 24.5 1056.77 24.18 1056.89 23.72C1056.97 23.41 1056.91 23.08 1056.71 22.82C1056.51 22.56 1056.21 22.41 1055.88 22.41H1005.73Z" fill="#190134"/>
        <path d="M1003.34 26.7C1003.34 27.05 1003.61 27.34 1003.96 27.37C1007.93 27.75 1008.13 31.72 1012.49 31.72C1017.06 31.72 1017.06 27.34 1021.64 27.34C1026.22 27.34 1026.22 31.72 1030.79 31.72C1035.37 31.72 1035.37 27.34 1039.94 27.34C1044.52 27.34 1044.52 31.72 1049.09 31.72C1053.45 31.72 1053.66 27.75 1057.63 27.37C1057.98 27.34 1058.25 27.05 1058.25 26.7C1058.25 26.33 1057.95 26.02 1057.57 26.02H1004.02C1003.65 26.02 1003.34 26.32 1003.34 26.7Z" fill="#FFBF00"/>
        <path d="M1049.1 33.06C1046.27 33.06 1044.79 31.64 1043.6 30.5C1042.54 29.48 1041.7 28.68 1039.95 28.68C1038.2 28.68 1037.36 29.48 1036.3 30.5C1035.11 31.64 1033.62 33.06 1030.8 33.06C1027.97 33.06 1026.49 31.64 1025.3 30.5C1024.24 29.48 1023.4 28.68 1021.65 28.68C1019.9 28.68 1019.06 29.48 1018 30.5C1016.81 31.64 1015.32 33.06 1012.5 33.06C1009.67 33.06 1008.19 31.64 1007 30.5C1006.03 29.57 1005.26 28.84 1003.84 28.71C1002.8 28.61 1002.01 27.75 1002.01 26.7C1002.01 25.59 1002.92 24.68 1004.03 24.68H1057.59C1058.7 24.68 1059.61 25.59 1059.61 26.7C1059.61 27.75 1058.82 28.61 1057.77 28.71C1056.35 28.84 1055.58 29.58 1054.61 30.5C1053.42 31.64 1051.93 33.06 1049.1 33.06ZM1044.08 27.36C1044.6 27.75 1045.04 28.17 1045.45 28.56C1046.51 29.58 1047.35 30.38 1049.1 30.38C1050.85 30.38 1051.69 29.58 1052.75 28.56C1053.16 28.17 1053.6 27.75 1054.12 27.36H1044.08ZM1025.78 27.36C1026.3 27.75 1026.74 28.17 1027.15 28.56C1028.21 29.58 1029.05 30.38 1030.8 30.38C1032.55 30.38 1033.39 29.58 1034.45 28.56C1034.86 28.17 1035.3 27.75 1035.82 27.36H1025.78ZM1007.47 27.36C1007.99 27.75 1008.43 28.17 1008.84 28.56C1009.9 29.57 1010.74 30.38 1012.49 30.38C1014.24 30.38 1015.08 29.58 1016.14 28.56C1016.55 28.17 1016.99 27.75 1017.51 27.36H1007.47ZM1004.08 26.03C1004.09 26.03 1004.09 26.03 1004.08 26.03C1004.09 26.03 1004.09 26.03 1004.08 26.03Z" fill="#190134"/>
        <path d="M1022.34 14.03C1021.99 14.56 1021.28 14.71 1020.76 14.36C1020.23 14.01 1020.08 13.3 1020.43 12.78C1020.78 12.25 1022.44 10.64 1022.97 10.99C1023.49 11.33 1022.68 13.5 1022.34 14.03Z" fill="#190134"/>
        <path d="M1014.95 15.42C1014.55 15.91 1013.83 15.98 1013.34 15.57C1012.85 15.17 1012.78 14.45 1013.19 13.96C1013.59 13.47 1015.43 12.06 1015.91 12.46C1016.4 12.87 1015.36 14.93 1014.95 15.42Z" fill="#190134"/>
        <path d="M1031.19 16.04C1031.15 16.67 1030.61 17.15 1029.98 17.11C1029.35 17.07 1028.87 16.53 1028.91 15.9C1028.95 15.27 1029.6 13.05 1030.23 13.09C1030.86 13.12 1031.23 15.41 1031.19 16.04Z" fill="#190134"/>
        <path d="M1030.03 8.65C1029.78 9.23 1029.1 9.49 1028.52 9.24C1027.94 8.99 1027.68 8.31 1027.93 7.73C1028.18 7.15 1029.56 5.29 1030.14 5.54001C1030.72 5.8 1030.28 8.07 1030.03 8.65Z" fill="#190134"/>
        <path d="M1040.17 7.28C1040.56 7.78 1040.48 8.5 1039.98 8.89C1039.48 9.28 1038.76 9.2 1038.37 8.7C1037.98 8.2 1036.98 6.11 1037.47 5.72C1037.97 5.33 1039.77 6.78 1040.17 7.28Z" fill="#190134"/>
        <path d="M1040.2 16.77C1040.37 17.38 1040.01 18.01 1039.41 18.18C1038.8 18.35 1038.17 17.99 1038 17.39C1037.83 16.78 1037.72 14.47 1038.33 14.3C1038.93 14.13 1040.03 16.17 1040.2 16.77Z" fill="#190134"/>
        <path d="M1047.83 12.69C1048.2 13.2 1048.09 13.92 1047.59 14.29C1047.08 14.66 1046.36 14.55 1045.99 14.05C1045.62 13.54 1044.69 11.42 1045.2 11.04C1045.71 10.66 1047.46 12.18 1047.83 12.69Z" fill="#190134"/>
        <path d="M1011.32 15.1C1011.32 15.61 1010.91 16.02 1010.4 16.02C1009.89 16.02 1009.48 15.61 1009.48 15.1C1009.48 14.59 1009.89 14.18 1010.4 14.18C1010.91 14.18 1011.32 14.59 1011.32 15.1Z" fill="#FCFCFC"/>
        <path d="M1025.39 23.94H1006.09C1005.72 23.94 1005.42 23.64 1005.42 23.27C1005.42 22.9 1005.72 22.6 1006.09 22.6H1025.38C1025.75 22.6 1026.05 22.9 1026.05 23.27C1026.05 23.64 1025.76 23.94 1025.39 23.94Z" fill="#FCFCFC"/>
        <path d="M1032.35 23.94H1027.91C1027.54 23.94 1027.24 23.64 1027.24 23.27C1027.24 22.9 1027.54 22.6 1027.91 22.6H1032.34C1032.71 22.6 1033.01 22.9 1033.01 23.27C1033.01 23.64 1032.72 23.94 1032.35 23.94Z" fill="#FCFCFC"/>
    </g>
    <g opacity="0.4">
        <path d="M696.796 46.2C687.216 46.2 671.186 46.2 669.806 29.09C669.726 28.12 670.056 27.16 670.726 26.44C671.386 25.72 672.326 25.31 673.306 25.31H720.306C721.276 25.31 722.206 25.72 722.876 26.43C723.536 27.14 723.876 28.1 723.806 29.07C722.556 46.2 708.266 46.2 696.796 46.2ZM673.296 27.99C672.986 27.99 672.786 28.16 672.686 28.26C672.596 28.36 672.446 28.57 672.476 28.87C673.566 42.38 685.086 43.52 696.796 43.52C708.236 43.52 720.066 43.52 721.116 28.88C721.136 28.57 720.986 28.36 720.896 28.26C720.806 28.16 720.606 28 720.296 28H673.296V27.99Z" fill="#190134"/>
        <path d="M718.596 22.43H674.996C673.076 22.43 671.376 21.43 670.446 19.74C669.516 18.06 669.576 16.09 670.596 14.47C676.306 5.41 686.096 0 696.796 0C707.496 0 717.286 5.41 722.996 14.47C724.016 16.09 724.076 18.06 723.146 19.74C722.216 21.42 720.516 22.43 718.596 22.43ZM696.796 2.68C687.026 2.68 678.076 7.62 672.866 15.9C672.376 16.68 672.346 17.64 672.796 18.45C673.246 19.26 674.066 19.75 674.996 19.75H718.606C719.536 19.75 720.356 19.26 720.806 18.45C721.256 17.64 721.226 16.69 720.736 15.9C715.516 7.62 706.566 2.68 696.796 2.68Z" fill="#190134"/>
        <path d="M678.736 13.07C678.486 13.07 678.236 12.98 678.036 12.79C677.636 12.4 677.626 11.77 678.006 11.37C682.226 7.00999 687.596 4.15999 693.546 3.13999C694.096 3.04999 694.616 3.40999 694.706 3.95999C694.796 4.50999 694.436 5.02999 693.886 5.11999C688.366 6.06999 683.376 8.70999 679.456 12.77C679.266 12.96 679.006 13.07 678.736 13.07Z" fill="#FCFCFC"/>
        <path d="M721.866 25.84H671.726C670.206 25.84 669.076 24.43 669.396 22.95C669.636 21.86 670.606 21.08 671.726 21.08H721.876C723.436 21.08 724.576 22.56 724.176 24.07C723.896 25.11 722.956 25.84 721.866 25.84Z" fill="#FFBF00"/>
        <path d="M721.866 27.18H671.726C670.596 27.18 669.536 26.67 668.826 25.79C668.116 24.91 667.846 23.77 668.086 22.66C668.456 20.96 669.986 19.73 671.726 19.73H721.876C723.036 19.73 724.116 20.26 724.826 21.18C725.536 22.1 725.776 23.27 725.476 24.4C725.046 26.03 723.556 27.18 721.866 27.18ZM671.726 22.41C671.236 22.41 670.816 22.75 670.706 23.23C670.616 23.65 670.796 23.96 670.916 24.11C671.036 24.25 671.296 24.5 671.726 24.5H721.876C722.346 24.5 722.766 24.18 722.886 23.72C722.966 23.41 722.906 23.08 722.706 22.82C722.506 22.56 722.206 22.41 721.876 22.41H671.726Z" fill="#190134"/>
        <path d="M669.336 26.7C669.336 27.05 669.606 27.34 669.956 27.37C673.926 27.75 674.126 31.72 678.486 31.72C683.056 31.72 683.056 27.34 687.636 27.34C692.216 27.34 692.216 31.72 696.786 31.72C701.366 31.72 701.366 27.34 705.936 27.34C710.516 27.34 710.516 31.72 715.086 31.72C719.446 31.72 719.656 27.75 723.626 27.37C723.976 27.34 724.246 27.05 724.246 26.7C724.246 26.33 723.946 26.02 723.566 26.02H670.016C669.646 26.02 669.336 26.32 669.336 26.7Z" fill="#FFBF00"/>
        <path d="M715.096 33.06C712.266 33.06 710.786 31.64 709.596 30.5C708.536 29.48 707.696 28.68 705.946 28.68C704.196 28.68 703.356 29.48 702.296 30.5C701.106 31.64 699.616 33.06 696.796 33.06C693.966 33.06 692.486 31.64 691.296 30.5C690.236 29.48 689.396 28.68 687.646 28.68C685.896 28.68 685.056 29.48 683.996 30.5C682.806 31.64 681.316 33.06 678.496 33.06C675.666 33.06 674.186 31.64 672.996 30.5C672.026 29.57 671.256 28.84 669.836 28.71C668.796 28.61 668.006 27.75 668.006 26.7C668.006 25.59 668.916 24.68 670.026 24.68H723.586C724.696 24.68 725.606 25.59 725.606 26.7C725.606 27.75 724.816 28.61 723.766 28.71C722.346 28.84 721.576 29.58 720.606 30.5C719.416 31.64 717.926 33.06 715.096 33.06ZM710.076 27.36C710.596 27.75 711.036 28.17 711.446 28.56C712.506 29.58 713.346 30.38 715.096 30.38C716.846 30.38 717.686 29.58 718.746 28.56C719.156 28.17 719.596 27.75 720.116 27.36H710.076ZM691.776 27.36C692.296 27.75 692.736 28.17 693.146 28.56C694.206 29.58 695.046 30.38 696.796 30.38C698.546 30.38 699.386 29.58 700.446 28.56C700.856 28.17 701.296 27.75 701.816 27.36H691.776ZM673.466 27.36C673.986 27.75 674.426 28.17 674.836 28.56C675.896 29.57 676.736 30.38 678.486 30.38C680.236 30.38 681.076 29.58 682.136 28.56C682.546 28.17 682.986 27.75 683.506 27.36H673.466ZM670.076 26.03C670.086 26.03 670.086 26.03 670.076 26.03C670.086 26.03 670.086 26.03 670.076 26.03Z" fill="#190134"/>
        <path d="M688.336 14.03C687.986 14.56 687.276 14.71 686.756 14.36C686.226 14.01 686.076 13.3 686.426 12.78C686.776 12.25 688.436 10.64 688.966 10.99C689.486 11.33 688.676 13.5 688.336 14.03Z" fill="#190134"/>
        <path d="M680.946 15.42C680.546 15.91 679.826 15.98 679.336 15.57C678.846 15.17 678.776 14.45 679.186 13.96C679.586 13.47 681.426 12.06 681.906 12.46C682.396 12.87 681.356 14.93 680.946 15.42Z" fill="#190134"/>
        <path d="M697.186 16.04C697.146 16.67 696.606 17.15 695.976 17.11C695.346 17.07 694.866 16.53 694.906 15.9C694.946 15.27 695.596 13.05 696.226 13.09C696.856 13.12 697.226 15.41 697.186 16.04Z" fill="#190134"/>
        <path d="M696.026 8.65C695.776 9.23 695.096 9.49 694.516 9.24C693.936 8.99 693.676 8.31 693.926 7.73C694.176 7.15 695.556 5.29 696.136 5.54001C696.716 5.8 696.276 8.07 696.026 8.65Z" fill="#190134"/>
        <path d="M706.166 7.28C706.556 7.78 706.476 8.5 705.976 8.89C705.476 9.28 704.756 9.2 704.366 8.7C703.976 8.2 702.976 6.11 703.466 5.72C703.966 5.33 705.766 6.78 706.166 7.28Z" fill="#190134"/>
        <path d="M706.196 16.77C706.366 17.38 706.006 18.01 705.406 18.18C704.796 18.35 704.166 17.99 703.996 17.39C703.826 16.78 703.716 14.47 704.326 14.3C704.926 14.13 706.026 16.17 706.196 16.77Z" fill="#190134"/>
        <path d="M713.826 12.69C714.196 13.2 714.086 13.92 713.586 14.29C713.076 14.66 712.356 14.55 711.986 14.05C711.616 13.54 710.686 11.42 711.196 11.04C711.706 10.66 713.456 12.18 713.826 12.69Z" fill="#190134"/>
        <path d="M677.316 15.1C677.316 15.61 676.906 16.02 676.396 16.02C675.886 16.02 675.476 15.61 675.476 15.1C675.476 14.59 675.886 14.18 676.396 14.18C676.906 14.18 677.316 14.59 677.316 15.1Z" fill="#FCFCFC"/>
        <path d="M691.386 23.94H672.086C671.716 23.94 671.416 23.64 671.416 23.27C671.416 22.9 671.716 22.6 672.086 22.6H691.376C691.746 22.6 692.046 22.9 692.046 23.27C692.046 23.64 691.756 23.94 691.386 23.94Z" fill="#FCFCFC"/>
        <path d="M698.346 23.94H693.906C693.536 23.94 693.236 23.64 693.236 23.27C693.236 22.9 693.536 22.6 693.906 22.6H698.336C698.706 22.6 699.006 22.9 699.006 23.27C699.006 23.64 698.716 23.94 698.346 23.94Z" fill="#FCFCFC"/>
    </g>
</svg>
