<svg width="110" height="137" viewBox="0 0 110 137" fill="none" xmlns="http://www.w3.org/2000/svg">
    <path d="M22.45 47.65C22.45 47.65 18.87 24.54 13.78 15.94C13.73 15.85 13.68 15.77 13.63 15.69C9.85 9.60002 0.459998 13.78 2.39 20.67L18.34 77.77L22.45 47.65Z" fill="white"/>
    <path d="M19.05 88.29L0.329997 21.25C-0.820003 17.14 1.12 13.06 5.04 11.34C8.93 9.63002 13.21 10.96 15.44 14.56L15.62 14.85C20.86 23.7 24.42 46.36 24.57 47.32L24.62 47.63L24.58 47.94L19.05 88.29ZM8.51 14.89C7.88 14.89 7.28 15.04 6.76 15.26C5.25 15.92 3.74 17.58 4.45 20.1L17.62 67.25L20.3 47.68C19.86 44.95 16.46 24.66 11.95 17.03L11.82 16.82C10.92 15.39 9.68 14.89 8.51 14.89Z" fill="#232323"/>
    <path d="M24.07 44.18C24.07 44.18 24.27 20.8 20.64 11.48C20.6 11.39 20.57 11.3 20.53 11.2C17.79 4.59998 7.85 7.19998 8.63 14.31L15.13 73.24L24.07 44.18Z" fill="white"/>
    <path d="M14.14 83.74L6.51 14.55C6.04 10.31 8.61 6.59998 12.76 5.53998C16.88 4.47998 20.88 6.47998 22.5 10.4L22.63 10.73C26.36 20.3 26.21 43.24 26.2 44.21V44.52L26.11 44.82L14.14 83.74ZM14.92 9.53998C14.53 9.53998 14.16 9.58998 13.81 9.67998C12.22 10.09 10.46 11.49 10.75 14.08L16.12 62.74L21.93 43.86C21.94 41.1 21.87 20.53 18.64 12.27L18.55 12.04C17.78 10.17 16.29 9.53998 14.92 9.53998ZM24.06 44.18H24.07H24.06Z" fill="#232323"/>
    <path d="M28.22 40.19C28.22 40.19 33.58 17.43 32.09 7.54004C32.08 7.44004 32.06 7.34004 32.04 7.25004C30.83 0.190039 20.56 0.540039 19.75 7.65004L13.08 66.56L28.22 40.19Z" fill="white"/>
    <path d="M13.1 68.7C13.02 68.7 12.94 68.7 12.86 68.69C11.69 68.56 10.84 67.5 10.98 66.33L17.65 7.42001C18.13 3.18001 21.46 0.13001 25.74 0.0100098C25.83 0.0100098 25.91 0.0100098 26 0.0100098C30.13 0.0100098 33.47 2.81001 34.17 6.90001L34.22 7.22001C35.75 17.41 30.54 39.74 30.32 40.69C30.05 41.84 28.89 42.55 27.75 42.28C26.6 42.01 25.89 40.86 26.16 39.71C26.21 39.49 31.41 17.23 30 7.87001L29.96 7.62001C29.53 5.08001 27.45 4.24001 25.87 4.28001C24.23 4.33001 22.2 5.30001 21.91 7.90001L15.22 66.8C15.09 67.89 14.17 68.7 13.1 68.7Z" fill="#232323"/>
    <path d="M25.25 42.53C30.04 38.34 35.97 35.38 42.61 34.22C44.65 33.86 47 33.62 47 33.62C55.92 32.64 59.21 37.07 59.21 37.07C59.55 37.53 60.82 39.3 60.57 41.63C60.52 42.14 60.25 43.99 58.79 45.22C57.32 46.47 55.42 46.42 54.43 46.41C48.57 46.34 43.33 47.02 41.74 47.3C36.73 48.18 33.34 51.15 32.2 52.15C26.97 56.73 24.56 64.07 24.88 70.67C25.56 84.62 37.82 94.91 51.49 93.41C54.36 93.09 57.06 92.28 59.51 91.07C62.54 89.57 66.21 90.98 67.53 94.1C68.75 96.98 67.53 100.32 64.74 101.71C61.76 103.19 58.53 104.27 55.12 104.87C33.73 108.61 9.83 97.32 8.83 75.63C8.59 70.42 10.51 59.82 15.52 56.28L25.25 42.53Z" fill="white"/>
    <path d="M46.94 107.73C36.35 107.73 25.95 104.41 18.45 98.39C11.16 92.55 7.08999 84.72 6.67999 75.75C6.45999 70.95 8.07 58.94 14.27 54.55C15.23 53.87 16.57 54.1 17.25 55.06C17.93 56.02 17.7 57.36 16.74 58.04C12.78 60.84 10.7 70.12 10.95 75.55C11.31 83.25 14.82 89.99 21.12 95.05C29.71 101.94 42.59 104.9 54.73 102.78C57.87 102.23 60.91 101.23 63.77 99.81C65.55 98.93 66.33 96.79 65.54 94.95C65.13 93.97 64.35 93.23 63.36 92.86C62.39 92.5 61.36 92.55 60.44 93C57.71 94.35 54.77 95.21 51.71 95.54C44.58 96.32 37.34 94.1 31.88 89.44C26.34 84.71 23.09 78.09 22.73 70.78C22.35 62.98 25.43 55.23 30.78 50.55C32.01 49.47 35.76 46.19 41.35 45.2C43.34 44.85 48.64 44.2 54.44 44.27C55.31 44.29 56.55 44.3 57.39 43.59C58.21 42.9 58.39 41.74 58.43 41.4C58.57 40.12 57.99 39.02 57.48 38.33C57.39 38.22 54.65 34.91 47.22 35.73C47.18 35.73 44.9 35.97 42.97 36.31C36.93 37.37 31.29 40.07 26.65 44.13C25.76 44.91 24.41 44.82 23.63 43.93C22.85 43.04 22.94 41.69 23.83 40.91C29.05 36.34 35.41 33.29 42.22 32.1C44.31 31.73 46.66 31.49 46.76 31.48C56.77 30.37 60.74 35.56 60.9 35.79C62.26 37.63 62.89 39.78 62.67 41.85C62.57 42.79 62.12 45.17 60.15 46.85C58.09 48.6 55.61 48.56 54.42 48.55C48.69 48.49 43.58 49.15 42.09 49.41C37.67 50.19 34.6 52.88 33.59 53.76C29.2 57.6 26.68 64.04 27 70.57C27.3 76.68 30.02 82.23 34.65 86.18C39.29 90.14 45.18 91.95 51.24 91.29C53.8 91.01 56.26 90.29 58.54 89.16C60.52 88.18 62.76 88.07 64.84 88.84C66.92 89.61 68.61 91.23 69.47 93.27C71.13 97.19 69.46 101.74 65.66 103.63C62.43 105.23 59 106.36 55.46 106.98C52.65 107.49 49.78 107.73 46.94 107.73Z" fill="#232323"/>
    <path d="M39.46 103.55C39.57 106.05 40.88 116.47 40.88 116.47L20.14 119.07L9.02 78.04C9.02 78.04 18.09 80.86 20.98 84.05C23.87 87.24 39.46 103.55 39.46 103.55Z" fill="white"/>
    <path d="M18.56 121.42L6.96 78.6C6.65 77.46 7.33 76.29 8.46 75.98C9.61 75.67 10.77 76.35 11.08 77.48L21.71 116.72L38.49 114.62C38.1 111.41 37.4 105.51 37.32 103.64C37.27 102.46 38.19 101.46 39.37 101.42C40.58 101.39 41.55 102.29 41.59 103.47C41.67 105.38 42.54 112.64 42.99 116.21L43.26 118.33L18.56 121.42Z" fill="#232323"/>
    <path d="M15.0394 134.617L51.1017 130.656L49.4747 115.845L13.4123 119.807L15.0394 134.617Z" fill="#232323"/>
    <path d="M13.15 136.98L11.06 117.92L51.37 113.49L53.46 132.55L13.15 136.98ZM15.77 121.7L16.93 132.26L48.74 128.76L47.58 118.2L15.77 121.7Z" fill="#232323"/>
    <path d="M20.56 126.51C20.69 127.66 21.72 128.48 22.86 128.36C24.01 128.23 24.83 127.2 24.71 126.06C24.58 124.91 23.55 124.09 22.41 124.21C21.27 124.34 20.44 125.37 20.56 126.51Z" fill="white"/>
    <path d="M22.63 130.51C20.51 130.51 18.67 128.91 18.43 126.75C18.18 124.43 19.85 122.34 22.17 122.09C23.3 121.97 24.39 122.29 25.27 122.99C26.15 123.7 26.7 124.7 26.83 125.82C26.95 126.94 26.63 128.04 25.93 128.92C25.22 129.8 24.22 130.35 23.1 130.48C22.94 130.5 22.79 130.51 22.63 130.51ZM22.64 126.24C22.64 126.24 22.63 126.24 22.64 126.24L20.57 126.52L22.7 126.28C22.69 126.25 22.66 126.24 22.64 126.24Z" fill="white"/>
    <path d="M79.31 40.44C78.47 40.44 77.77 39.75 77.77 38.9V27.72C77.77 26.87 78.46 26.18 79.31 26.18C80.16 26.18 80.85 26.87 80.85 27.72V38.9C80.84 39.74 80.15 40.44 79.31 40.44Z" fill="#232323"/>
    <path d="M88.49 44.44C87.85 43.88 87.79 42.91 88.35 42.27L95.72 33.86C96.28 33.22 97.25 33.16 97.89 33.72C98.53 34.28 98.59 35.25 98.03 35.89L90.66 44.3C90.1 44.93 89.12 44.99 88.49 44.44Z" fill="#232323"/>
    <path d="M95.28 53.05C95.21 52.21 95.83 51.46 96.68 51.38L107.81 50.4C108.65 50.33 109.4 50.95 109.48 51.8C109.55 52.64 108.93 53.39 108.08 53.47L96.95 54.45C96.11 54.52 95.36 53.89 95.28 53.05Z" fill="#232323"/>
</svg>
