<svg width="297" height="258" viewBox="0 0 297 258" fill="none" xmlns="http://www.w3.org/2000/svg">
    <circle opacity="0.23" cx="131" cy="87" r="68" fill="#FFBF00"/>
    <circle cx="131" cy="87" r="53" fill="#FFBF00"/>
    <circle opacity="0.1" cx="131" cy="87" r="85.5" stroke="#FFBF00" stroke-width="3"/>
    <path d="M130.39 111.06C120.81 111.06 104.78 111.06 103.4 93.95C103.32 92.98 103.65 92.02 104.32 91.3C104.98 90.58 105.92 90.17 106.9 90.17H153.9C154.87 90.17 155.8 90.58 156.47 91.29C157.13 92 157.47 92.96 157.4 93.93C156.15 111.06 141.86 111.06 130.39 111.06ZM106.89 92.85C106.58 92.85 106.38 93.02 106.28 93.12C106.19 93.22 106.04 93.43 106.07 93.73C107.16 107.24 118.68 108.38 130.39 108.38C141.83 108.38 153.66 108.38 154.71 93.74C154.73 93.43 154.58 93.22 154.49 93.12C154.4 93.02 154.2 92.86 153.89 92.86H106.89V92.85Z" fill="#232323"/>
    <path d="M152.19 87.29H108.59C106.67 87.29 104.97 86.29 104.04 84.6C103.11 82.92 103.17 80.95 104.19 79.33C109.9 70.27 119.69 64.86 130.39 64.86C141.09 64.86 150.88 70.27 156.59 79.33C157.61 80.95 157.67 82.92 156.74 84.6C155.81 86.28 154.11 87.29 152.19 87.29ZM130.39 67.54C120.62 67.54 111.67 72.48 106.46 80.76C105.97 81.54 105.94 82.5 106.39 83.31C106.84 84.12 107.66 84.61 108.59 84.61H152.2C153.13 84.61 153.95 84.12 154.4 83.31C154.85 82.5 154.82 81.55 154.33 80.76C149.11 72.48 140.16 67.54 130.39 67.54Z" fill="#232323"/>
    <path d="M112.33 77.93C112.08 77.93 111.83 77.84 111.63 77.65C111.23 77.26 111.22 76.63 111.6 76.23C115.82 71.87 121.19 69.02 127.14 68C127.69 67.91 128.21 68.27 128.3 68.82C128.39 69.37 128.03 69.89 127.48 69.98C121.96 70.93 116.97 73.57 113.05 77.63C112.86 77.82 112.6 77.93 112.33 77.93Z" fill="#FCFCFC"/>
    <path d="M155.46 90.6999H105.32C103.8 90.6999 102.67 89.2899 102.99 87.8099C103.23 86.7199 104.2 85.9399 105.32 85.9399H155.47C157.03 85.9399 158.17 87.4199 157.77 88.9299C157.49 89.9699 156.55 90.6999 155.46 90.6999Z" fill="#F6C114"/>
    <path d="M155.46 92.04H105.32C104.19 92.04 103.13 91.53 102.42 90.65C101.71 89.77 101.44 88.63 101.68 87.52C102.05 85.82 103.58 84.59 105.32 84.59H155.47C156.63 84.59 157.71 85.12 158.42 86.04C159.13 86.96 159.37 88.13 159.07 89.26C158.64 90.89 157.15 92.04 155.46 92.04ZM105.32 87.27C104.83 87.27 104.41 87.61 104.3 88.09C104.21 88.51 104.39 88.82 104.51 88.97C104.63 89.11 104.89 89.36 105.32 89.36H155.47C155.94 89.36 156.36 89.04 156.48 88.58C156.56 88.27 156.5 87.94 156.3 87.68C156.1 87.42 155.8 87.27 155.47 87.27H105.32Z" fill="#232323"/>
    <path d="M102.93 91.56C102.93 91.91 103.2 92.2 103.55 92.23C107.52 92.61 107.72 96.58 112.08 96.58C116.65 96.58 116.65 92.2 121.23 92.2C125.81 92.2 125.81 96.58 130.38 96.58C134.96 96.58 134.96 92.2 139.53 92.2C144.11 92.2 144.11 96.58 148.68 96.58C153.04 96.58 153.25 92.61 157.22 92.23C157.57 92.2 157.84 91.91 157.84 91.56C157.84 91.19 157.54 90.88 157.16 90.88H103.61C103.24 90.88 102.93 91.18 102.93 91.56Z" fill="#F6C114"/>
    <path d="M148.69 97.92C145.86 97.92 144.38 96.5 143.19 95.36C142.13 94.34 141.29 93.54 139.54 93.54C137.79 93.54 136.95 94.34 135.89 95.36C134.7 96.5 133.21 97.92 130.39 97.92C127.56 97.92 126.08 96.5 124.89 95.36C123.83 94.34 122.99 93.54 121.24 93.54C119.49 93.54 118.65 94.34 117.59 95.36C116.4 96.5 114.91 97.92 112.09 97.92C109.26 97.92 107.78 96.5 106.59 95.36C105.62 94.43 104.85 93.7 103.43 93.57C102.39 93.47 101.6 92.61 101.6 91.56C101.6 90.45 102.51 89.54 103.62 89.54H157.18C158.29 89.54 159.2 90.45 159.2 91.56C159.2 92.61 158.41 93.47 157.36 93.57C155.94 93.7 155.17 94.44 154.2 95.36C153.01 96.5 151.52 97.92 148.69 97.92ZM143.67 92.22C144.19 92.61 144.63 93.03 145.04 93.42C146.1 94.44 146.94 95.24 148.69 95.24C150.44 95.24 151.28 94.44 152.34 93.42C152.75 93.03 153.19 92.61 153.71 92.22H143.67ZM125.37 92.22C125.89 92.61 126.33 93.03 126.74 93.42C127.8 94.44 128.64 95.24 130.39 95.24C132.14 95.24 132.98 94.44 134.04 93.42C134.45 93.03 134.89 92.61 135.41 92.22H125.37ZM107.06 92.22C107.58 92.61 108.02 93.03 108.43 93.42C109.49 94.43 110.33 95.24 112.08 95.24C113.83 95.24 114.67 94.44 115.73 93.42C116.14 93.03 116.58 92.61 117.1 92.22H107.06ZM103.67 90.89C103.68 90.89 103.68 90.89 103.67 90.89C103.68 90.89 103.68 90.89 103.67 90.89Z" fill="#232323"/>
    <path d="M121.93 78.89C121.58 79.42 120.87 79.57 120.35 79.22C119.82 78.87 119.67 78.16 120.02 77.64C120.37 77.11 122.03 75.5 122.56 75.85C123.08 76.19 122.27 78.36 121.93 78.89Z" fill="#232323"/>
    <path d="M114.54 80.28C114.14 80.77 113.42 80.84 112.93 80.43C112.44 80.03 112.37 79.31 112.78 78.82C113.18 78.33 115.02 76.92 115.5 77.32C115.99 77.73 114.95 79.79 114.54 80.28Z" fill="#232323"/>
    <path d="M130.78 80.9C130.74 81.53 130.2 82.01 129.57 81.97C128.94 81.93 128.46 81.39 128.5 80.76C128.54 80.13 129.19 77.91 129.82 77.95C130.45 77.98 130.82 80.27 130.78 80.9Z" fill="#232323"/>
    <path d="M129.62 73.51C129.37 74.09 128.69 74.35 128.11 74.1C127.53 73.85 127.27 73.17 127.52 72.59C127.77 72.01 129.15 70.15 129.73 70.4C130.31 70.66 129.87 72.93 129.62 73.51Z" fill="#232323"/>
    <path d="M139.76 72.14C140.15 72.64 140.07 73.36 139.57 73.75C139.07 74.14 138.35 74.06 137.96 73.56C137.57 73.06 136.57 70.97 137.06 70.58C137.56 70.19 139.36 71.64 139.76 72.14Z" fill="#232323"/>
    <path d="M139.79 81.63C139.96 82.24 139.6 82.87 139 83.04C138.39 83.21 137.76 82.85 137.59 82.25C137.42 81.64 137.31 79.33 137.92 79.16C138.52 78.99 139.62 81.03 139.79 81.63Z" fill="#232323"/>
    <path d="M147.42 77.55C147.79 78.06 147.68 78.78 147.18 79.15C146.67 79.52 145.95 79.41 145.58 78.91C145.21 78.4 144.28 76.28 144.79 75.9C145.3 75.52 147.05 77.04 147.42 77.55Z" fill="#232323"/>
    <path d="M110.91 79.96C110.91 80.47 110.5 80.88 109.99 80.88C109.48 80.88 109.07 80.47 109.07 79.96C109.07 79.45 109.48 79.04 109.99 79.04C110.5 79.04 110.91 79.45 110.91 79.96Z" fill="#FCFCFC"/>
    <path d="M124.98 88.8H105.68C105.31 88.8 105.01 88.5 105.01 88.13C105.01 87.76 105.31 87.46 105.68 87.46H124.97C125.34 87.46 125.64 87.76 125.64 88.13C125.64 88.5 125.35 88.8 124.98 88.8Z" fill="#FCFCFC"/>
    <path d="M131.94 88.8H127.5C127.13 88.8 126.83 88.5 126.83 88.13C126.83 87.76 127.13 87.46 127.5 87.46H131.93C132.3 87.46 132.6 87.76 132.6 88.13C132.6 88.5 132.31 88.8 131.94 88.8Z" fill="#FCFCFC"/>
    <path d="M89.45 67.65C89.45 67.65 85.87 44.54 80.78 35.94C80.73 35.85 80.68 35.77 80.63 35.69C76.85 29.6 67.46 33.78 69.39 40.67L85.34 97.77L89.45 67.65Z" fill="white"/>
    <path d="M86.05 108.29L67.33 41.25C66.18 37.14 68.12 33.06 72.04 31.34C75.93 29.63 80.21 30.96 82.44 34.56L82.62 34.85C87.86 43.7 91.42 66.36 91.57 67.32L91.62 67.63L91.58 67.94L86.05 108.29ZM75.51 34.89C74.88 34.89 74.28 35.04 73.76 35.26C72.25 35.92 70.74 37.58 71.45 40.1L84.62 87.25L87.3 67.68C86.86 64.95 83.46 44.66 78.95 37.03L78.82 36.82C77.92 35.39 76.68 34.89 75.51 34.89Z" fill="#232323"/>
    <path d="M91.07 64.18C91.07 64.18 91.27 40.8 87.64 31.48C87.6 31.39 87.57 31.3 87.53 31.2C84.79 24.6 74.85 27.2 75.63 34.31L82.13 93.24L91.07 64.18Z" fill="white"/>
    <path d="M81.14 103.74L73.51 34.55C73.04 30.31 75.61 26.6 79.76 25.54C83.88 24.48 87.88 26.48 89.5 30.4L89.63 30.73C93.36 40.3 93.21 63.24 93.2 64.21V64.52L93.11 64.82L81.14 103.74ZM81.92 29.54C81.53 29.54 81.16 29.59 80.81 29.68C79.22 30.09 77.46 31.49 77.75 34.08L83.12 82.74L88.93 63.86C88.94 61.1 88.87 40.53 85.64 32.27L85.55 32.04C84.78 30.17 83.29 29.54 81.92 29.54ZM91.06 64.18H91.07H91.06Z" fill="#232323"/>
    <path d="M95.22 60.19C95.22 60.19 100.58 37.43 99.09 27.54C99.08 27.44 99.06 27.34 99.04 27.25C97.83 20.19 87.56 20.54 86.75 27.65L80.08 86.56L95.22 60.19Z" fill="white"/>
    <path d="M80.0999 88.7C80.0199 88.7 79.9399 88.7 79.8599 88.69C78.6899 88.56 77.8399 87.5 77.9799 86.33L84.6499 27.42C85.1299 23.18 88.4599 20.13 92.7399 20.01C92.8299 20.01 92.9099 20.01 92.9999 20.01C97.1299 20.01 100.47 22.81 101.17 26.9L101.22 27.22C102.75 37.41 97.5399 59.74 97.3199 60.69C97.0499 61.84 95.8899 62.55 94.7499 62.28C93.5999 62.01 92.8899 60.86 93.1599 59.71C93.2099 59.49 98.4099 37.23 96.9999 27.87L96.9599 27.62C96.5299 25.08 94.4499 24.24 92.8699 24.28C91.2299 24.33 89.1999 25.3 88.9099 27.9L82.2199 86.8C82.0899 87.89 81.1699 88.7 80.0999 88.7Z" fill="#232323"/>
    <path d="M92.25 62.53C97.04 58.34 102.97 55.38 109.61 54.22C111.65 53.86 114 53.62 114 53.62C122.92 52.64 126.21 57.07 126.21 57.07C126.55 57.53 127.82 59.3 127.57 61.63C127.52 62.14 127.25 63.99 125.79 65.22C124.32 66.47 122.42 66.42 121.43 66.41C115.57 66.34 110.33 67.02 108.74 67.3C103.73 68.18 100.34 71.15 99.2 72.15C93.97 76.73 91.56 84.07 91.88 90.67C92.56 104.62 104.82 114.91 118.49 113.41C121.36 113.09 124.06 112.28 126.51 111.07C129.54 109.57 133.21 110.98 134.53 114.1C135.75 116.98 134.53 120.32 131.74 121.71C128.76 123.19 125.53 124.27 122.12 124.87C100.73 128.61 76.83 117.32 75.83 95.63C75.59 90.42 77.51 79.82 82.52 76.28L92.25 62.53Z" fill="white"/>
    <path d="M113.94 127.73C103.35 127.73 92.95 124.41 85.45 118.39C78.16 112.55 74.09 104.72 73.68 95.75C73.46 90.95 75.07 78.94 81.27 74.55C82.23 73.87 83.57 74.1 84.25 75.06C84.93 76.02 84.7 77.36 83.74 78.04C79.78 80.84 77.7 90.12 77.95 95.55C78.31 103.25 81.82 109.99 88.12 115.05C96.71 121.94 109.59 124.9 121.73 122.78C124.87 122.23 127.91 121.23 130.77 119.81C132.55 118.93 133.33 116.79 132.54 114.95C132.13 113.97 131.35 113.23 130.36 112.86C129.39 112.5 128.36 112.55 127.44 113C124.71 114.35 121.77 115.21 118.71 115.54C111.58 116.32 104.34 114.1 98.88 109.44C93.34 104.71 90.09 98.09 89.73 90.78C89.35 82.98 92.43 75.23 97.78 70.55C99.01 69.47 102.76 66.19 108.35 65.2C110.34 64.85 115.64 64.2 121.44 64.27C122.31 64.29 123.55 64.3 124.39 63.59C125.21 62.9 125.39 61.74 125.43 61.4C125.57 60.12 124.99 59.02 124.48 58.33C124.39 58.22 121.65 54.91 114.22 55.73C114.18 55.73 111.9 55.97 109.97 56.31C103.93 57.37 98.29 60.07 93.65 64.13C92.76 64.91 91.41 64.82 90.63 63.93C89.85 63.04 89.94 61.69 90.83 60.91C96.05 56.34 102.41 53.29 109.22 52.1C111.31 51.73 113.66 51.49 113.76 51.48C123.77 50.37 127.74 55.56 127.9 55.79C129.26 57.63 129.89 59.78 129.67 61.85C129.57 62.79 129.12 65.17 127.15 66.85C125.09 68.6 122.61 68.56 121.42 68.55C115.69 68.49 110.58 69.15 109.09 69.41C104.67 70.19 101.6 72.88 100.59 73.76C96.2 77.6 93.68 84.04 94 90.57C94.3 96.68 97.02 102.23 101.65 106.18C106.29 110.14 112.18 111.95 118.24 111.29C120.8 111.01 123.26 110.29 125.54 109.16C127.52 108.18 129.76 108.07 131.84 108.84C133.92 109.61 135.61 111.23 136.47 113.27C138.13 117.19 136.46 121.74 132.66 123.63C129.43 125.23 126 126.36 122.46 126.98C119.65 127.49 116.78 127.73 113.94 127.73Z" fill="#232323"/>
    <path d="M106.46 123.55C106.57 126.05 107.88 136.47 107.88 136.47L87.14 139.07L76.02 98.04C76.02 98.04 85.09 100.86 87.98 104.05C90.87 107.24 106.46 123.55 106.46 123.55Z" fill="white"/>
    <path d="M85.56 141.42L73.96 98.6C73.65 97.46 74.33 96.29 75.46 95.98C76.61 95.67 77.77 96.35 78.08 97.48L88.71 136.72L105.49 134.62C105.1 131.41 104.4 125.51 104.32 123.64C104.27 122.46 105.19 121.46 106.37 121.42C107.58 121.39 108.55 122.29 108.59 123.47C108.67 125.38 109.54 132.64 109.99 136.21L110.26 138.33L85.56 141.42Z" fill="#232323"/>
    <path d="M82.0395 154.617L118.102 150.656L116.475 135.845L80.4124 139.807L82.0395 154.617Z" fill="#232323"/>
    <path d="M80.1501 156.98L78.0601 137.92L118.37 133.49L120.46 152.55L80.1501 156.98ZM82.7701 141.7L83.9301 152.26L115.74 148.76L114.58 138.2L82.7701 141.7Z" fill="#232323"/>
    <path d="M87.56 146.51C87.69 147.66 88.72 148.48 89.86 148.36C91.01 148.23 91.83 147.2 91.71 146.06C91.58 144.91 90.55 144.09 89.41 144.21C88.27 144.34 87.44 145.37 87.56 146.51Z" fill="white"/>
    <path d="M89.63 150.51C87.51 150.51 85.67 148.91 85.43 146.75C85.18 144.43 86.85 142.34 89.17 142.09C90.3 141.97 91.39 142.29 92.2701 142.99C93.1501 143.7 93.7 144.7 93.83 145.82C93.95 146.94 93.63 148.04 92.93 148.92C92.22 149.8 91.22 150.35 90.1 150.48C89.9401 150.5 89.79 150.51 89.63 150.51ZM89.64 146.24C89.64 146.24 89.63 146.24 89.64 146.24L87.57 146.52L89.7001 146.28C89.6901 146.25 89.66 146.24 89.64 146.24Z" fill="white"/>
    <path d="M146.31 60.44C145.47 60.44 144.77 59.75 144.77 58.9V47.72C144.77 46.87 145.46 46.18 146.31 46.18C147.16 46.18 147.85 46.87 147.85 47.72V58.9C147.84 59.74 147.15 60.44 146.31 60.44Z" fill="#232323"/>
    <path d="M155.49 64.44C154.85 63.88 154.79 62.91 155.35 62.27L162.72 53.86C163.28 53.22 164.25 53.16 164.89 53.72C165.53 54.28 165.59 55.25 165.03 55.89L157.66 64.3C157.1 64.93 156.12 64.99 155.49 64.44Z" fill="#232323"/>
    <path d="M162.28 73.05C162.21 72.21 162.83 71.46 163.68 71.38L174.81 70.4C175.65 70.33 176.4 70.95 176.48 71.8C176.55 72.64 175.93 73.39 175.08 73.47L163.95 74.45C163.11 74.52 162.36 73.89 162.28 73.05Z" fill="#232323"/>
    <path d="M27.4104 201.401C27.4104 201.81 27.3286 202.137 27.1651 202.382C27.0015 202.627 26.7971 202.811 26.5519 202.934C26.3066 203.057 26.0613 203.138 25.816 203.179C25.5707 203.22 25.3663 203.241 25.2028 203.241C24.5487 203.241 24.0582 202.914 23.7311 202.259C23.4449 201.564 23.077 200.829 22.6273 200.052C22.2185 199.234 21.5849 198.498 20.7264 197.844C19.9088 197.149 18.6211 196.802 16.8632 196.802C15.8003 196.802 14.86 197.027 14.0424 197.476C13.2248 197.926 12.5299 198.498 11.9575 199.193C11.4261 199.888 11.0173 200.665 10.7311 201.524C10.4858 202.341 10.3632 203.159 10.3632 203.976C10.3632 205.285 10.588 206.491 11.0377 207.594C11.5283 208.657 12.2028 209.679 13.0613 210.66C13.9198 211.601 14.9418 212.541 16.1273 213.481C17.3129 214.381 18.6006 215.341 19.9905 216.363C21.1761 217.222 22.3207 218.101 23.4245 219C24.5692 219.899 25.5707 220.86 26.4292 221.882C27.3286 222.904 28.044 224.008 28.5754 225.193C29.1069 226.338 29.3726 227.585 29.3726 228.934C29.3726 230.447 28.9434 231.693 28.0849 232.675C27.2673 233.656 26.2248 234.432 24.9575 235.005C23.6902 235.618 22.2799 236.027 20.7264 236.231C19.2138 236.476 17.7421 236.599 16.3113 236.599C14.8805 236.599 13.3679 236.476 11.7736 236.231C10.1792 235.986 8.70754 235.557 7.35848 234.943C6.00943 234.371 4.88522 233.615 3.98585 232.675C3.12736 231.775 2.69811 230.651 2.69811 229.302C2.69811 228.075 3.10692 227.115 3.92452 226.42C4.78301 225.725 6.00943 225.214 7.60377 224.887C7.52201 225.132 7.33804 225.561 7.05188 226.175C6.8066 226.747 6.68396 227.544 6.68396 228.566C6.68396 229.711 7.05188 230.631 7.78773 231.325C8.52358 232.02 9.40251 232.552 10.4245 232.92C11.4465 233.288 12.489 233.513 13.5519 233.594C14.6556 233.717 15.555 233.778 16.25 233.778C16.6997 233.778 17.3129 233.697 18.0896 233.533C18.9072 233.369 19.7044 233.124 20.4811 232.797C21.2578 232.47 21.9119 232.041 22.4434 231.509C23.0157 230.937 23.3019 230.263 23.3019 229.486C23.3019 228.873 23.0975 228.239 22.6887 227.585C22.3207 226.89 21.8097 226.195 21.1556 225.5C20.5016 224.764 19.7453 224.028 18.8868 223.292C18.0283 222.557 17.1085 221.821 16.1273 221.085C14.6965 219.981 13.2862 218.857 11.8962 217.712C10.5063 216.568 9.25943 215.382 8.15565 214.156C7.05188 212.929 6.15251 211.662 5.45754 210.354C4.76257 209.005 4.41509 207.594 4.41509 206.123C4.41509 203.874 4.8239 201.973 5.6415 200.42C6.49999 198.826 7.58333 197.538 8.8915 196.557C10.2406 195.576 11.7123 194.86 13.3066 194.41C14.9009 193.961 16.4544 193.736 17.967 193.736C19.1116 193.736 20.2972 193.838 21.5236 194.042C22.7909 194.206 23.9355 194.472 24.9575 194.84C26.0204 195.167 26.8789 195.616 27.533 196.189C28.228 196.72 28.5754 197.354 28.5754 198.09C28.5754 198.662 28.371 199.214 27.9622 199.745C27.5943 200.236 27.4104 200.788 27.4104 201.401ZM55.3213 225.316C55.2396 225.888 55.0352 226.563 54.7081 227.34C54.3811 228.116 53.9518 228.873 53.4204 229.608C52.9298 230.303 52.3371 230.896 51.6421 231.387C50.988 231.877 50.2522 232.123 49.4345 232.123C48.2081 232.123 47.1248 231.653 46.1845 230.712C45.2852 229.772 44.7333 228.443 44.5289 226.726C44.2836 227.381 43.9974 228.137 43.6704 228.995C43.3434 229.854 42.9346 230.651 42.444 231.387C41.9534 232.123 41.3811 232.736 40.727 233.226C40.1138 233.758 39.3779 234.024 38.5195 234.024C38.2742 234.024 38.0902 234.003 37.9676 233.962C37.8449 233.921 37.7019 233.86 37.5383 233.778C37.4157 233.737 37.2522 233.697 37.0478 233.656C36.8842 233.615 36.639 233.594 36.3119 233.594C35.3308 233.594 34.4927 233.267 33.7978 232.613C33.1437 232 32.6122 231.203 32.2034 230.222C31.7946 229.241 31.488 228.178 31.2836 227.033C31.1201 225.847 31.0383 224.744 31.0383 223.722C31.0383 221.269 31.161 218.939 31.4063 216.731C31.6924 214.524 32.1421 212.582 32.7553 210.906C33.3685 209.189 34.1657 207.84 35.1468 206.859C36.128 205.837 37.3135 205.325 38.7034 205.325C39.521 205.325 40.1342 205.407 40.543 205.571C40.9927 205.693 41.4015 205.857 41.7695 206.061C42.1374 206.225 42.5257 206.409 42.9346 206.613C43.3842 206.818 43.9974 206.981 44.7742 207.104C45.6327 207.594 46.2254 208.187 46.5525 208.882C46.9204 209.536 47.1452 210.252 47.227 211.028C47.3496 211.805 47.3905 212.623 47.3496 213.481C47.3088 214.299 47.3496 215.116 47.4723 215.934C47.4723 215.975 47.554 216.036 47.7176 216.118C47.922 216.2 48.1468 216.302 48.3921 216.425C48.6374 216.506 48.8418 216.649 49.0053 216.854C49.2097 217.017 49.3119 217.242 49.3119 217.528V217.774C48.9031 218.836 48.6578 219.777 48.5761 220.594C48.4943 221.412 48.4534 222.393 48.4534 223.538C48.4534 224.11 48.4739 224.744 48.5147 225.439C48.5965 226.093 48.6987 226.726 48.8213 227.34C48.9849 227.912 49.2097 228.403 49.4959 228.811C49.782 229.179 50.15 229.363 50.5996 229.363C51.0902 229.363 51.5194 229.118 51.8874 228.627C52.2962 228.137 52.6232 227.585 52.8685 226.972C53.1547 226.318 53.3795 225.664 53.543 225.009C53.7474 224.355 53.8701 223.865 53.911 223.538C53.9927 223.047 54.1971 222.802 54.5242 222.802C54.7286 222.802 54.9125 222.925 55.076 223.17C55.2805 223.374 55.3827 223.763 55.3827 224.335C55.3827 224.498 55.3827 224.662 55.3827 224.825C55.3827 224.948 55.3622 225.112 55.3213 225.316ZM43.977 215.382C43.977 214.932 43.9361 214.401 43.8544 213.788C43.7726 213.175 43.6295 212.602 43.4251 212.071C43.2207 211.539 42.9141 211.09 42.5053 210.722C42.0965 210.354 41.5446 210.17 40.8496 210.17C39.705 210.17 38.7647 210.701 38.0289 211.764C37.3339 212.786 36.782 214.013 36.3732 215.443C35.9644 216.833 35.6987 218.285 35.5761 219.797C35.4534 221.269 35.3921 222.434 35.3921 223.292C35.3921 223.947 35.4125 224.744 35.4534 225.684C35.5352 226.583 35.6578 227.442 35.8213 228.259C35.9849 229.077 36.2097 229.772 36.4959 230.344C36.8229 230.917 37.2317 231.203 37.7223 231.203C38.9078 231.203 39.8072 230.753 40.4204 229.854C41.0745 228.914 41.5651 227.769 41.8921 226.42C42.2191 225.03 42.444 223.558 42.5666 222.005C42.7301 220.41 42.8732 218.959 42.9959 217.651C43.0776 216.956 43.2616 216.527 43.5478 216.363C43.8339 216.159 43.977 216.016 43.977 215.934V215.382ZM62.881 218.632C62.2678 219.491 61.7568 220.451 61.348 221.514C60.9801 222.536 60.653 223.62 60.3669 224.764C60.0807 225.868 59.8354 226.992 59.631 228.137C59.4675 229.241 59.2835 230.303 59.0791 231.325C58.9974 231.571 58.6703 231.734 58.098 231.816C57.5666 231.898 57.1782 231.939 56.9329 231.939C56.1971 231.939 55.5839 231.898 55.0933 231.816C54.6436 231.734 54.2961 231.55 54.0508 231.264C53.8056 230.937 53.6216 230.467 53.499 229.854C53.3763 229.2 53.2741 228.341 53.1923 227.278L53.9895 209.066C53.9895 208.535 54.2757 208.269 54.848 208.269C55.0524 208.269 55.3386 208.31 55.7065 208.392C56.0744 208.432 56.4628 208.514 56.8716 208.637C57.2804 208.759 57.6279 208.923 57.914 209.127C58.2002 209.291 58.3433 209.495 58.3433 209.741V222.189C58.3842 222.148 58.4455 221.984 58.5273 221.698C58.8134 220.962 59.1609 220.063 59.5697 219C59.9785 217.896 60.4282 216.854 60.9188 215.873C61.4093 214.892 61.9203 214.053 62.4518 213.359C63.0241 212.664 63.5964 212.316 64.1688 212.316C64.9046 212.316 65.4565 212.5 65.8244 212.868C66.2332 213.195 66.5398 213.624 66.7442 214.156C66.9486 214.687 67.0713 215.259 67.1121 215.873C67.153 216.486 67.1735 217.079 67.1735 217.651C67.1735 218.06 67.1326 218.734 67.0508 219.675C66.9691 220.615 66.9282 222.025 66.9282 223.906C66.9282 224.969 67.0304 225.929 67.2348 226.788C67.4392 227.646 67.848 228.075 68.4612 228.075C68.9109 228.075 69.3197 227.871 69.6876 227.462C70.0555 227.053 70.3826 226.542 70.6687 225.929C70.9958 225.316 71.2615 224.662 71.4659 223.967C71.6703 223.272 71.793 222.618 71.8338 222.005C71.8747 221.228 72.1813 220.84 72.7537 220.84C73.1216 220.84 73.3669 220.962 73.4895 221.208C73.6121 221.453 73.6735 221.739 73.6735 222.066V222.189C73.6326 223.006 73.4691 223.926 73.1829 224.948C72.9376 225.97 72.5493 226.931 72.0178 227.83C71.5272 228.73 70.8732 229.486 70.0555 230.099C69.2379 230.712 68.2364 231.019 67.0508 231.019C65.2112 231.019 64.0257 230.365 63.4942 229.057C63.0037 227.708 62.7584 225.725 62.7584 223.108L62.881 218.632ZM97.2015 221.514C97.1197 222.414 96.9357 223.436 96.6496 224.58C96.4043 225.725 96.0159 226.808 95.4845 227.83C94.9939 228.852 94.3194 229.711 93.4609 230.406C92.6433 231.101 91.6417 231.448 90.4562 231.448C88.6983 231.448 87.4106 231.039 86.593 230.222C85.8162 229.404 85.1622 228.137 84.6307 226.42L84.5694 226.726C84.4059 227.381 84.2015 228.096 83.9562 228.873C83.7518 229.649 83.4452 230.365 83.0364 231.019C82.6684 231.632 82.1983 232.143 81.626 232.552C81.0537 233.002 80.3178 233.226 79.4185 233.226C78.8052 233.226 78.192 233.104 77.5788 232.858C77.0065 232.654 76.3933 232.388 75.7392 232.061C74.799 231.571 74.0631 230.917 73.5317 230.099C73.0002 229.281 72.6119 228.443 72.3666 227.585C72.1213 226.726 71.9782 225.909 71.9373 225.132C71.8964 224.314 71.876 223.681 71.876 223.231V222.189C71.876 221.943 71.9373 221.412 72.06 220.594C72.1826 219.777 72.3666 218.836 72.6119 217.774C72.898 216.67 73.2251 215.525 73.593 214.34C74.0018 213.154 74.4719 212.071 75.0034 211.09C75.5757 210.109 76.2093 209.291 76.9043 208.637C77.6402 207.983 78.4578 207.656 79.3571 207.656C80.3383 207.656 81.2785 207.819 82.1779 208.146C83.1181 208.473 83.7927 208.719 84.2015 208.882C84.2423 208.146 84.2628 207.247 84.2628 206.184C84.3037 205.121 84.3241 204.079 84.3241 203.057C84.365 201.994 84.3854 201.013 84.3854 200.113C84.3854 199.214 84.3854 198.539 84.3854 198.09C84.3854 197.027 84.365 196.127 84.3241 195.392C84.2832 194.615 84.2015 193.961 84.0788 193.429C83.9971 192.898 83.8949 192.469 83.7722 192.142C83.6496 191.814 83.5065 191.528 83.343 191.283C84.0379 191.079 84.7125 190.936 85.3666 190.854C86.0615 190.772 86.6952 190.731 87.2675 190.731C88.2078 190.731 88.9232 190.813 89.4137 190.976C89.9452 191.099 90.2109 191.447 90.2109 192.019C90.2109 192.264 90.1496 192.98 90.0269 194.165C89.9043 195.351 89.7816 196.904 89.659 198.826C89.5364 200.706 89.4137 202.893 89.2911 205.387C89.1684 207.881 89.1071 210.538 89.1071 213.359V219.552C89.1071 220.697 89.1276 221.8 89.1684 222.863C89.2093 223.885 89.2911 224.805 89.4137 225.623C89.5772 226.399 89.8021 227.033 90.0883 227.524C90.3744 227.973 90.7832 228.198 91.3147 228.198C92.5002 228.198 93.3791 227.524 93.9515 226.175C94.5647 224.785 95.0552 222.618 95.4232 219.675C95.464 219.347 95.5458 219.061 95.6684 218.816C95.7911 218.571 96.0568 218.448 96.4656 218.448C96.8335 218.448 97.0584 218.693 97.1401 219.184C97.2628 219.634 97.3037 220.083 97.2628 220.533L97.2015 221.514ZM84.2628 212.623C84.2628 212.5 84.1606 212.357 83.9562 212.193C83.7927 212.03 83.5678 211.866 83.2817 211.703C83.0364 211.539 82.7706 211.396 82.4845 211.274C82.1983 211.151 81.953 211.09 81.7486 211.09C80.931 211.09 80.1952 211.601 79.5411 212.623C78.9279 213.604 78.3964 214.83 77.9468 216.302C77.5379 217.774 77.2313 219.347 77.0269 221.024C76.8225 222.7 76.7203 224.192 76.7203 225.5C76.7203 225.991 76.7408 226.563 76.7817 227.217C76.8225 227.871 76.9247 228.484 77.0883 229.057C77.2518 229.629 77.4766 230.119 77.7628 230.528C78.049 230.937 78.4373 231.142 78.9279 231.142C79.4593 231.142 79.9499 230.835 80.3996 230.222C80.8493 229.608 81.2581 228.811 81.626 227.83C81.9939 226.849 82.321 225.745 82.6071 224.519C82.9342 223.292 83.1999 222.086 83.4043 220.901C83.6496 219.675 83.8335 218.53 83.9562 217.467C84.0788 216.363 84.1606 215.484 84.2015 214.83L84.2628 212.623ZM126.942 211.519C127.065 211.805 127.126 212.153 127.126 212.561C127.126 213.093 126.942 213.624 126.574 214.156C126.206 214.687 125.716 215.178 125.102 215.627C124.53 216.036 123.876 216.384 123.14 216.67C122.404 216.956 121.648 217.14 120.871 217.222C120.83 217.671 120.749 218.346 120.626 219.245C120.544 220.104 120.381 221.085 120.135 222.189C119.931 223.252 119.645 224.355 119.277 225.5C118.95 226.604 118.521 227.626 117.989 228.566C117.499 229.506 116.906 230.283 116.211 230.896C115.557 231.469 114.78 231.755 113.881 231.755C113.186 231.755 112.491 231.571 111.796 231.203C111.142 230.794 110.508 230.283 109.895 229.67C109.323 229.057 108.812 228.382 108.362 227.646C107.912 226.87 107.565 226.093 107.319 225.316C107.156 225.847 106.931 226.604 106.645 227.585C106.359 228.525 105.97 229.465 105.48 230.406C105.03 231.346 104.458 232.164 103.763 232.858C103.109 233.553 102.312 233.901 101.371 233.901C100.635 233.901 99.7565 233.758 98.7345 233.472C97.7533 233.226 97.0175 232.818 96.5269 232.245C96.2408 231.877 95.9955 231.264 95.7911 230.406C95.5867 229.547 95.4232 228.648 95.3005 227.708C95.1779 226.726 95.0757 225.807 94.9939 224.948C94.953 224.09 94.9326 223.497 94.9326 223.17V220.165C94.9326 219.675 94.9735 218.816 95.0552 217.59C95.137 216.363 95.2188 215.096 95.3005 213.788C95.4232 212.439 95.5254 211.212 95.6071 210.109C95.7298 209.005 95.8115 208.31 95.8524 208.024C95.9342 207.819 96.1181 207.697 96.4043 207.656C96.7313 207.574 96.9766 207.533 97.1401 207.533C97.3445 207.533 97.692 207.574 98.1826 207.656C98.6732 207.697 99.1637 207.778 99.6543 207.901C100.145 207.983 100.574 208.105 100.942 208.269C101.351 208.432 101.555 208.616 101.555 208.821C101.596 208.903 101.514 209.025 101.31 209.189C101.146 209.352 101.024 209.638 100.942 210.047C100.86 210.538 100.758 211.294 100.635 212.316C100.513 213.338 100.39 214.503 100.267 215.811C100.145 217.079 100.043 218.428 99.9609 219.859C99.8791 221.289 99.8382 222.659 99.8382 223.967C99.8382 225.807 99.9404 227.36 100.145 228.627C100.39 229.854 100.84 230.467 101.494 230.467C101.821 230.467 102.148 230.119 102.475 229.425C102.843 228.689 103.19 227.851 103.517 226.91C103.845 225.929 104.11 224.969 104.315 224.028C104.56 223.088 104.723 222.414 104.805 222.005C104.887 221.473 105.03 220.594 105.234 219.368C105.439 218.101 105.541 216.69 105.541 215.137C105.541 214.564 105.541 214.135 105.541 213.849C105.541 213.563 105.521 213.338 105.48 213.175C105.48 213.011 105.48 212.888 105.48 212.807C105.48 212.725 105.48 212.602 105.48 212.439C105.48 211.989 105.602 211.723 105.848 211.642C106.093 211.56 106.4 211.519 106.767 211.519C107.176 211.519 107.626 211.56 108.117 211.642C108.648 211.723 109.139 211.825 109.588 211.948C110.038 212.071 110.426 212.193 110.753 212.316C111.121 212.439 111.326 212.541 111.367 212.623V217.528C111.367 218.06 111.387 218.959 111.428 220.226C111.469 221.453 111.571 222.7 111.734 223.967C111.898 225.234 112.143 226.358 112.47 227.34C112.797 228.28 113.227 228.75 113.758 228.75C114.126 228.75 114.453 228.484 114.739 227.953C115.066 227.381 115.352 226.686 115.598 225.868C115.884 225.009 116.109 224.09 116.272 223.108C116.477 222.086 116.64 221.146 116.763 220.288C116.926 219.429 117.028 218.714 117.069 218.142C117.151 217.528 117.192 217.201 117.192 217.16C117.192 216.956 117.069 216.772 116.824 216.609C116.579 216.445 116.293 216.22 115.966 215.934C115.679 215.648 115.414 215.259 115.168 214.769C114.923 214.278 114.8 213.604 114.8 212.745C114.8 212.173 114.862 211.539 114.984 210.844C115.148 210.109 115.332 209.434 115.536 208.821C115.782 208.208 116.047 207.697 116.334 207.288C116.661 206.838 117.008 206.613 117.376 206.613C117.867 206.613 118.337 206.675 118.786 206.797C119.236 206.92 119.624 207.165 119.951 207.533C120.319 207.901 120.585 208.412 120.749 209.066C120.953 209.679 121.055 210.476 121.055 211.458V213.972C121.995 213.972 122.936 213.767 123.876 213.359C124.816 212.909 125.716 212.193 126.574 211.212C126.738 211.212 126.86 211.314 126.942 211.519ZM133.931 203.609C133.931 203.895 133.788 204.14 133.502 204.344C133.216 204.508 132.889 204.631 132.521 204.712C132.194 204.794 131.867 204.855 131.54 204.896C131.213 204.937 131.008 204.958 130.926 204.958C130.068 204.958 129.209 204.712 128.351 204.222C127.533 203.731 126.777 202.954 126.082 201.892C126 201.769 125.878 201.605 125.714 201.401C125.551 201.197 125.469 201.053 125.469 200.972C125.469 200.767 125.612 200.583 125.898 200.42C126.225 200.256 126.573 200.093 126.941 199.929C127.349 199.766 127.717 199.643 128.044 199.561C128.412 199.48 128.658 199.439 128.78 199.439C129.598 199.439 130.395 199.643 131.172 200.052C131.989 200.461 132.643 201.217 133.134 202.321C133.216 202.443 133.359 202.668 133.563 202.995C133.808 203.281 133.931 203.486 133.931 203.609ZM140.186 222.189C140.063 223.17 139.838 224.192 139.511 225.255C139.184 226.318 138.714 227.319 138.101 228.259C137.529 229.159 136.793 229.915 135.893 230.528C134.994 231.101 133.89 231.387 132.582 231.387C131.56 231.387 130.518 231.039 129.455 230.344C128.392 229.608 127.656 228.648 127.247 227.462C126.879 226.277 126.695 225.132 126.695 224.028C126.695 223.701 126.716 223.211 126.757 222.557C126.797 221.903 126.818 221.105 126.818 220.165V213.42C126.818 213.093 126.797 212.745 126.757 212.377C126.757 212.009 126.716 211.662 126.634 211.335C126.593 211.171 126.511 210.987 126.389 210.783C126.307 210.579 126.266 210.436 126.266 210.354C126.266 210.19 126.368 210.068 126.573 209.986C126.777 209.863 127.002 209.781 127.247 209.741C127.492 209.7 127.717 209.679 127.922 209.679C128.167 209.679 128.29 209.679 128.29 209.679C128.412 209.679 128.698 209.7 129.148 209.741C129.598 209.741 130.068 209.802 130.558 209.925C131.049 210.047 131.478 210.252 131.846 210.538C132.255 210.783 132.459 211.151 132.459 211.642C132.5 211.764 132.419 211.989 132.214 212.316C132.051 212.643 131.887 213.215 131.724 214.033C131.683 214.36 131.642 214.667 131.601 214.953C131.56 215.198 131.519 215.484 131.478 215.811C131.437 216.138 131.397 216.547 131.356 217.038C131.315 217.487 131.274 218.08 131.233 218.816V222.495C131.233 223.149 131.253 223.824 131.294 224.519C131.335 225.173 131.417 225.786 131.54 226.358C131.703 226.89 131.948 227.34 132.275 227.708C132.602 228.035 133.032 228.198 133.563 228.198C134.34 228.198 134.953 227.973 135.403 227.524C135.852 227.074 136.2 226.686 136.445 226.358C136.895 225.745 137.242 224.989 137.488 224.09C137.733 223.149 137.958 222.189 138.162 221.208L138.285 220.594C138.408 219.981 138.775 219.675 139.389 219.675C140.002 219.675 140.308 220.104 140.308 220.962V221.269L140.186 222.189ZM156.626 226.481C155.645 228.811 154.378 230.508 152.824 231.571C151.312 232.593 149.513 233.104 147.428 233.104C147.223 233.104 147.019 233.104 146.815 233.104C146.651 233.104 146.467 233.083 146.263 233.042C145.241 232.92 144.26 232.593 143.319 232.061C142.379 231.571 141.562 230.876 140.867 229.976C140.172 229.036 139.62 227.912 139.211 226.604C138.802 225.255 138.598 223.722 138.598 222.005C138.598 220.37 138.802 218.653 139.211 216.854C139.661 215.055 140.54 213.42 141.848 211.948C142.992 210.64 144.321 209.598 145.834 208.821C147.387 208.044 148.961 207.656 150.555 207.656C151.332 207.656 152.027 207.778 152.64 208.024C153.294 208.228 153.662 208.494 153.744 208.821C153.826 209.27 153.867 209.843 153.867 210.538C153.907 211.192 153.928 212.071 153.928 213.175C153.928 214.115 153.846 214.81 153.683 215.259C153.56 215.709 153.274 215.934 152.824 215.934C152.334 215.893 151.986 215.648 151.782 215.198C151.577 214.708 151.373 214.197 151.168 213.665C150.964 213.093 150.698 212.582 150.371 212.132C150.044 211.642 149.513 211.376 148.777 211.335C147.714 211.335 146.835 211.744 146.14 212.561C145.445 213.379 144.893 214.34 144.484 215.443C144.117 216.547 143.851 217.651 143.687 218.755C143.565 219.859 143.503 220.717 143.503 221.33C143.503 223.701 143.851 225.745 144.546 227.462C145.282 229.138 146.569 230.058 148.409 230.222L149.084 230.283C150.351 230.283 151.373 229.976 152.15 229.363C152.926 228.709 153.54 228.014 153.989 227.278C154.48 226.502 154.848 225.807 155.093 225.193C155.379 224.539 155.665 224.212 155.951 224.212H156.135C156.667 224.253 156.933 224.601 156.933 225.255C156.933 225.541 156.83 225.95 156.626 226.481ZM180.894 223.292C180.853 223.865 180.669 224.682 180.342 225.745C180.056 226.767 179.606 227.789 178.993 228.811C178.421 229.792 177.665 230.671 176.724 231.448C175.825 232.184 174.721 232.552 173.413 232.552C172.146 232.552 171.124 232.184 170.347 231.448C169.611 230.712 169.039 229.711 168.63 228.443C168.262 227.135 168.017 225.582 167.894 223.783C167.812 221.984 167.772 220.022 167.772 217.896C167.772 217.528 167.772 217.079 167.772 216.547C167.772 215.975 167.792 215.484 167.833 215.075C167.342 215.975 166.852 217.12 166.361 218.509C165.871 219.859 165.421 221.31 165.012 222.863C164.644 224.417 164.338 226.011 164.092 227.646C163.847 229.241 163.704 230.753 163.663 232.184C163.254 232.266 162.805 232.368 162.314 232.491C161.864 232.613 161.333 232.675 160.72 232.675C160.474 232.675 160.188 232.654 159.861 232.613C159.534 232.572 159.207 232.491 158.88 232.368C158.553 232.245 158.267 232.082 158.022 231.877C157.817 231.632 157.715 231.325 157.715 230.958C157.715 230.876 157.776 230.692 157.899 230.406C158.062 230.119 158.144 229.547 158.144 228.689V193.429C158.144 192.857 158.062 192.469 157.899 192.264C157.776 192.06 157.715 191.814 157.715 191.528C157.715 191.365 157.858 191.242 158.144 191.16C158.43 191.038 158.757 190.956 159.125 190.915C159.493 190.833 159.861 190.792 160.229 190.792C160.638 190.752 160.965 190.731 161.21 190.731C162.273 190.731 163.356 190.956 164.46 191.406C164.256 192.509 164.051 193.981 163.847 195.821C163.683 197.62 163.52 199.5 163.356 201.462C163.193 203.384 163.07 205.244 162.988 207.042C162.907 208.8 162.866 210.17 162.866 211.151C162.866 211.274 162.866 211.437 162.866 211.642C162.866 211.805 162.845 212.275 162.805 213.052C162.805 213.788 162.784 214.953 162.743 216.547C162.743 218.142 162.723 220.39 162.682 223.292C162.682 223.252 162.764 222.863 162.927 222.127C163.132 221.392 163.377 220.472 163.663 219.368C163.949 218.264 164.276 217.079 164.644 215.811C165.053 214.544 165.462 213.379 165.871 212.316C166.32 211.212 166.77 210.313 167.22 209.618C167.669 208.882 168.099 208.514 168.507 208.514C168.957 208.514 169.57 208.616 170.347 208.821C171.165 208.984 171.676 209.291 171.88 209.741C172.044 210.231 172.207 210.579 172.371 210.783C172.575 210.987 172.738 211.151 172.861 211.274C173.025 211.396 173.147 211.519 173.229 211.642C173.352 211.764 173.413 211.948 173.413 212.193C173.372 212.316 173.27 212.725 173.106 213.42C172.984 214.115 172.841 214.994 172.677 216.057C172.555 217.079 172.432 218.223 172.309 219.491C172.187 220.717 172.125 221.943 172.125 223.17C172.125 224.805 172.268 226.215 172.555 227.401C172.841 228.586 173.393 229.179 174.21 229.179C175.028 229.179 175.702 228.934 176.234 228.443C176.765 227.953 177.194 227.34 177.522 226.604C177.889 225.868 178.155 225.091 178.319 224.274C178.523 223.415 178.687 222.659 178.809 222.005C179.014 221.146 179.32 220.717 179.729 220.717C180.179 220.717 180.485 220.881 180.649 221.208C180.853 221.535 180.955 221.964 180.955 222.495L180.894 223.292ZM196.205 222.557C196.205 223.579 196.021 224.723 195.653 225.991C195.285 227.258 194.713 228.443 193.936 229.547C193.159 230.61 192.158 231.509 190.931 232.245C189.746 232.981 188.315 233.349 186.639 233.349C185.044 233.349 183.695 233.063 182.591 232.491C181.488 231.918 180.568 231.142 179.832 230.16C179.137 229.179 178.626 228.035 178.299 226.726C178.013 225.377 177.87 223.967 177.87 222.495C177.87 221.064 178.033 219.491 178.36 217.774C178.687 216.057 179.198 214.462 179.893 212.991C180.588 211.478 181.467 210.231 182.53 209.25C183.593 208.228 184.881 207.717 186.393 207.717C187.129 207.717 187.824 207.881 188.478 208.208C189.132 208.494 189.705 208.882 190.195 209.373C190.686 209.863 191.074 210.436 191.36 211.09C191.646 211.744 191.81 212.418 191.851 213.113L191.912 213.972C191.912 214.953 191.749 216.036 191.422 217.222C191.095 218.366 190.624 219.45 190.011 220.472C189.398 221.453 188.642 222.291 187.742 222.986C186.843 223.64 185.821 223.967 184.676 223.967C184.472 223.967 184.206 223.947 183.879 223.906C183.593 223.865 183.307 223.803 183.021 223.722V225.5C183.021 225.786 183.102 226.195 183.266 226.726C183.47 227.258 183.757 227.789 184.124 228.321C184.492 228.811 184.963 229.261 185.535 229.67C186.148 230.038 186.884 230.222 187.742 230.222C188.928 230.222 189.889 229.997 190.624 229.547C191.401 229.057 192.035 228.443 192.525 227.708C193.016 226.972 193.384 226.154 193.629 225.255C193.915 224.314 194.14 223.415 194.304 222.557C194.426 221.984 194.549 221.596 194.672 221.392C194.794 221.187 194.999 221.085 195.285 221.085C195.898 221.085 196.205 221.432 196.205 222.127V222.557ZM188.969 213.052C188.969 212.725 188.867 212.377 188.662 212.009C188.499 211.642 188.172 211.458 187.681 211.458C186.945 211.458 186.312 211.846 185.78 212.623C185.249 213.399 184.799 214.299 184.431 215.321C184.104 216.302 183.859 217.263 183.695 218.203C183.532 219.102 183.45 219.695 183.45 219.981V220.165C183.45 220.533 183.47 220.84 183.511 221.085C183.593 221.289 183.818 221.392 184.186 221.392H184.492C185.31 221.392 186.005 221.085 186.577 220.472C187.15 219.859 187.599 219.123 187.926 218.264C188.294 217.406 188.56 216.527 188.724 215.627C188.887 214.728 188.969 213.992 188.969 213.42V213.052ZM219.723 221.514C219.641 222.414 219.457 223.436 219.171 224.58C218.926 225.725 218.538 226.808 218.006 227.83C217.516 228.852 216.841 229.711 215.983 230.406C215.165 231.101 214.163 231.448 212.978 231.448C211.22 231.448 209.932 231.039 209.115 230.222C208.338 229.404 207.684 228.137 207.152 226.42L207.091 226.726C206.927 227.381 206.723 228.096 206.478 228.873C206.273 229.649 205.967 230.365 205.558 231.019C205.19 231.632 204.72 232.143 204.148 232.552C203.575 233.002 202.839 233.226 201.94 233.226C201.327 233.226 200.714 233.104 200.1 232.858C199.528 232.654 198.915 232.388 198.261 232.061C197.321 231.571 196.585 230.917 196.053 230.099C195.522 229.281 195.133 228.443 194.888 227.585C194.643 226.726 194.5 225.909 194.459 225.132C194.418 224.314 194.398 223.681 194.398 223.231V222.189C194.398 221.943 194.459 221.412 194.582 220.594C194.704 219.777 194.888 218.836 195.133 217.774C195.42 216.67 195.747 215.525 196.115 214.34C196.523 213.154 196.994 212.071 197.525 211.09C198.097 210.109 198.731 209.291 199.426 208.637C200.162 207.983 200.979 207.656 201.879 207.656C202.86 207.656 203.8 207.819 204.7 208.146C205.64 208.473 206.314 208.719 206.723 208.882C206.764 208.146 206.784 207.247 206.784 206.184C206.825 205.121 206.846 204.079 206.846 203.057C206.887 201.994 206.907 201.013 206.907 200.113C206.907 199.214 206.907 198.539 206.907 198.09C206.907 197.027 206.887 196.127 206.846 195.392C206.805 194.615 206.723 193.961 206.6 193.429C206.519 192.898 206.416 192.469 206.294 192.142C206.171 191.814 206.028 191.528 205.865 191.283C206.56 191.079 207.234 190.936 207.888 190.854C208.583 190.772 209.217 190.731 209.789 190.731C210.729 190.731 211.445 190.813 211.935 190.976C212.467 191.099 212.733 191.447 212.733 192.019C212.733 192.264 212.671 192.98 212.549 194.165C212.426 195.351 212.303 196.904 212.181 198.826C212.058 200.706 211.935 202.893 211.813 205.387C211.69 207.881 211.629 210.538 211.629 213.359V219.552C211.629 220.697 211.649 221.8 211.69 222.863C211.731 223.885 211.813 224.805 211.935 225.623C212.099 226.399 212.324 227.033 212.61 227.524C212.896 227.973 213.305 228.198 213.836 228.198C215.022 228.198 215.901 227.524 216.473 226.175C217.086 224.785 217.577 222.618 217.945 219.675C217.986 219.347 218.067 219.061 218.19 218.816C218.313 218.571 218.578 218.448 218.987 218.448C219.355 218.448 219.58 218.693 219.662 219.184C219.784 219.634 219.825 220.083 219.784 220.533L219.723 221.514ZM206.784 212.623C206.784 212.5 206.682 212.357 206.478 212.193C206.314 212.03 206.089 211.866 205.803 211.703C205.558 211.539 205.292 211.396 205.006 211.274C204.72 211.151 204.475 211.09 204.27 211.09C203.453 211.09 202.717 211.601 202.063 212.623C201.45 213.604 200.918 214.83 200.468 216.302C200.06 217.774 199.753 219.347 199.549 221.024C199.344 222.7 199.242 224.192 199.242 225.5C199.242 225.991 199.262 226.563 199.303 227.217C199.344 227.871 199.446 228.484 199.61 229.057C199.773 229.629 199.998 230.119 200.284 230.528C200.571 230.937 200.959 231.142 201.45 231.142C201.981 231.142 202.472 230.835 202.921 230.222C203.371 229.608 203.78 228.811 204.148 227.83C204.516 226.849 204.843 225.745 205.129 224.519C205.456 223.292 205.722 222.086 205.926 220.901C206.171 219.675 206.355 218.53 206.478 217.467C206.6 216.363 206.682 215.484 206.723 214.83L206.784 212.623Z" fill="black"/>
    <path d="M229.494 227.626V232H224.997V227.626H229.494ZM264.565 209.557L258.106 232H254.099L247.926 213.726L241.713 232H237.665L231.288 209.557H235.049L239.832 228.443L246.046 209.557H249.93L256.184 228.403L261.008 209.557H264.565ZM278.745 228.73V232H275.965C273.676 232 271.959 231.455 270.814 230.365C269.697 229.275 269.138 227.449 269.138 224.887V212.786H265.786V209.557H269.138V203.956H272.899V209.557H278.704V212.786H272.899V224.969C272.899 226.413 273.158 227.408 273.676 227.953C274.221 228.471 275.147 228.73 276.456 228.73H278.745ZM293.218 204.242C291.229 204.215 289.839 204.556 289.049 205.264C288.286 205.973 287.904 207.199 287.904 208.943V209.557H293.218V212.827H287.904V232H284.184V212.827H280.954V209.557H284.184V208.657C284.184 203.288 287.195 200.726 293.218 200.972V204.242Z" fill="#FFBF00"/>
</svg>
