<svg width="262" height="258" viewBox="0 0 262 258" fill="none" xmlns="http://www.w3.org/2000/svg">
    <circle opacity="0.23" cx="129" cy="87" r="68" fill="#FFBF00"/>
    <circle cx="129" cy="87" r="53" fill="#FFBF00"/>
    <circle opacity="0.1" cx="129" cy="87" r="85.5" stroke="#FFBF00" stroke-width="3"/>
    <path d="M84.05 108.29L65.33 41.25C64.18 37.14 66.12 33.06 70.04 31.34C73.93 29.63 78.21 30.96 80.44 34.56L80.62 34.85C85.86 43.7 89.42 66.36 89.57 67.32L89.62 67.63L89.58 67.94L84.05 108.29ZM73.51 34.89C72.88 34.89 72.28 35.04 71.76 35.26C70.25 35.92 68.74 37.58 69.45 40.1L82.62 87.25L85.3 67.68C84.86 64.95 81.46 44.66 76.95 37.03L76.82 36.82C75.92 35.39 74.68 34.89 73.51 34.89Z" fill="#232323"/>
    <path d="M89.07 64.18C89.07 64.18 89.27 40.8 85.64 31.48C85.6 31.39 85.57 31.3 85.53 31.2C82.79 24.6 72.85 27.2 73.63 34.31L80.13 93.24L89.07 64.18Z" fill="white"/>
    <path d="M79.14 103.74L71.51 34.55C71.04 30.31 73.61 26.6 77.76 25.54C81.88 24.48 85.88 26.48 87.5 30.4L87.63 30.73C91.36 40.3 91.21 63.24 91.2 64.21V64.52L91.11 64.82L79.14 103.74ZM79.92 29.54C79.53 29.54 79.16 29.59 78.81 29.68C77.22 30.09 75.46 31.49 75.75 34.08L81.12 82.74L86.93 63.86C86.94 61.1 86.87 40.53 83.64 32.27L83.55 32.04C82.78 30.17 81.29 29.54 79.92 29.54ZM89.06 64.18H89.07H89.06Z" fill="#232323"/>
    <path d="M93.22 60.19C93.22 60.19 98.58 37.43 97.09 27.54C97.08 27.44 97.06 27.34 97.04 27.25C95.83 20.19 85.56 20.54 84.75 27.65L78.08 86.56L93.22 60.19Z" fill="white"/>
    <path d="M78.0999 88.7C78.0199 88.7 77.9399 88.7 77.8599 88.69C76.6899 88.56 75.8399 87.5 75.9799 86.33L82.6499 27.42C83.1299 23.18 86.4599 20.13 90.7399 20.01C90.8299 20.01 90.9099 20.01 90.9999 20.01C95.1299 20.01 98.4699 22.81 99.1699 26.9L99.2199 27.22C100.75 37.41 95.5399 59.74 95.3199 60.69C95.0499 61.84 93.8899 62.55 92.7499 62.28C91.5999 62.01 90.8899 60.86 91.1599 59.71C91.2099 59.49 96.4099 37.23 94.9999 27.87L94.9599 27.62C94.5299 25.08 92.4499 24.24 90.8699 24.28C89.2299 24.33 87.1999 25.3 86.9099 27.9L80.2199 86.8C80.0899 87.89 79.1699 88.7 78.0999 88.7Z" fill="#232323"/>
    <path d="M90.25 62.53C95.04 58.34 100.97 55.38 107.61 54.22C109.65 53.86 112 53.62 112 53.62C120.92 52.64 124.21 57.07 124.21 57.07C124.55 57.53 125.82 59.3 125.57 61.63C125.52 62.14 125.25 63.99 123.79 65.22C122.32 66.47 120.42 66.42 119.43 66.41C113.57 66.34 108.33 67.02 106.74 67.3C101.73 68.18 98.34 71.15 97.2 72.15C91.97 76.73 89.56 84.07 89.88 90.67C90.56 104.62 102.82 114.91 116.49 113.41C119.36 113.09 122.06 112.28 124.51 111.07C127.54 109.57 131.21 110.98 132.53 114.1C133.75 116.98 132.53 120.32 129.74 121.71C126.76 123.19 123.53 124.27 120.12 124.87C98.73 128.61 74.83 117.32 73.83 95.63C73.59 90.42 75.51 79.82 80.52 76.28L90.25 62.53Z" fill="white"/>
    <path d="M111.94 127.73C101.35 127.73 90.95 124.41 83.45 118.39C76.16 112.55 72.09 104.72 71.68 95.75C71.46 90.95 73.07 78.94 79.27 74.55C80.23 73.87 81.57 74.1 82.25 75.06C82.93 76.02 82.7 77.36 81.74 78.04C77.78 80.84 75.7 90.12 75.95 95.55C76.31 103.25 79.82 109.99 86.12 115.05C94.71 121.94 107.59 124.9 119.73 122.78C122.87 122.23 125.91 121.23 128.77 119.81C130.55 118.93 131.33 116.79 130.54 114.95C130.13 113.97 129.35 113.23 128.36 112.86C127.39 112.5 126.36 112.55 125.44 113C122.71 114.35 119.77 115.21 116.71 115.54C109.58 116.32 102.34 114.1 96.88 109.44C91.34 104.71 88.09 98.09 87.73 90.78C87.35 82.98 90.43 75.23 95.78 70.55C97.01 69.47 100.76 66.19 106.35 65.2C108.34 64.85 113.64 64.2 119.44 64.27C120.31 64.29 121.55 64.3 122.39 63.59C123.21 62.9 123.39 61.74 123.43 61.4C123.57 60.12 122.99 59.02 122.48 58.33C122.39 58.22 119.65 54.91 112.22 55.73C112.18 55.73 109.9 55.97 107.97 56.31C101.93 57.37 96.29 60.07 91.65 64.13C90.76 64.91 89.41 64.82 88.63 63.93C87.85 63.04 87.94 61.69 88.83 60.91C94.05 56.34 100.41 53.29 107.22 52.1C109.31 51.73 111.66 51.49 111.76 51.48C121.77 50.37 125.74 55.56 125.9 55.79C127.26 57.63 127.89 59.78 127.67 61.85C127.57 62.79 127.12 65.17 125.15 66.85C123.09 68.6 120.61 68.56 119.42 68.55C113.69 68.49 108.58 69.15 107.09 69.41C102.67 70.19 99.6 72.88 98.59 73.76C94.2 77.6 91.68 84.04 92 90.57C92.3 96.68 95.02 102.23 99.65 106.18C104.29 110.14 110.18 111.95 116.24 111.29C118.8 111.01 121.26 110.29 123.54 109.16C125.52 108.18 127.76 108.07 129.84 108.84C131.92 109.61 133.61 111.23 134.47 113.27C136.13 117.19 134.46 121.74 130.66 123.63C127.43 125.23 124 126.36 120.46 126.98C117.65 127.49 114.78 127.73 111.94 127.73Z" fill="#232323"/>
    <path d="M104.46 123.55C104.57 126.05 105.88 136.47 105.88 136.47L85.14 139.07L74.02 98.04C74.02 98.04 83.09 100.86 85.98 104.05C88.87 107.24 104.46 123.55 104.46 123.55Z" fill="white"/>
    <path d="M83.56 141.42L71.96 98.6C71.65 97.46 72.33 96.29 73.46 95.98C74.61 95.67 75.77 96.35 76.08 97.48L86.71 136.72L103.49 134.62C103.1 131.41 102.4 125.51 102.32 123.64C102.27 122.46 103.19 121.46 104.37 121.42C105.58 121.39 106.55 122.29 106.59 123.47C106.67 125.38 107.54 132.64 107.99 136.21L108.26 138.33L83.56 141.42Z" fill="#232323"/>
    <path d="M80.0395 154.617L116.102 150.656L114.475 135.845L78.4124 139.807L80.0395 154.617Z" fill="#232323"/>
    <path d="M78.1501 156.98L76.0601 137.92L116.37 133.49L118.46 152.55L78.1501 156.98ZM80.7701 141.7L81.9301 152.26L113.74 148.76L112.58 138.2L80.7701 141.7Z" fill="#232323"/>
    <path d="M85.56 146.51C85.69 147.66 86.72 148.48 87.86 148.36C89.01 148.23 89.83 147.2 89.71 146.06C89.58 144.91 88.55 144.09 87.41 144.21C86.27 144.34 85.44 145.37 85.56 146.51Z" fill="white"/>
    <path d="M87.63 150.51C85.51 150.51 83.67 148.91 83.43 146.75C83.18 144.43 84.85 142.34 87.17 142.09C88.3 141.97 89.39 142.29 90.2701 142.99C91.1501 143.7 91.7 144.7 91.83 145.82C91.95 146.94 91.63 148.04 90.93 148.92C90.22 149.8 89.22 150.35 88.1 150.48C87.9401 150.5 87.79 150.51 87.63 150.51ZM87.64 146.24C87.64 146.24 87.63 146.24 87.64 146.24L85.57 146.52L87.7001 146.28C87.6901 146.25 87.66 146.24 87.64 146.24Z" fill="white"/>
    <path d="M144.31 60.44C143.47 60.44 142.77 59.75 142.77 58.9V47.72C142.77 46.87 143.46 46.18 144.31 46.18C145.16 46.18 145.85 46.87 145.85 47.72V58.9C145.84 59.74 145.15 60.44 144.31 60.44Z" fill="#232323"/>
    <path d="M153.49 64.44C152.85 63.88 152.79 62.91 153.35 62.27L160.72 53.86C161.28 53.22 162.25 53.16 162.89 53.72C163.53 54.28 163.59 55.25 163.03 55.89L155.66 64.3C155.1 64.93 154.12 64.99 153.49 64.44Z" fill="#232323"/>
    <path d="M160.28 73.05C160.21 72.21 160.83 71.46 161.68 71.38L172.81 70.4C173.65 70.33 174.4 70.95 174.48 71.8C174.55 72.64 173.93 73.39 173.08 73.47L161.95 74.45C161.11 74.52 160.36 73.89 160.28 73.05Z" fill="#232323"/>
</svg>
