<svg width="124" height="24" viewBox="0 0 124 24" fill="none" xmlns="http://www.w3.org/2000/svg">
    <path d="M12.41 6.03C12.41 6.23 12.37 6.39 12.29 6.51C12.21 6.63 12.11 6.72 11.99 6.78C11.87 6.84 11.75 6.88 11.63 6.9C11.51 6.92 11.41 6.93 11.33 6.93C11.01 6.93 10.77 6.77 10.61 6.45C10.47 6.11 10.29 5.75 10.07 5.37C9.87 4.97 9.56 4.61 9.14 4.29C8.74 3.95 8.11 3.78 7.25 3.78C6.73 3.78 6.27 3.89 5.87 4.11C5.47 4.33 5.13 4.61 4.85 4.95C4.59 5.29 4.39 5.67 4.25 6.09C4.13 6.49 4.07 6.89 4.07 7.29C4.07 7.93 4.18 8.52 4.4 9.06C4.64 9.58 4.97 10.08 5.39 10.56C5.81 11.02 6.31 11.48 6.89 11.94C7.47 12.38 8.1 12.85 8.78 13.35C9.36 13.77 9.92 14.2 10.46 14.64C11.02 15.08 11.51 15.55 11.93 16.05C12.37 16.55 12.72 17.09 12.98 17.67C13.24 18.23 13.37 18.84 13.37 19.5C13.37 20.24 13.16 20.85 12.74 21.33C12.34 21.81 11.83 22.19 11.21 22.47C10.59 22.77 9.9 22.97 9.14 23.07C8.4 23.19 7.68 23.25 6.98 23.25C6.28 23.25 5.54 23.19 4.76 23.07C3.98 22.95 3.26 22.74 2.6 22.44C1.94 22.16 1.39 21.79 0.95 21.33C0.53 20.89 0.32 20.34 0.32 19.68C0.32 19.08 0.52 18.61 0.92 18.27C1.34 17.93 1.94 17.68 2.72 17.52C2.68 17.64 2.59 17.85 2.45 18.15C2.33 18.43 2.27 18.82 2.27 19.32C2.27 19.88 2.45 20.33 2.81 20.67C3.17 21.01 3.6 21.27 4.1 21.45C4.6 21.63 5.11 21.74 5.63 21.78C6.17 21.84 6.61 21.87 6.95 21.87C7.17 21.87 7.47 21.83 7.85 21.75C8.25 21.67 8.64 21.55 9.02 21.39C9.4 21.23 9.72 21.02 9.98 20.76C10.26 20.48 10.4 20.15 10.4 19.77C10.4 19.47 10.3 19.16 10.1 18.84C9.92 18.5 9.67 18.16 9.35 17.82C9.03 17.46 8.66 17.1 8.24 16.74C7.82 16.38 7.37 16.02 6.89 15.66C6.19 15.12 5.5 14.57 4.82 14.01C4.14 13.45 3.53 12.87 2.99 12.27C2.45 11.67 2.01 11.05 1.67 10.41C1.33 9.75 1.16 9.06 1.16 8.34C1.16 7.24 1.36 6.31 1.76 5.55C2.18 4.77 2.71 4.14 3.35 3.66C4.01 3.18 4.73 2.83 5.51 2.61C6.29 2.39 7.05 2.28 7.79 2.28C8.35 2.28 8.93 2.33 9.53 2.43C10.15 2.51 10.71 2.64 11.21 2.82C11.73 2.98 12.15 3.2 12.47 3.48C12.81 3.74 12.98 4.05 12.98 4.41C12.98 4.69 12.88 4.96 12.68 5.22C12.5 5.46 12.41 5.73 12.41 6.03ZM26.0649 17.73C26.0249 18.01 25.9249 18.34 25.7649 18.72C25.6049 19.1 25.3949 19.47 25.1349 19.83C24.8949 20.17 24.6049 20.46 24.2649 20.7C23.9449 20.94 23.5849 21.06 23.1849 21.06C22.5849 21.06 22.0549 20.83 21.5949 20.37C21.1549 19.91 20.8849 19.26 20.7849 18.42C20.6649 18.74 20.5249 19.11 20.3649 19.53C20.2049 19.95 20.0049 20.34 19.7649 20.7C19.5249 21.06 19.2449 21.36 18.9249 21.6C18.6249 21.86 18.2649 21.99 17.8449 21.99C17.7249 21.99 17.6349 21.98 17.5749 21.96C17.5149 21.94 17.4449 21.91 17.3649 21.87C17.3049 21.85 17.2249 21.83 17.1249 21.81C17.0449 21.79 16.9249 21.78 16.7649 21.78C16.2849 21.78 15.8749 21.62 15.5349 21.3C15.2149 21 14.9549 20.61 14.7549 20.13C14.5549 19.65 14.4049 19.13 14.3049 18.57C14.2249 17.99 14.1849 17.45 14.1849 16.95C14.1849 15.75 14.2449 14.61 14.3649 13.53C14.5049 12.45 14.7249 11.5 15.0249 10.68C15.3249 9.84 15.7149 9.18 16.1949 8.7C16.6749 8.2 17.2549 7.95 17.9349 7.95C18.3349 7.95 18.6349 7.99 18.8349 8.07C19.0549 8.13 19.2549 8.21 19.4349 8.31C19.6149 8.39 19.8049 8.48 20.0049 8.58C20.2249 8.68 20.5249 8.76 20.9049 8.82C21.3249 9.06 21.6149 9.35 21.7749 9.69C21.9549 10.01 22.0649 10.36 22.1049 10.74C22.1649 11.12 22.1849 11.52 22.1649 11.94C22.1449 12.34 22.1649 12.74 22.2249 13.14C22.2249 13.16 22.2649 13.19 22.3449 13.23C22.4449 13.27 22.5549 13.32 22.6749 13.38C22.7949 13.42 22.8949 13.49 22.9749 13.59C23.0749 13.67 23.1249 13.78 23.1249 13.92V14.04C22.9249 14.56 22.8049 15.02 22.7649 15.42C22.7249 15.82 22.7049 16.3 22.7049 16.86C22.7049 17.14 22.7149 17.45 22.7349 17.79C22.7749 18.11 22.8249 18.42 22.8849 18.72C22.9649 19 23.0749 19.24 23.2149 19.44C23.3549 19.62 23.5349 19.71 23.7549 19.71C23.9949 19.71 24.2049 19.59 24.3849 19.35C24.5849 19.11 24.7449 18.84 24.8649 18.54C25.0049 18.22 25.1149 17.9 25.1949 17.58C25.2949 17.26 25.3549 17.02 25.3749 16.86C25.4149 16.62 25.5149 16.5 25.6749 16.5C25.7749 16.5 25.8649 16.56 25.9449 16.68C26.0449 16.78 26.0949 16.97 26.0949 17.25C26.0949 17.33 26.0949 17.41 26.0949 17.49C26.0949 17.55 26.0849 17.63 26.0649 17.73ZM20.5149 12.87C20.5149 12.65 20.4949 12.39 20.4549 12.09C20.4149 11.79 20.3449 11.51 20.2449 11.25C20.1449 10.99 19.9949 10.77 19.7949 10.59C19.5949 10.41 19.3249 10.32 18.9849 10.32C18.4249 10.32 17.9649 10.58 17.6049 11.1C17.2649 11.6 16.9949 12.2 16.7949 12.9C16.5949 13.58 16.4649 14.29 16.4049 15.03C16.3449 15.75 16.3149 16.32 16.3149 16.74C16.3149 17.06 16.3249 17.45 16.3449 17.91C16.3849 18.35 16.4449 18.77 16.5249 19.17C16.6049 19.57 16.7149 19.91 16.8549 20.19C17.0149 20.47 17.2149 20.61 17.4549 20.61C18.0349 20.61 18.4749 20.39 18.7749 19.95C19.0949 19.49 19.3349 18.93 19.4949 18.27C19.6549 17.59 19.7649 16.87 19.8249 16.11C19.9049 15.33 19.9749 14.62 20.0349 13.98C20.0749 13.64 20.1649 13.43 20.3049 13.35C20.4449 13.25 20.5149 13.18 20.5149 13.14V12.87ZM29.7634 14.46C29.4634 14.88 29.2134 15.35 29.0134 15.87C28.8334 16.37 28.6734 16.9 28.5334 17.46C28.3934 18 28.2734 18.55 28.1734 19.11C28.0934 19.65 28.0034 20.17 27.9034 20.67C27.8634 20.79 27.7034 20.87 27.4234 20.91C27.1634 20.95 26.9734 20.97 26.8534 20.97C26.4934 20.97 26.1934 20.95 25.9534 20.91C25.7334 20.87 25.5634 20.78 25.4434 20.64C25.3234 20.48 25.2334 20.25 25.1734 19.95C25.1134 19.63 25.0634 19.21 25.0234 18.69L25.4134 9.78C25.4134 9.52 25.5534 9.39 25.8334 9.39C25.9334 9.39 26.0734 9.41 26.2534 9.45C26.4334 9.47 26.6234 9.51 26.8234 9.57C27.0234 9.63 27.1934 9.71 27.3334 9.81C27.4734 9.89 27.5434 9.99 27.5434 10.11V16.2C27.5634 16.18 27.5934 16.1 27.6334 15.96C27.7734 15.6 27.9434 15.16 28.1434 14.64C28.3434 14.1 28.5634 13.59 28.8034 13.11C29.0434 12.63 29.2934 12.22 29.5534 11.88C29.8334 11.54 30.1134 11.37 30.3934 11.37C30.7534 11.37 31.0234 11.46 31.2034 11.64C31.4034 11.8 31.5534 12.01 31.6534 12.27C31.7534 12.53 31.8134 12.81 31.8334 13.11C31.8534 13.41 31.8634 13.7 31.8634 13.98C31.8634 14.18 31.8434 14.51 31.8034 14.97C31.7634 15.43 31.7434 16.12 31.7434 17.04C31.7434 17.56 31.7934 18.03 31.8934 18.45C31.9934 18.87 32.1934 19.08 32.4934 19.08C32.7134 19.08 32.9134 18.98 33.0934 18.78C33.2734 18.58 33.4334 18.33 33.5734 18.03C33.7334 17.73 33.8634 17.41 33.9634 17.07C34.0634 16.73 34.1234 16.41 34.1434 16.11C34.1634 15.73 34.3134 15.54 34.5934 15.54C34.7734 15.54 34.8934 15.6 34.9534 15.72C35.0134 15.84 35.0434 15.98 35.0434 16.14V16.2C35.0234 16.6 34.9434 17.05 34.8034 17.55C34.6834 18.05 34.4934 18.52 34.2334 18.96C33.9934 19.4 33.6734 19.77 33.2734 20.07C32.8734 20.37 32.3834 20.52 31.8034 20.52C30.9034 20.52 30.3234 20.2 30.0634 19.56C29.8234 18.9 29.7034 17.93 29.7034 16.65L29.7634 14.46ZM46.554 15.87C46.514 16.31 46.424 16.81 46.284 17.37C46.164 17.93 45.974 18.46 45.714 18.96C45.474 19.46 45.144 19.88 44.724 20.22C44.324 20.56 43.834 20.73 43.254 20.73C42.394 20.73 41.764 20.53 41.364 20.13C40.984 19.73 40.664 19.11 40.404 18.27L40.374 18.42C40.294 18.74 40.194 19.09 40.074 19.47C39.974 19.85 39.824 20.2 39.624 20.52C39.444 20.82 39.214 21.07 38.934 21.27C38.654 21.49 38.294 21.6 37.854 21.6C37.554 21.6 37.254 21.54 36.954 21.42C36.674 21.32 36.374 21.19 36.054 21.03C35.594 20.79 35.234 20.47 34.974 20.07C34.714 19.67 34.524 19.26 34.404 18.84C34.284 18.42 34.214 18.02 34.194 17.64C34.174 17.24 34.164 16.93 34.164 16.71V16.2C34.164 16.08 34.194 15.82 34.254 15.42C34.314 15.02 34.404 14.56 34.524 14.04C34.664 13.5 34.824 12.94 35.004 12.36C35.204 11.78 35.434 11.25 35.694 10.77C35.974 10.29 36.284 9.89 36.624 9.57C36.984 9.25 37.384 9.09 37.824 9.09C38.304 9.09 38.764 9.17 39.204 9.33C39.664 9.49 39.994 9.61 40.194 9.69C40.214 9.33 40.224 8.89 40.224 8.37C40.244 7.85 40.254 7.34 40.254 6.84C40.274 6.32 40.284 5.84 40.284 5.4C40.284 4.96 40.284 4.63 40.284 4.41C40.284 3.89 40.274 3.45 40.254 3.09C40.234 2.71 40.194 2.39 40.134 2.13C40.094 1.87 40.044 1.66 39.984 1.5C39.924 1.34 39.854 1.2 39.774 1.08C40.114 0.979999 40.444 0.909999 40.764 0.87C41.104 0.829999 41.414 0.809999 41.694 0.809999C42.154 0.809999 42.504 0.849999 42.744 0.929999C43.004 0.99 43.134 1.16 43.134 1.44C43.134 1.56 43.104 1.91 43.044 2.49C42.984 3.07 42.924 3.83 42.864 4.77C42.804 5.69 42.744 6.76 42.684 7.98C42.624 9.2 42.594 10.5 42.594 11.88V14.91C42.594 15.47 42.604 16.01 42.624 16.53C42.644 17.03 42.684 17.48 42.744 17.88C42.824 18.26 42.934 18.57 43.074 18.81C43.214 19.03 43.414 19.14 43.674 19.14C44.254 19.14 44.684 18.81 44.964 18.15C45.264 17.47 45.504 16.41 45.684 14.97C45.704 14.81 45.744 14.67 45.804 14.55C45.864 14.43 45.994 14.37 46.194 14.37C46.374 14.37 46.484 14.49 46.524 14.73C46.584 14.95 46.604 15.17 46.584 15.39L46.554 15.87ZM40.224 11.52C40.224 11.46 40.174 11.39 40.074 11.31C39.994 11.23 39.884 11.15 39.744 11.07C39.624 10.99 39.494 10.92 39.354 10.86C39.214 10.8 39.094 10.77 38.994 10.77C38.594 10.77 38.234 11.02 37.914 11.52C37.614 12 37.354 12.6 37.134 13.32C36.934 14.04 36.784 14.81 36.684 15.63C36.584 16.45 36.534 17.18 36.534 17.82C36.534 18.06 36.544 18.34 36.564 18.66C36.584 18.98 36.634 19.28 36.714 19.56C36.794 19.84 36.904 20.08 37.044 20.28C37.184 20.48 37.374 20.58 37.614 20.58C37.874 20.58 38.114 20.43 38.334 20.13C38.554 19.83 38.754 19.44 38.934 18.96C39.114 18.48 39.274 17.94 39.414 17.34C39.574 16.74 39.704 16.15 39.804 15.57C39.924 14.97 40.014 14.41 40.074 13.89C40.134 13.35 40.174 12.92 40.194 12.6L40.224 11.52ZM61.104 10.98C61.164 11.12 61.194 11.29 61.194 11.49C61.194 11.75 61.104 12.01 60.924 12.27C60.744 12.53 60.504 12.77 60.204 12.99C59.924 13.19 59.604 13.36 59.244 13.5C58.884 13.64 58.514 13.73 58.134 13.77C58.114 13.99 58.074 14.32 58.014 14.76C57.974 15.18 57.894 15.66 57.774 16.2C57.674 16.72 57.534 17.26 57.354 17.82C57.194 18.36 56.984 18.86 56.724 19.32C56.484 19.78 56.194 20.16 55.854 20.46C55.534 20.74 55.154 20.88 54.714 20.88C54.374 20.88 54.034 20.79 53.694 20.61C53.374 20.41 53.064 20.16 52.764 19.86C52.484 19.56 52.234 19.23 52.014 18.87C51.794 18.49 51.624 18.11 51.504 17.73C51.424 17.99 51.314 18.36 51.174 18.84C51.034 19.3 50.844 19.76 50.604 20.22C50.384 20.68 50.104 21.08 49.764 21.42C49.444 21.76 49.054 21.93 48.594 21.93C48.234 21.93 47.804 21.86 47.304 21.72C46.824 21.6 46.464 21.4 46.224 21.12C46.084 20.94 45.964 20.64 45.864 20.22C45.764 19.8 45.684 19.36 45.624 18.9C45.564 18.42 45.514 17.97 45.474 17.55C45.454 17.13 45.444 16.84 45.444 16.68V15.21C45.444 14.97 45.464 14.55 45.504 13.95C45.544 13.35 45.584 12.73 45.624 12.09C45.684 11.43 45.734 10.83 45.774 10.29C45.834 9.75 45.874 9.41 45.894 9.27C45.934 9.17 46.024 9.11 46.164 9.09C46.324 9.05 46.444 9.03 46.524 9.03C46.624 9.03 46.794 9.05 47.034 9.09C47.274 9.11 47.514 9.15 47.754 9.21C47.994 9.25 48.204 9.31 48.384 9.39C48.584 9.47 48.684 9.56 48.684 9.66C48.704 9.7 48.664 9.76 48.564 9.84C48.484 9.92 48.424 10.06 48.384 10.26C48.344 10.5 48.294 10.87 48.234 11.37C48.174 11.87 48.114 12.44 48.054 13.08C47.994 13.7 47.944 14.36 47.904 15.06C47.864 15.76 47.844 16.43 47.844 17.07C47.844 17.97 47.894 18.73 47.994 19.35C48.114 19.95 48.334 20.25 48.654 20.25C48.814 20.25 48.974 20.08 49.134 19.74C49.314 19.38 49.484 18.97 49.644 18.51C49.804 18.03 49.934 17.56 50.034 17.1C50.154 16.64 50.234 16.31 50.274 16.11C50.314 15.85 50.384 15.42 50.484 14.82C50.584 14.2 50.634 13.51 50.634 12.75C50.634 12.47 50.634 12.26 50.634 12.12C50.634 11.98 50.624 11.87 50.604 11.79C50.604 11.71 50.604 11.65 50.604 11.61C50.604 11.57 50.604 11.51 50.604 11.43C50.604 11.21 50.664 11.08 50.784 11.04C50.904 11 51.054 10.98 51.234 10.98C51.434 10.98 51.654 11 51.894 11.04C52.154 11.08 52.394 11.13 52.614 11.19C52.834 11.25 53.024 11.31 53.184 11.37C53.364 11.43 53.464 11.48 53.484 11.52V13.92C53.484 14.18 53.494 14.62 53.514 15.24C53.534 15.84 53.584 16.45 53.664 17.07C53.744 17.69 53.864 18.24 54.024 18.72C54.184 19.18 54.394 19.41 54.654 19.41C54.834 19.41 54.994 19.28 55.134 19.02C55.294 18.74 55.434 18.4 55.554 18C55.694 17.58 55.804 17.13 55.884 16.65C55.984 16.15 56.064 15.69 56.124 15.27C56.204 14.85 56.254 14.5 56.274 14.22C56.314 13.92 56.334 13.76 56.334 13.74C56.334 13.64 56.274 13.55 56.154 13.47C56.034 13.39 55.894 13.28 55.734 13.14C55.594 13 55.464 12.81 55.344 12.57C55.224 12.33 55.164 12 55.164 11.58C55.164 11.3 55.194 10.99 55.254 10.65C55.334 10.29 55.424 9.96 55.524 9.66C55.644 9.36 55.774 9.11 55.914 8.91C56.074 8.69 56.244 8.58 56.424 8.58C56.664 8.58 56.894 8.61 57.114 8.67C57.334 8.73 57.524 8.85 57.684 9.03C57.864 9.21 57.994 9.46 58.074 9.78C58.174 10.08 58.224 10.47 58.224 10.95V12.18C58.684 12.18 59.144 12.08 59.604 11.88C60.064 11.66 60.504 11.31 60.924 10.83C61.004 10.83 61.064 10.88 61.104 10.98ZM64.5233 7.11C64.5233 7.25 64.4533 7.37 64.3133 7.47C64.1733 7.55 64.0133 7.61 63.8333 7.65C63.6733 7.69 63.5133 7.72 63.3533 7.74C63.1933 7.76 63.0933 7.77 63.0533 7.77C62.6333 7.77 62.2133 7.65 61.7933 7.41C61.3933 7.17 61.0233 6.79 60.6833 6.27C60.6433 6.21 60.5833 6.13 60.5033 6.03C60.4233 5.93 60.3833 5.86 60.3833 5.82C60.3833 5.72 60.4533 5.63 60.5933 5.55C60.7533 5.47 60.9233 5.39 61.1033 5.31C61.3033 5.23 61.4833 5.17 61.6433 5.13C61.8233 5.09 61.9433 5.07 62.0033 5.07C62.4033 5.07 62.7933 5.17 63.1733 5.37C63.5733 5.57 63.8933 5.94 64.1333 6.48C64.1733 6.54 64.2433 6.65 64.3433 6.81C64.4633 6.95 64.5233 7.05 64.5233 7.11ZM67.5833 16.2C67.5233 16.68 67.4133 17.18 67.2533 17.7C67.0933 18.22 66.8633 18.71 66.5633 19.17C66.2833 19.61 65.9233 19.98 65.4833 20.28C65.0433 20.56 64.5033 20.7 63.8633 20.7C63.3633 20.7 62.8533 20.53 62.3333 20.19C61.8133 19.83 61.4533 19.36 61.2533 18.78C61.0733 18.2 60.9833 17.64 60.9833 17.1C60.9833 16.94 60.9933 16.7 61.0133 16.38C61.0333 16.06 61.0433 15.67 61.0433 15.21V11.91C61.0433 11.75 61.0333 11.58 61.0133 11.4C61.0133 11.22 60.9933 11.05 60.9533 10.89C60.9333 10.81 60.8933 10.72 60.8333 10.62C60.7933 10.52 60.7733 10.45 60.7733 10.41C60.7733 10.33 60.8233 10.27 60.9233 10.23C61.0233 10.17 61.1333 10.13 61.2533 10.11C61.3733 10.09 61.4833 10.08 61.5833 10.08C61.7033 10.08 61.7633 10.08 61.7633 10.08C61.8233 10.08 61.9633 10.09 62.1833 10.11C62.4033 10.11 62.6333 10.14 62.8733 10.2C63.1133 10.26 63.3233 10.36 63.5033 10.5C63.7033 10.62 63.8033 10.8 63.8033 11.04C63.8233 11.1 63.7833 11.21 63.6833 11.37C63.6033 11.53 63.5233 11.81 63.4433 12.21C63.4233 12.37 63.4033 12.52 63.3833 12.66C63.3633 12.78 63.3433 12.92 63.3233 13.08C63.3033 13.24 63.2833 13.44 63.2633 13.68C63.2433 13.9 63.2233 14.19 63.2033 14.55V16.35C63.2033 16.67 63.2133 17 63.2333 17.34C63.2533 17.66 63.2933 17.96 63.3533 18.24C63.4333 18.5 63.5533 18.72 63.7133 18.9C63.8733 19.06 64.0833 19.14 64.3433 19.14C64.7233 19.14 65.0233 19.03 65.2433 18.81C65.4633 18.59 65.6333 18.4 65.7533 18.24C65.9733 17.94 66.1433 17.57 66.2633 17.13C66.3833 16.67 66.4933 16.2 66.5933 15.72L66.6533 15.42C66.7133 15.12 66.8933 14.97 67.1933 14.97C67.4933 14.97 67.6433 15.18 67.6433 15.6V15.75L67.5833 16.2ZM75.6263 18.3C75.1463 19.44 74.5263 20.27 73.7663 20.79C73.0263 21.29 72.1463 21.54 71.1263 21.54C71.0263 21.54 70.9263 21.54 70.8263 21.54C70.7463 21.54 70.6563 21.53 70.5563 21.51C70.0563 21.45 69.5763 21.29 69.1163 21.03C68.6563 20.79 68.2563 20.45 67.9163 20.01C67.5763 19.55 67.3063 19 67.1063 18.36C66.9063 17.7 66.8063 16.95 66.8063 16.11C66.8063 15.31 66.9063 14.47 67.1063 13.59C67.3263 12.71 67.7563 11.91 68.3963 11.19C68.9563 10.55 69.6063 10.04 70.3463 9.66C71.1063 9.28 71.8763 9.09 72.6563 9.09C73.0363 9.09 73.3763 9.15 73.6763 9.27C73.9963 9.37 74.1763 9.5 74.2163 9.66C74.2563 9.88 74.2763 10.16 74.2763 10.5C74.2963 10.82 74.3063 11.25 74.3063 11.79C74.3063 12.25 74.2663 12.59 74.1863 12.81C74.1263 13.03 73.9863 13.14 73.7663 13.14C73.5263 13.12 73.3563 13 73.2563 12.78C73.1563 12.54 73.0563 12.29 72.9563 12.03C72.8563 11.75 72.7263 11.5 72.5663 11.28C72.4063 11.04 72.1463 10.91 71.7863 10.89C71.2663 10.89 70.8363 11.09 70.4963 11.49C70.1563 11.89 69.8863 12.36 69.6863 12.9C69.5063 13.44 69.3763 13.98 69.2963 14.52C69.2363 15.06 69.2063 15.48 69.2063 15.78C69.2063 16.94 69.3763 17.94 69.7163 18.78C70.0763 19.6 70.7063 20.05 71.6063 20.13L71.9363 20.16C72.5563 20.16 73.0563 20.01 73.4363 19.71C73.8163 19.39 74.1163 19.05 74.3363 18.69C74.5763 18.31 74.7563 17.97 74.8763 17.67C75.0163 17.35 75.1563 17.19 75.2963 17.19H75.3863C75.6463 17.21 75.7763 17.38 75.7763 17.7C75.7763 17.84 75.7263 18.04 75.6263 18.3ZM87.4991 16.74C87.4791 17.02 87.3891 17.42 87.2291 17.94C87.0891 18.44 86.8691 18.94 86.5691 19.44C86.2891 19.92 85.9191 20.35 85.4591 20.73C85.0191 21.09 84.4791 21.27 83.8391 21.27C83.2191 21.27 82.7191 21.09 82.3391 20.73C81.9791 20.37 81.6991 19.88 81.4991 19.26C81.3191 18.62 81.1991 17.86 81.1391 16.98C81.0991 16.1 81.0791 15.14 81.0791 14.1C81.0791 13.92 81.0791 13.7 81.0791 13.44C81.0791 13.16 81.0891 12.92 81.1091 12.72C80.8691 13.16 80.6291 13.72 80.3891 14.4C80.1491 15.06 79.9291 15.77 79.7291 16.53C79.5491 17.29 79.3991 18.07 79.2791 18.87C79.1591 19.65 79.0891 20.39 79.0691 21.09C78.8691 21.13 78.6491 21.18 78.4091 21.24C78.1891 21.3 77.9291 21.33 77.6291 21.33C77.5091 21.33 77.3691 21.32 77.2091 21.3C77.0491 21.28 76.8891 21.24 76.7291 21.18C76.5691 21.12 76.4291 21.04 76.3091 20.94C76.2091 20.82 76.1591 20.67 76.1591 20.49C76.1591 20.45 76.1891 20.36 76.2491 20.22C76.3291 20.08 76.3691 19.8 76.3691 19.38V2.13C76.3691 1.85 76.3291 1.66 76.2491 1.56C76.1891 1.46 76.1591 1.34 76.1591 1.2C76.1591 1.12 76.2291 1.06 76.3691 1.02C76.5091 0.959999 76.6691 0.919999 76.8491 0.899999C77.0291 0.859999 77.2091 0.839998 77.3891 0.839998C77.5891 0.819999 77.7491 0.809999 77.8691 0.809999C78.3891 0.809999 78.9191 0.919999 79.4591 1.14C79.3591 1.68 79.2591 2.4 79.1591 3.3C79.0791 4.18 78.9991 5.1 78.9191 6.06C78.8391 7 78.7791 7.91 78.7391 8.79C78.6991 9.65 78.6791 10.32 78.6791 10.8C78.6791 10.86 78.6791 10.94 78.6791 11.04C78.6791 11.12 78.6691 11.35 78.6491 11.73C78.6491 12.09 78.6391 12.66 78.6191 13.44C78.6191 14.22 78.6091 15.32 78.5891 16.74C78.5891 16.72 78.6291 16.53 78.7091 16.17C78.8091 15.81 78.9291 15.36 79.0691 14.82C79.2091 14.28 79.3691 13.7 79.5491 13.08C79.7491 12.46 79.9491 11.89 80.1491 11.37C80.3691 10.83 80.5891 10.39 80.8091 10.05C81.0291 9.69 81.2391 9.51 81.4391 9.51C81.6591 9.51 81.9591 9.56 82.3391 9.66C82.7391 9.74 82.9891 9.89 83.0891 10.11C83.1691 10.35 83.2491 10.52 83.3291 10.62C83.4291 10.72 83.5091 10.8 83.5691 10.86C83.6491 10.92 83.7091 10.98 83.7491 11.04C83.8091 11.1 83.8391 11.19 83.8391 11.31C83.8191 11.37 83.7691 11.57 83.6891 11.91C83.6291 12.25 83.5591 12.68 83.4791 13.2C83.4191 13.7 83.3591 14.26 83.2991 14.88C83.2391 15.48 83.2091 16.08 83.2091 16.68C83.2091 17.48 83.2791 18.17 83.4191 18.75C83.5591 19.33 83.8291 19.62 84.2291 19.62C84.6291 19.62 84.9591 19.5 85.2191 19.26C85.4791 19.02 85.6891 18.72 85.8491 18.36C86.0291 18 86.1591 17.62 86.2391 17.22C86.3391 16.8 86.4191 16.43 86.4791 16.11C86.5791 15.69 86.7291 15.48 86.9291 15.48C87.1491 15.48 87.2991 15.56 87.3791 15.72C87.4791 15.88 87.5291 16.09 87.5291 16.35L87.4991 16.74Z" fill="black"/>
    <path d="M92.3495 19.2V21H90.4895V19.2H92.3495ZM109.515 10.02L106.355 21H104.395L101.375 12.06L98.3354 21H96.3554L93.2354 10.02H95.0754L97.4154 19.26L100.455 10.02H102.355L105.415 19.24L107.775 10.02H109.515ZM116.453 19.4V21H115.093C113.973 21 113.133 20.7333 112.573 20.2C112.026 19.6667 111.753 18.7733 111.753 17.52V11.6H110.113V10.02H111.753V7.28H113.593V10.02H116.433V11.6H113.593V17.56C113.593 18.2667 113.719 18.7533 113.973 19.02C114.239 19.2733 114.693 19.4 115.333 19.4H116.453ZM123.534 7.42C122.56 7.40667 121.88 7.57333 121.494 7.92C121.12 8.26667 120.934 8.86667 120.934 9.72V10.02H123.534V11.62H120.934V21H119.114V11.62H117.534V10.02H119.114V9.58C119.114 6.95333 120.587 5.7 123.534 5.82V7.42Z" fill="#FFBF00"/>
</svg>
