<svg width="262" height="258" viewBox="0 0 262 258" fill="none" xmlns="http://www.w3.org/2000/svg">
    <circle opacity="0.23" cx="129" cy="87" r="68" fill="#FFBF00"/>
    <circle cx="129" cy="87" r="53" fill="#FFBF00"/>
    <circle opacity="0.1" cx="129" cy="87" r="85.5" stroke="#FFBF00" stroke-width="3"/>
    <path d="M128.39 111.06C118.81 111.06 102.78 111.06 101.4 93.95C101.32 92.98 101.65 92.02 102.32 91.3C102.98 90.58 103.92 90.17 104.9 90.17H151.9C152.87 90.17 153.8 90.58 154.47 91.29C155.13 92 155.47 92.96 155.4 93.93C154.15 111.06 139.86 111.06 128.39 111.06ZM104.89 92.85C104.58 92.85 104.38 93.02 104.28 93.12C104.19 93.22 104.04 93.43 104.07 93.73C105.16 107.24 116.68 108.38 128.39 108.38C139.83 108.38 151.66 108.38 152.71 93.74C152.73 93.43 152.58 93.22 152.49 93.12C152.4 93.02 152.2 92.86 151.89 92.86H104.89V92.85Z" fill="#232323"/>
    <path d="M150.19 87.29H106.59C104.67 87.29 102.97 86.29 102.04 84.6C101.11 82.92 101.17 80.95 102.19 79.33C107.9 70.27 117.69 64.86 128.39 64.86C139.09 64.86 148.88 70.27 154.59 79.33C155.61 80.95 155.67 82.92 154.74 84.6C153.81 86.28 152.11 87.29 150.19 87.29ZM128.39 67.54C118.62 67.54 109.67 72.48 104.46 80.76C103.97 81.54 103.94 82.5 104.39 83.31C104.84 84.12 105.66 84.61 106.59 84.61H150.2C151.13 84.61 151.95 84.12 152.4 83.31C152.85 82.5 152.82 81.55 152.33 80.76C147.11 72.48 138.16 67.54 128.39 67.54Z" fill="#232323"/>
    <path d="M110.33 77.93C110.08 77.93 109.83 77.84 109.63 77.65C109.23 77.26 109.22 76.63 109.6 76.23C113.82 71.87 119.19 69.02 125.14 68C125.69 67.91 126.21 68.27 126.3 68.82C126.39 69.37 126.03 69.89 125.48 69.98C119.96 70.93 114.97 73.57 111.05 77.63C110.86 77.82 110.6 77.93 110.33 77.93Z" fill="#FCFCFC"/>
    <path d="M153.46 90.6999H103.32C101.8 90.6999 100.67 89.2899 100.99 87.8099C101.23 86.7199 102.2 85.9399 103.32 85.9399H153.47C155.03 85.9399 156.17 87.4199 155.77 88.9299C155.49 89.9699 154.55 90.6999 153.46 90.6999Z" fill="#F6C114"/>
    <path d="M153.46 92.04H103.32C102.19 92.04 101.13 91.53 100.42 90.65C99.71 89.77 99.44 88.63 99.68 87.52C100.05 85.82 101.58 84.59 103.32 84.59H153.47C154.63 84.59 155.71 85.12 156.42 86.04C157.13 86.96 157.37 88.13 157.07 89.26C156.64 90.89 155.15 92.04 153.46 92.04ZM103.32 87.27C102.83 87.27 102.41 87.61 102.3 88.09C102.21 88.51 102.39 88.82 102.51 88.97C102.63 89.11 102.89 89.36 103.32 89.36H153.47C153.94 89.36 154.36 89.04 154.48 88.58C154.56 88.27 154.5 87.94 154.3 87.68C154.1 87.42 153.8 87.27 153.47 87.27H103.32Z" fill="#232323"/>
    <path d="M100.93 91.56C100.93 91.91 101.2 92.2 101.55 92.23C105.52 92.61 105.72 96.58 110.08 96.58C114.65 96.58 114.65 92.2 119.23 92.2C123.81 92.2 123.81 96.58 128.38 96.58C132.96 96.58 132.96 92.2 137.53 92.2C142.11 92.2 142.11 96.58 146.68 96.58C151.04 96.58 151.25 92.61 155.22 92.23C155.57 92.2 155.84 91.91 155.84 91.56C155.84 91.19 155.54 90.88 155.16 90.88H101.61C101.24 90.88 100.93 91.18 100.93 91.56Z" fill="#F6C114"/>
    <path d="M146.69 97.92C143.86 97.92 142.38 96.5 141.19 95.36C140.13 94.34 139.29 93.54 137.54 93.54C135.79 93.54 134.95 94.34 133.89 95.36C132.7 96.5 131.21 97.92 128.39 97.92C125.56 97.92 124.08 96.5 122.89 95.36C121.83 94.34 120.99 93.54 119.24 93.54C117.49 93.54 116.65 94.34 115.59 95.36C114.4 96.5 112.91 97.92 110.09 97.92C107.26 97.92 105.78 96.5 104.59 95.36C103.62 94.43 102.85 93.7 101.43 93.57C100.39 93.47 99.6 92.61 99.6 91.56C99.6 90.45 100.51 89.54 101.62 89.54H155.18C156.29 89.54 157.2 90.45 157.2 91.56C157.2 92.61 156.41 93.47 155.36 93.57C153.94 93.7 153.17 94.44 152.2 95.36C151.01 96.5 149.52 97.92 146.69 97.92ZM141.67 92.22C142.19 92.61 142.63 93.03 143.04 93.42C144.1 94.44 144.94 95.24 146.69 95.24C148.44 95.24 149.28 94.44 150.34 93.42C150.75 93.03 151.19 92.61 151.71 92.22H141.67ZM123.37 92.22C123.89 92.61 124.33 93.03 124.74 93.42C125.8 94.44 126.64 95.24 128.39 95.24C130.14 95.24 130.98 94.44 132.04 93.42C132.45 93.03 132.89 92.61 133.41 92.22H123.37ZM105.06 92.22C105.58 92.61 106.02 93.03 106.43 93.42C107.49 94.43 108.33 95.24 110.08 95.24C111.83 95.24 112.67 94.44 113.73 93.42C114.14 93.03 114.58 92.61 115.1 92.22H105.06ZM101.67 90.89C101.68 90.89 101.68 90.89 101.67 90.89C101.68 90.89 101.68 90.89 101.67 90.89Z" fill="#232323"/>
    <path d="M119.93 78.89C119.58 79.42 118.87 79.57 118.35 79.22C117.82 78.87 117.67 78.16 118.02 77.64C118.37 77.11 120.03 75.5 120.56 75.85C121.08 76.19 120.27 78.36 119.93 78.89Z" fill="#232323"/>
    <path d="M112.54 80.28C112.14 80.77 111.42 80.84 110.93 80.43C110.44 80.03 110.37 79.31 110.78 78.82C111.18 78.33 113.02 76.92 113.5 77.32C113.99 77.73 112.95 79.79 112.54 80.28Z" fill="#232323"/>
    <path d="M128.78 80.9C128.74 81.53 128.2 82.01 127.57 81.97C126.94 81.93 126.46 81.39 126.5 80.76C126.54 80.13 127.19 77.91 127.82 77.95C128.45 77.98 128.82 80.27 128.78 80.9Z" fill="#232323"/>
    <path d="M127.62 73.51C127.37 74.09 126.69 74.35 126.11 74.1C125.53 73.85 125.27 73.17 125.52 72.59C125.77 72.01 127.15 70.15 127.73 70.4C128.31 70.66 127.87 72.93 127.62 73.51Z" fill="#232323"/>
    <path d="M137.76 72.14C138.15 72.64 138.07 73.36 137.57 73.75C137.07 74.14 136.35 74.06 135.96 73.56C135.57 73.06 134.57 70.97 135.06 70.58C135.56 70.19 137.36 71.64 137.76 72.14Z" fill="#232323"/>
    <path d="M137.79 81.63C137.96 82.24 137.6 82.87 137 83.04C136.39 83.21 135.76 82.85 135.59 82.25C135.42 81.64 135.31 79.33 135.92 79.16C136.52 78.99 137.62 81.03 137.79 81.63Z" fill="#232323"/>
    <path d="M145.42 77.55C145.79 78.06 145.68 78.78 145.18 79.15C144.67 79.52 143.95 79.41 143.58 78.91C143.21 78.4 142.28 76.28 142.79 75.9C143.3 75.52 145.05 77.04 145.42 77.55Z" fill="#232323"/>
    <path d="M108.91 79.96C108.91 80.47 108.5 80.88 107.99 80.88C107.48 80.88 107.07 80.47 107.07 79.96C107.07 79.45 107.48 79.04 107.99 79.04C108.5 79.04 108.91 79.45 108.91 79.96Z" fill="#FCFCFC"/>
    <path d="M122.98 88.8H103.68C103.31 88.8 103.01 88.5 103.01 88.13C103.01 87.76 103.31 87.46 103.68 87.46H122.97C123.34 87.46 123.64 87.76 123.64 88.13C123.64 88.5 123.35 88.8 122.98 88.8Z" fill="#FCFCFC"/>
    <path d="M129.94 88.8H125.5C125.13 88.8 124.83 88.5 124.83 88.13C124.83 87.76 125.13 87.46 125.5 87.46H129.93C130.3 87.46 130.6 87.76 130.6 88.13C130.6 88.5 130.31 88.8 129.94 88.8Z" fill="#FCFCFC"/>
    <path d="M87.45 67.65C87.45 67.65 83.87 44.54 78.78 35.94C78.73 35.85 78.68 35.77 78.63 35.69C74.85 29.6 65.46 33.78 67.39 40.67L83.34 97.77L87.45 67.65Z" fill="white"/>
    <path d="M84.05 108.29L65.33 41.25C64.18 37.14 66.12 33.06 70.04 31.34C73.93 29.63 78.21 30.96 80.44 34.56L80.62 34.85C85.86 43.7 89.42 66.36 89.57 67.32L89.62 67.63L89.58 67.94L84.05 108.29ZM73.51 34.89C72.88 34.89 72.28 35.04 71.76 35.26C70.25 35.92 68.74 37.58 69.45 40.1L82.62 87.25L85.3 67.68C84.86 64.95 81.46 44.66 76.95 37.03L76.82 36.82C75.92 35.39 74.68 34.89 73.51 34.89Z" fill="#232323"/>
    <path d="M89.07 64.18C89.07 64.18 89.27 40.8 85.64 31.48C85.6 31.39 85.57 31.3 85.53 31.2C82.79 24.6 72.85 27.2 73.63 34.31L80.13 93.24L89.07 64.18Z" fill="white"/>
    <path d="M79.14 103.74L71.51 34.55C71.04 30.31 73.61 26.6 77.76 25.54C81.88 24.48 85.88 26.48 87.5 30.4L87.63 30.73C91.36 40.3 91.21 63.24 91.2 64.21V64.52L91.11 64.82L79.14 103.74ZM79.92 29.54C79.53 29.54 79.16 29.59 78.81 29.68C77.22 30.09 75.46 31.49 75.75 34.08L81.12 82.74L86.93 63.86C86.94 61.1 86.87 40.53 83.64 32.27L83.55 32.04C82.78 30.17 81.29 29.54 79.92 29.54ZM89.06 64.18H89.07H89.06Z" fill="#232323"/>
    <path d="M93.22 60.19C93.22 60.19 98.58 37.43 97.09 27.54C97.08 27.44 97.06 27.34 97.04 27.25C95.83 20.19 85.56 20.54 84.75 27.65L78.08 86.56L93.22 60.19Z" fill="white"/>
    <path d="M78.0999 88.7C78.0199 88.7 77.9399 88.7 77.8599 88.69C76.6899 88.56 75.8399 87.5 75.9799 86.33L82.6499 27.42C83.1299 23.18 86.4599 20.13 90.7399 20.01C90.8299 20.01 90.9099 20.01 90.9999 20.01C95.1299 20.01 98.4699 22.81 99.1699 26.9L99.2199 27.22C100.75 37.41 95.5399 59.74 95.3199 60.69C95.0499 61.84 93.8899 62.55 92.7499 62.28C91.5999 62.01 90.8899 60.86 91.1599 59.71C91.2099 59.49 96.4099 37.23 94.9999 27.87L94.9599 27.62C94.5299 25.08 92.4499 24.24 90.8699 24.28C89.2299 24.33 87.1999 25.3 86.9099 27.9L80.2199 86.8C80.0899 87.89 79.1699 88.7 78.0999 88.7Z" fill="#232323"/>
    <path d="M90.25 62.53C95.04 58.34 100.97 55.38 107.61 54.22C109.65 53.86 112 53.62 112 53.62C120.92 52.64 124.21 57.07 124.21 57.07C124.55 57.53 125.82 59.3 125.57 61.63C125.52 62.14 125.25 63.99 123.79 65.22C122.32 66.47 120.42 66.42 119.43 66.41C113.57 66.34 108.33 67.02 106.74 67.3C101.73 68.18 98.34 71.15 97.2 72.15C91.97 76.73 89.56 84.07 89.88 90.67C90.56 104.62 102.82 114.91 116.49 113.41C119.36 113.09 122.06 112.28 124.51 111.07C127.54 109.57 131.21 110.98 132.53 114.1C133.75 116.98 132.53 120.32 129.74 121.71C126.76 123.19 123.53 124.27 120.12 124.87C98.73 128.61 74.83 117.32 73.83 95.63C73.59 90.42 75.51 79.82 80.52 76.28L90.25 62.53Z" fill="white"/>
    <path d="M111.94 127.73C101.35 127.73 90.95 124.41 83.45 118.39C76.16 112.55 72.09 104.72 71.68 95.75C71.46 90.95 73.07 78.94 79.27 74.55C80.23 73.87 81.57 74.1 82.25 75.06C82.93 76.02 82.7 77.36 81.74 78.04C77.78 80.84 75.7 90.12 75.95 95.55C76.31 103.25 79.82 109.99 86.12 115.05C94.71 121.94 107.59 124.9 119.73 122.78C122.87 122.23 125.91 121.23 128.77 119.81C130.55 118.93 131.33 116.79 130.54 114.95C130.13 113.97 129.35 113.23 128.36 112.86C127.39 112.5 126.36 112.55 125.44 113C122.71 114.35 119.77 115.21 116.71 115.54C109.58 116.32 102.34 114.1 96.88 109.44C91.34 104.71 88.09 98.09 87.73 90.78C87.35 82.98 90.43 75.23 95.78 70.55C97.01 69.47 100.76 66.19 106.35 65.2C108.34 64.85 113.64 64.2 119.44 64.27C120.31 64.29 121.55 64.3 122.39 63.59C123.21 62.9 123.39 61.74 123.43 61.4C123.57 60.12 122.99 59.02 122.48 58.33C122.39 58.22 119.65 54.91 112.22 55.73C112.18 55.73 109.9 55.97 107.97 56.31C101.93 57.37 96.29 60.07 91.65 64.13C90.76 64.91 89.41 64.82 88.63 63.93C87.85 63.04 87.94 61.69 88.83 60.91C94.05 56.34 100.41 53.29 107.22 52.1C109.31 51.73 111.66 51.49 111.76 51.48C121.77 50.37 125.74 55.56 125.9 55.79C127.26 57.63 127.89 59.78 127.67 61.85C127.57 62.79 127.12 65.17 125.15 66.85C123.09 68.6 120.61 68.56 119.42 68.55C113.69 68.49 108.58 69.15 107.09 69.41C102.67 70.19 99.6 72.88 98.59 73.76C94.2 77.6 91.68 84.04 92 90.57C92.3 96.68 95.02 102.23 99.65 106.18C104.29 110.14 110.18 111.95 116.24 111.29C118.8 111.01 121.26 110.29 123.54 109.16C125.52 108.18 127.76 108.07 129.84 108.84C131.92 109.61 133.61 111.23 134.47 113.27C136.13 117.19 134.46 121.74 130.66 123.63C127.43 125.23 124 126.36 120.46 126.98C117.65 127.49 114.78 127.73 111.94 127.73Z" fill="#232323"/>
    <path d="M104.46 123.55C104.57 126.05 105.88 136.47 105.88 136.47L85.14 139.07L74.02 98.04C74.02 98.04 83.09 100.86 85.98 104.05C88.87 107.24 104.46 123.55 104.46 123.55Z" fill="white"/>
    <path d="M83.56 141.42L71.96 98.6C71.65 97.46 72.33 96.29 73.46 95.98C74.61 95.67 75.77 96.35 76.08 97.48L86.71 136.72L103.49 134.62C103.1 131.41 102.4 125.51 102.32 123.64C102.27 122.46 103.19 121.46 104.37 121.42C105.58 121.39 106.55 122.29 106.59 123.47C106.67 125.38 107.54 132.64 107.99 136.21L108.26 138.33L83.56 141.42Z" fill="#232323"/>
    <path d="M80.0395 154.617L116.102 150.656L114.475 135.845L78.4124 139.807L80.0395 154.617Z" fill="#232323"/>
    <path d="M78.1501 156.98L76.0601 137.92L116.37 133.49L118.46 152.55L78.1501 156.98ZM80.7701 141.7L81.9301 152.26L113.74 148.76L112.58 138.2L80.7701 141.7Z" fill="#232323"/>
    <path d="M85.56 146.51C85.69 147.66 86.72 148.48 87.86 148.36C89.01 148.23 89.83 147.2 89.71 146.06C89.58 144.91 88.55 144.09 87.41 144.21C86.27 144.34 85.44 145.37 85.56 146.51Z" fill="white"/>
    <path d="M87.63 150.51C85.51 150.51 83.67 148.91 83.43 146.75C83.18 144.43 84.85 142.34 87.17 142.09C88.3 141.97 89.39 142.29 90.2701 142.99C91.1501 143.7 91.7 144.7 91.83 145.82C91.95 146.94 91.63 148.04 90.93 148.92C90.22 149.8 89.22 150.35 88.1 150.48C87.9401 150.5 87.79 150.51 87.63 150.51ZM87.64 146.24C87.64 146.24 87.63 146.24 87.64 146.24L85.57 146.52L87.7001 146.28C87.6901 146.25 87.66 146.24 87.64 146.24Z" fill="white"/>
    <path d="M144.31 60.44C143.47 60.44 142.77 59.75 142.77 58.9V47.72C142.77 46.87 143.46 46.18 144.31 46.18C145.16 46.18 145.85 46.87 145.85 47.72V58.9C145.84 59.74 145.15 60.44 144.31 60.44Z" fill="#232323"/>
    <path d="M153.49 64.44C152.85 63.88 152.79 62.91 153.35 62.27L160.72 53.86C161.28 53.22 162.25 53.16 162.89 53.72C163.53 54.28 163.59 55.25 163.03 55.89L155.66 64.3C155.1 64.93 154.12 64.99 153.49 64.44Z" fill="#232323"/>
    <path d="M160.28 73.05C160.21 72.21 160.83 71.46 161.68 71.38L172.81 70.4C173.65 70.33 174.4 70.95 174.48 71.8C174.55 72.64 173.93 73.39 173.08 73.47L161.95 74.45C161.11 74.52 160.36 73.89 160.28 73.05Z" fill="#232323"/>
    <path d="M27.4104 201.772C27.4104 202.181 27.3286 202.508 27.1651 202.753C27.0015 202.999 26.7971 203.182 26.5519 203.305C26.3066 203.428 26.0613 203.51 25.816 203.55C25.5707 203.591 25.3663 203.612 25.2028 203.612C24.5487 203.612 24.0582 203.285 23.7311 202.631C23.4449 201.936 23.077 201.2 22.6273 200.423C22.2185 199.605 21.5849 198.87 20.7264 198.215C19.9088 197.521 18.6211 197.173 16.8632 197.173C15.8003 197.173 14.86 197.398 14.0424 197.848C13.2248 198.297 12.5299 198.87 11.9575 199.565C11.4261 200.26 11.0173 201.036 10.7311 201.895C10.4858 202.712 10.3632 203.53 10.3632 204.348C10.3632 205.656 10.588 206.862 11.0377 207.965C11.5283 209.028 12.2028 210.05 13.0613 211.032C13.9198 211.972 14.9418 212.912 16.1273 213.852C17.3129 214.752 18.6006 215.712 19.9905 216.734C21.1761 217.593 22.3207 218.472 23.4245 219.371C24.5692 220.271 25.5707 221.231 26.4292 222.253C27.3286 223.275 28.044 224.379 28.5754 225.565C29.1069 226.709 29.3726 227.956 29.3726 229.305C29.3726 230.818 28.9434 232.065 28.0849 233.046C27.2673 234.027 26.2248 234.804 24.9575 235.376C23.6902 235.989 22.2799 236.398 20.7264 236.602C19.2138 236.848 17.7421 236.97 16.3113 236.97C14.8805 236.97 13.3679 236.848 11.7736 236.602C10.1792 236.357 8.70754 235.928 7.35848 235.315C6.00943 234.742 4.88522 233.986 3.98585 233.046C3.12736 232.146 2.69811 231.022 2.69811 229.673C2.69811 228.447 3.10692 227.486 3.92452 226.791C4.78301 226.096 6.00943 225.585 7.60377 225.258C7.52201 225.503 7.33804 225.932 7.05188 226.546C6.8066 227.118 6.68396 227.915 6.68396 228.937C6.68396 230.082 7.05188 231.002 7.78773 231.697C8.52358 232.392 9.40251 232.923 10.4245 233.291C11.4465 233.659 12.489 233.884 13.5519 233.965C14.6556 234.088 15.555 234.149 16.25 234.149C16.6997 234.149 17.3129 234.068 18.0896 233.904C18.9072 233.741 19.7044 233.495 20.4811 233.168C21.2578 232.841 21.9119 232.412 22.4434 231.881C23.0157 231.308 23.3019 230.634 23.3019 229.857C23.3019 229.244 23.0975 228.61 22.6887 227.956C22.3207 227.261 21.8097 226.566 21.1556 225.871C20.5016 225.135 19.7453 224.399 18.8868 223.664C18.0283 222.928 17.1085 222.192 16.1273 221.456C14.6965 220.352 13.2862 219.228 11.8962 218.083C10.5063 216.939 9.25943 215.753 8.15565 214.527C7.05188 213.3 6.15251 212.033 5.45754 210.725C4.76257 209.376 4.41509 207.965 4.41509 206.494C4.41509 204.245 4.8239 202.344 5.6415 200.791C6.49999 199.197 7.58333 197.909 8.8915 196.928C10.2406 195.947 11.7123 195.231 13.3066 194.782C14.9009 194.332 16.4544 194.107 17.967 194.107C19.1116 194.107 20.2972 194.209 21.5236 194.414C22.7909 194.577 23.9355 194.843 24.9575 195.211C26.0204 195.538 26.8789 195.988 27.533 196.56C28.228 197.091 28.5754 197.725 28.5754 198.461C28.5754 199.033 28.371 199.585 27.9622 200.116C27.5943 200.607 27.4104 201.159 27.4104 201.772ZM55.3213 225.687C55.2396 226.259 55.0352 226.934 54.7081 227.711C54.3811 228.487 53.9518 229.244 53.4204 229.98C52.9298 230.675 52.3371 231.267 51.6421 231.758C50.988 232.248 50.2522 232.494 49.4345 232.494C48.2081 232.494 47.1248 232.024 46.1845 231.083C45.2852 230.143 44.7333 228.815 44.5289 227.098C44.2836 227.752 43.9974 228.508 43.6704 229.366C43.3434 230.225 42.9346 231.022 42.444 231.758C41.9534 232.494 41.3811 233.107 40.727 233.598C40.1138 234.129 39.3779 234.395 38.5195 234.395C38.2742 234.395 38.0902 234.374 37.9676 234.333C37.8449 234.293 37.7019 234.231 37.5383 234.149C37.4157 234.109 37.2522 234.068 37.0478 234.027C36.8842 233.986 36.639 233.965 36.3119 233.965C35.3308 233.965 34.4927 233.638 33.7978 232.984C33.1437 232.371 32.6122 231.574 32.2034 230.593C31.7946 229.612 31.488 228.549 31.2836 227.404C31.1201 226.219 31.0383 225.115 31.0383 224.093C31.0383 221.64 31.161 219.31 31.4063 217.102C31.6924 214.895 32.1421 212.953 32.7553 211.277C33.3685 209.56 34.1657 208.211 35.1468 207.23C36.128 206.208 37.3135 205.697 38.7034 205.697C39.521 205.697 40.1342 205.778 40.543 205.942C40.9927 206.065 41.4015 206.228 41.7695 206.432C42.1374 206.596 42.5257 206.78 42.9346 206.984C43.3842 207.189 43.9974 207.352 44.7742 207.475C45.6327 207.965 46.2254 208.558 46.5525 209.253C46.9204 209.907 47.1452 210.623 47.227 211.399C47.3496 212.176 47.3905 212.994 47.3496 213.852C47.3088 214.67 47.3496 215.487 47.4723 216.305C47.4723 216.346 47.554 216.407 47.7176 216.489C47.922 216.571 48.1468 216.673 48.3921 216.796C48.6374 216.877 48.8418 217.021 49.0053 217.225C49.2097 217.388 49.3119 217.613 49.3119 217.899V218.145C48.9031 219.208 48.6578 220.148 48.5761 220.965C48.4943 221.783 48.4534 222.764 48.4534 223.909C48.4534 224.481 48.4739 225.115 48.5147 225.81C48.5965 226.464 48.6987 227.098 48.8213 227.711C48.9849 228.283 49.2097 228.774 49.4959 229.182C49.782 229.55 50.15 229.734 50.5996 229.734C51.0902 229.734 51.5194 229.489 51.8874 228.998C52.2962 228.508 52.6232 227.956 52.8685 227.343C53.1547 226.689 53.3795 226.035 53.543 225.381C53.7474 224.726 53.8701 224.236 53.911 223.909C53.9927 223.418 54.1971 223.173 54.5242 223.173C54.7286 223.173 54.9125 223.296 55.076 223.541C55.2805 223.745 55.3827 224.134 55.3827 224.706C55.3827 224.87 55.3827 225.033 55.3827 225.197C55.3827 225.319 55.3622 225.483 55.3213 225.687ZM43.977 215.753C43.977 215.304 43.9361 214.772 43.8544 214.159C43.7726 213.546 43.6295 212.973 43.4251 212.442C43.2207 211.91 42.9141 211.461 42.5053 211.093C42.0965 210.725 41.5446 210.541 40.8496 210.541C39.705 210.541 38.7647 211.072 38.0289 212.135C37.3339 213.157 36.782 214.384 36.3732 215.815C35.9644 217.204 35.6987 218.656 35.5761 220.168C35.4534 221.64 35.3921 222.805 35.3921 223.664C35.3921 224.318 35.4125 225.115 35.4534 226.055C35.5352 226.954 35.6578 227.813 35.8213 228.631C35.9849 229.448 36.2097 230.143 36.4959 230.715C36.8229 231.288 37.2317 231.574 37.7223 231.574C38.9078 231.574 39.8072 231.124 40.4204 230.225C41.0745 229.285 41.5651 228.14 41.8921 226.791C42.2191 225.401 42.444 223.929 42.5666 222.376C42.7301 220.782 42.8732 219.33 42.9959 218.022C43.0776 217.327 43.2616 216.898 43.5478 216.734C43.8339 216.53 43.977 216.387 43.977 216.305V215.753ZM62.881 219.003C62.2678 219.862 61.7568 220.822 61.348 221.885C60.9801 222.907 60.653 223.991 60.3669 225.135C60.0807 226.239 59.8354 227.363 59.631 228.508C59.4675 229.612 59.2835 230.675 59.0791 231.697C58.9974 231.942 58.6703 232.105 58.098 232.187C57.5666 232.269 57.1782 232.31 56.9329 232.31C56.1971 232.31 55.5839 232.269 55.0933 232.187C54.6436 232.105 54.2961 231.921 54.0508 231.635C53.8056 231.308 53.6216 230.838 53.499 230.225C53.3763 229.571 53.2741 228.712 53.1923 227.649L53.9895 209.437C53.9895 208.906 54.2757 208.64 54.848 208.64C55.0524 208.64 55.3386 208.681 55.7065 208.763C56.0744 208.804 56.4628 208.885 56.8716 209.008C57.2804 209.131 57.6279 209.294 57.914 209.499C58.2002 209.662 58.3433 209.866 58.3433 210.112V222.56C58.3842 222.519 58.4455 222.355 58.5273 222.069C58.8134 221.333 59.1609 220.434 59.5697 219.371C59.9785 218.267 60.4282 217.225 60.9188 216.244C61.4093 215.263 61.9203 214.425 62.4518 213.73C63.0241 213.035 63.5964 212.687 64.1688 212.687C64.9046 212.687 65.4565 212.871 65.8244 213.239C66.2332 213.566 66.5398 213.995 66.7442 214.527C66.9486 215.058 67.0713 215.631 67.1121 216.244C67.153 216.857 67.1735 217.45 67.1735 218.022C67.1735 218.431 67.1326 219.105 67.0508 220.046C66.9691 220.986 66.9282 222.396 66.9282 224.277C66.9282 225.34 67.0304 226.3 67.2348 227.159C67.4392 228.017 67.848 228.447 68.4612 228.447C68.9109 228.447 69.3197 228.242 69.6876 227.833C70.0555 227.425 70.3826 226.914 70.6687 226.3C70.9958 225.687 71.2615 225.033 71.4659 224.338C71.6703 223.643 71.793 222.989 71.8338 222.376C71.8747 221.599 72.1813 221.211 72.7537 221.211C73.1216 221.211 73.3669 221.333 73.4895 221.579C73.6121 221.824 73.6735 222.11 73.6735 222.437V222.56C73.6326 223.377 73.4691 224.297 73.1829 225.319C72.9376 226.341 72.5493 227.302 72.0178 228.201C71.5272 229.101 70.8732 229.857 70.0555 230.47C69.2379 231.083 68.2364 231.39 67.0508 231.39C65.2112 231.39 64.0257 230.736 63.4942 229.428C63.0037 228.079 62.7584 226.096 62.7584 223.48L62.881 219.003ZM97.2015 221.885C97.1197 222.785 96.9357 223.807 96.6496 224.951C96.4043 226.096 96.0159 227.179 95.4845 228.201C94.9939 229.223 94.3194 230.082 93.4609 230.777C92.6433 231.472 91.6417 231.819 90.4562 231.819C88.6983 231.819 87.4106 231.41 86.593 230.593C85.8162 229.775 85.1622 228.508 84.6307 226.791L84.5694 227.098C84.4059 227.752 84.2015 228.467 83.9562 229.244C83.7518 230.02 83.4452 230.736 83.0364 231.39C82.6684 232.003 82.1983 232.514 81.626 232.923C81.0537 233.373 80.3178 233.598 79.4185 233.598C78.8052 233.598 78.192 233.475 77.5788 233.23C77.0065 233.025 76.3933 232.759 75.7392 232.432C74.799 231.942 74.0631 231.288 73.5317 230.47C73.0002 229.653 72.6119 228.815 72.3666 227.956C72.1213 227.098 71.9782 226.28 71.9373 225.503C71.8964 224.686 71.876 224.052 71.876 223.602V222.56C71.876 222.315 71.9373 221.783 72.06 220.965C72.1826 220.148 72.3666 219.208 72.6119 218.145C72.898 217.041 73.2251 215.896 73.593 214.711C74.0018 213.525 74.4719 212.442 75.0034 211.461C75.5757 210.48 76.2093 209.662 76.9043 209.008C77.6402 208.354 78.4578 208.027 79.3571 208.027C80.3383 208.027 81.2785 208.19 82.1779 208.517C83.1181 208.844 83.7927 209.09 84.2015 209.253C84.2423 208.517 84.2628 207.618 84.2628 206.555C84.3037 205.492 84.3241 204.45 84.3241 203.428C84.365 202.365 84.3854 201.384 84.3854 200.484C84.3854 199.585 84.3854 198.91 84.3854 198.461C84.3854 197.398 84.365 196.499 84.3241 195.763C84.2832 194.986 84.2015 194.332 84.0788 193.8C83.9971 193.269 83.8949 192.84 83.7722 192.513C83.6496 192.186 83.5065 191.899 83.343 191.654C84.0379 191.45 84.7125 191.307 85.3666 191.225C86.0615 191.143 86.6952 191.102 87.2675 191.102C88.2078 191.102 88.9232 191.184 89.4137 191.348C89.9452 191.47 90.2109 191.818 90.2109 192.39C90.2109 192.635 90.1496 193.351 90.0269 194.536C89.9043 195.722 89.7816 197.275 89.659 199.197C89.5364 201.077 89.4137 203.264 89.2911 205.758C89.1684 208.252 89.1071 210.909 89.1071 213.73V219.923C89.1071 221.068 89.1276 222.171 89.1684 223.234C89.2093 224.256 89.2911 225.176 89.4137 225.994C89.5772 226.771 89.8021 227.404 90.0883 227.895C90.3744 228.344 90.7832 228.569 91.3147 228.569C92.5002 228.569 93.3791 227.895 93.9515 226.546C94.5647 225.156 95.0552 222.989 95.4232 220.046C95.464 219.719 95.5458 219.432 95.6684 219.187C95.7911 218.942 96.0568 218.819 96.4656 218.819C96.8335 218.819 97.0584 219.065 97.1401 219.555C97.2628 220.005 97.3037 220.454 97.2628 220.904L97.2015 221.885ZM84.2628 212.994C84.2628 212.871 84.1606 212.728 83.9562 212.565C83.7927 212.401 83.5678 212.237 83.2817 212.074C83.0364 211.91 82.7706 211.767 82.4845 211.645C82.1983 211.522 81.953 211.461 81.7486 211.461C80.931 211.461 80.1952 211.972 79.5411 212.994C78.9279 213.975 78.3964 215.201 77.9468 216.673C77.5379 218.145 77.2313 219.719 77.0269 221.395C76.8225 223.071 76.7203 224.563 76.7203 225.871C76.7203 226.362 76.7408 226.934 76.7817 227.588C76.8225 228.242 76.9247 228.855 77.0883 229.428C77.2518 230 77.4766 230.491 77.7628 230.899C78.049 231.308 78.4373 231.513 78.9279 231.513C79.4593 231.513 79.9499 231.206 80.3996 230.593C80.8493 229.98 81.2581 229.182 81.626 228.201C81.9939 227.22 82.321 226.116 82.6071 224.89C82.9342 223.664 83.1999 222.458 83.4043 221.272C83.6496 220.046 83.8335 218.901 83.9562 217.838C84.0788 216.734 84.1606 215.855 84.2015 215.201L84.2628 212.994ZM126.942 211.89C127.065 212.176 127.126 212.524 127.126 212.932C127.126 213.464 126.942 213.995 126.574 214.527C126.206 215.058 125.716 215.549 125.102 215.998C124.53 216.407 123.876 216.755 123.14 217.041C122.404 217.327 121.648 217.511 120.871 217.593C120.83 218.043 120.749 218.717 120.626 219.616C120.544 220.475 120.381 221.456 120.135 222.56C119.931 223.623 119.645 224.726 119.277 225.871C118.95 226.975 118.521 227.997 117.989 228.937C117.499 229.877 116.906 230.654 116.211 231.267C115.557 231.84 114.78 232.126 113.881 232.126C113.186 232.126 112.491 231.942 111.796 231.574C111.142 231.165 110.508 230.654 109.895 230.041C109.323 229.428 108.812 228.753 108.362 228.017C107.912 227.241 107.565 226.464 107.319 225.687C107.156 226.219 106.931 226.975 106.645 227.956C106.359 228.896 105.97 229.837 105.48 230.777C105.03 231.717 104.458 232.535 103.763 233.23C103.109 233.925 102.312 234.272 101.371 234.272C100.635 234.272 99.7565 234.129 98.7345 233.843C97.7533 233.598 97.0175 233.189 96.5269 232.616C96.2408 232.248 95.9955 231.635 95.7911 230.777C95.5867 229.918 95.4232 229.019 95.3005 228.079C95.1779 227.098 95.0757 226.178 94.9939 225.319C94.953 224.461 94.9326 223.868 94.9326 223.541V220.536C94.9326 220.046 94.9735 219.187 95.0552 217.961C95.137 216.734 95.2188 215.467 95.3005 214.159C95.4232 212.81 95.5254 211.583 95.6071 210.48C95.7298 209.376 95.8115 208.681 95.8524 208.395C95.9342 208.19 96.1181 208.068 96.4043 208.027C96.7313 207.945 96.9766 207.904 97.1401 207.904C97.3445 207.904 97.692 207.945 98.1826 208.027C98.6732 208.068 99.1637 208.149 99.6543 208.272C100.145 208.354 100.574 208.476 100.942 208.64C101.351 208.804 101.555 208.987 101.555 209.192C101.596 209.274 101.514 209.396 101.31 209.56C101.146 209.723 101.024 210.01 100.942 210.418C100.86 210.909 100.758 211.665 100.635 212.687C100.513 213.709 100.39 214.874 100.267 216.182C100.145 217.45 100.043 218.799 99.9609 220.23C99.8791 221.66 99.8382 223.03 99.8382 224.338C99.8382 226.178 99.9404 227.731 100.145 228.998C100.39 230.225 100.84 230.838 101.494 230.838C101.821 230.838 102.148 230.491 102.475 229.796C102.843 229.06 103.19 228.222 103.517 227.282C103.845 226.3 104.11 225.34 104.315 224.399C104.56 223.459 104.723 222.785 104.805 222.376C104.887 221.844 105.03 220.965 105.234 219.739C105.439 218.472 105.541 217.061 105.541 215.508C105.541 214.936 105.541 214.506 105.541 214.22C105.541 213.934 105.521 213.709 105.48 213.546C105.48 213.382 105.48 213.26 105.48 213.178C105.48 213.096 105.48 212.973 105.48 212.81C105.48 212.36 105.602 212.094 105.848 212.013C106.093 211.931 106.4 211.89 106.767 211.89C107.176 211.89 107.626 211.931 108.117 212.013C108.648 212.094 109.139 212.197 109.588 212.319C110.038 212.442 110.426 212.565 110.753 212.687C111.121 212.81 111.326 212.912 111.367 212.994V217.899C111.367 218.431 111.387 219.33 111.428 220.598C111.469 221.824 111.571 223.071 111.734 224.338C111.898 225.605 112.143 226.73 112.47 227.711C112.797 228.651 113.227 229.121 113.758 229.121C114.126 229.121 114.453 228.855 114.739 228.324C115.066 227.752 115.352 227.057 115.598 226.239C115.884 225.381 116.109 224.461 116.272 223.48C116.477 222.458 116.64 221.517 116.763 220.659C116.926 219.8 117.028 219.085 117.069 218.513C117.151 217.899 117.192 217.572 117.192 217.532C117.192 217.327 117.069 217.143 116.824 216.98C116.579 216.816 116.293 216.591 115.966 216.305C115.679 216.019 115.414 215.631 115.168 215.14C114.923 214.649 114.8 213.975 114.8 213.116C114.8 212.544 114.862 211.91 114.984 211.215C115.148 210.48 115.332 209.805 115.536 209.192C115.782 208.579 116.047 208.068 116.334 207.659C116.661 207.209 117.008 206.984 117.376 206.984C117.867 206.984 118.337 207.046 118.786 207.168C119.236 207.291 119.624 207.536 119.951 207.904C120.319 208.272 120.585 208.783 120.749 209.437C120.953 210.05 121.055 210.848 121.055 211.829V214.343C121.995 214.343 122.936 214.138 123.876 213.73C124.816 213.28 125.716 212.565 126.574 211.583C126.738 211.583 126.86 211.686 126.942 211.89ZM133.931 203.98C133.931 204.266 133.788 204.511 133.502 204.715C133.216 204.879 132.889 205.002 132.521 205.083C132.194 205.165 131.867 205.226 131.54 205.267C131.213 205.308 131.008 205.329 130.926 205.329C130.068 205.329 129.209 205.083 128.351 204.593C127.533 204.102 126.777 203.326 126.082 202.263C126 202.14 125.878 201.976 125.714 201.772C125.551 201.568 125.469 201.425 125.469 201.343C125.469 201.138 125.612 200.954 125.898 200.791C126.225 200.627 126.573 200.464 126.941 200.3C127.349 200.137 127.717 200.014 128.044 199.932C128.412 199.851 128.658 199.81 128.78 199.81C129.598 199.81 130.395 200.014 131.172 200.423C131.989 200.832 132.643 201.588 133.134 202.692C133.216 202.815 133.359 203.039 133.563 203.366C133.808 203.653 133.931 203.857 133.931 203.98ZM140.186 222.56C140.063 223.541 139.838 224.563 139.511 225.626C139.184 226.689 138.714 227.69 138.101 228.631C137.529 229.53 136.793 230.286 135.893 230.899C134.994 231.472 133.89 231.758 132.582 231.758C131.56 231.758 130.518 231.41 129.455 230.715C128.392 229.98 127.656 229.019 127.247 227.833C126.879 226.648 126.695 225.503 126.695 224.399C126.695 224.072 126.716 223.582 126.757 222.928C126.797 222.274 126.818 221.476 126.818 220.536V213.791C126.818 213.464 126.797 213.116 126.757 212.748C126.757 212.381 126.716 212.033 126.634 211.706C126.593 211.543 126.511 211.359 126.389 211.154C126.307 210.95 126.266 210.807 126.266 210.725C126.266 210.561 126.368 210.439 126.573 210.357C126.777 210.234 127.002 210.153 127.247 210.112C127.492 210.071 127.717 210.05 127.922 210.05C128.167 210.05 128.29 210.05 128.29 210.05C128.412 210.05 128.698 210.071 129.148 210.112C129.598 210.112 130.068 210.173 130.558 210.296C131.049 210.418 131.478 210.623 131.846 210.909C132.255 211.154 132.459 211.522 132.459 212.013C132.5 212.135 132.419 212.36 132.214 212.687C132.051 213.014 131.887 213.587 131.724 214.404C131.683 214.731 131.642 215.038 131.601 215.324C131.56 215.569 131.519 215.855 131.478 216.182C131.437 216.51 131.397 216.918 131.356 217.409C131.315 217.859 131.274 218.451 131.233 219.187V222.866C131.233 223.521 131.253 224.195 131.294 224.89C131.335 225.544 131.417 226.157 131.54 226.73C131.703 227.261 131.948 227.711 132.275 228.079C132.602 228.406 133.032 228.569 133.563 228.569C134.34 228.569 134.953 228.344 135.403 227.895C135.852 227.445 136.2 227.057 136.445 226.73C136.895 226.116 137.242 225.36 137.488 224.461C137.733 223.521 137.958 222.56 138.162 221.579L138.285 220.965C138.408 220.352 138.775 220.046 139.389 220.046C140.002 220.046 140.308 220.475 140.308 221.333V221.64L140.186 222.56ZM156.626 226.852C155.645 229.182 154.378 230.879 152.824 231.942C151.312 232.964 149.513 233.475 147.428 233.475C147.223 233.475 147.019 233.475 146.815 233.475C146.651 233.475 146.467 233.454 146.263 233.414C145.241 233.291 144.26 232.964 143.319 232.432C142.379 231.942 141.562 231.247 140.867 230.348C140.172 229.407 139.62 228.283 139.211 226.975C138.802 225.626 138.598 224.093 138.598 222.376C138.598 220.741 138.802 219.024 139.211 217.225C139.661 215.426 140.54 213.791 141.848 212.319C142.992 211.011 144.321 209.969 145.834 209.192C147.387 208.415 148.961 208.027 150.555 208.027C151.332 208.027 152.027 208.149 152.64 208.395C153.294 208.599 153.662 208.865 153.744 209.192C153.826 209.642 153.867 210.214 153.867 210.909C153.907 211.563 153.928 212.442 153.928 213.546C153.928 214.486 153.846 215.181 153.683 215.631C153.56 216.08 153.274 216.305 152.824 216.305C152.334 216.264 151.986 216.019 151.782 215.569C151.577 215.079 151.373 214.568 151.168 214.036C150.964 213.464 150.698 212.953 150.371 212.503C150.044 212.013 149.513 211.747 148.777 211.706C147.714 211.706 146.835 212.115 146.14 212.932C145.445 213.75 144.893 214.711 144.484 215.815C144.117 216.918 143.851 218.022 143.687 219.126C143.565 220.23 143.503 221.088 143.503 221.701C143.503 224.072 143.851 226.116 144.546 227.833C145.282 229.509 146.569 230.429 148.409 230.593L149.084 230.654C150.351 230.654 151.373 230.348 152.15 229.734C152.926 229.08 153.54 228.385 153.989 227.649C154.48 226.873 154.848 226.178 155.093 225.565C155.379 224.91 155.665 224.583 155.951 224.583H156.135C156.667 224.624 156.933 224.972 156.933 225.626C156.933 225.912 156.83 226.321 156.626 226.852ZM180.894 223.664C180.853 224.236 180.669 225.054 180.342 226.116C180.056 227.138 179.606 228.16 178.993 229.182C178.421 230.164 177.665 231.043 176.724 231.819C175.825 232.555 174.721 232.923 173.413 232.923C172.146 232.923 171.124 232.555 170.347 231.819C169.611 231.083 169.039 230.082 168.63 228.815C168.262 227.506 168.017 225.953 167.894 224.154C167.812 222.355 167.772 220.393 167.772 218.267C167.772 217.899 167.772 217.45 167.772 216.918C167.772 216.346 167.792 215.855 167.833 215.447C167.342 216.346 166.852 217.491 166.361 218.881C165.871 220.23 165.421 221.681 165.012 223.234C164.644 224.788 164.338 226.382 164.092 228.017C163.847 229.612 163.704 231.124 163.663 232.555C163.254 232.637 162.805 232.739 162.314 232.862C161.864 232.984 161.333 233.046 160.72 233.046C160.474 233.046 160.188 233.025 159.861 232.984C159.534 232.943 159.207 232.862 158.88 232.739C158.553 232.616 158.267 232.453 158.022 232.248C157.817 232.003 157.715 231.697 157.715 231.329C157.715 231.247 157.776 231.063 157.899 230.777C158.062 230.491 158.144 229.918 158.144 229.06V193.8C158.144 193.228 158.062 192.84 157.899 192.635C157.776 192.431 157.715 192.186 157.715 191.899C157.715 191.736 157.858 191.613 158.144 191.532C158.43 191.409 158.757 191.327 159.125 191.286C159.493 191.204 159.861 191.164 160.229 191.164C160.638 191.123 160.965 191.102 161.21 191.102C162.273 191.102 163.356 191.327 164.46 191.777C164.256 192.881 164.051 194.352 163.847 196.192C163.683 197.991 163.52 199.871 163.356 201.833C163.193 203.755 163.07 205.615 162.988 207.414C162.907 209.171 162.866 210.541 162.866 211.522C162.866 211.645 162.866 211.808 162.866 212.013C162.866 212.176 162.845 212.646 162.805 213.423C162.805 214.159 162.784 215.324 162.743 216.918C162.743 218.513 162.723 220.761 162.682 223.664C162.682 223.623 162.764 223.234 162.927 222.498C163.132 221.763 163.377 220.843 163.663 219.739C163.949 218.635 164.276 217.45 164.644 216.182C165.053 214.915 165.462 213.75 165.871 212.687C166.32 211.583 166.77 210.684 167.22 209.989C167.669 209.253 168.099 208.885 168.507 208.885C168.957 208.885 169.57 208.987 170.347 209.192C171.165 209.355 171.676 209.662 171.88 210.112C172.044 210.602 172.207 210.95 172.371 211.154C172.575 211.359 172.738 211.522 172.861 211.645C173.025 211.767 173.147 211.89 173.229 212.013C173.352 212.135 173.413 212.319 173.413 212.565C173.372 212.687 173.27 213.096 173.106 213.791C172.984 214.486 172.841 215.365 172.677 216.428C172.555 217.45 172.432 218.594 172.309 219.862C172.187 221.088 172.125 222.315 172.125 223.541C172.125 225.176 172.268 226.587 172.555 227.772C172.841 228.958 173.393 229.55 174.21 229.55C175.028 229.55 175.702 229.305 176.234 228.815C176.765 228.324 177.194 227.711 177.522 226.975C177.889 226.239 178.155 225.462 178.319 224.645C178.523 223.786 178.687 223.03 178.809 222.376C179.014 221.517 179.32 221.088 179.729 221.088C180.179 221.088 180.485 221.252 180.649 221.579C180.853 221.906 180.955 222.335 180.955 222.866L180.894 223.664Z" fill="black"/>
    <path d="M191.503 227.997V232.371H187.007V227.997H191.503ZM226.575 209.928L220.116 232.371H216.109L209.936 214.098L203.723 232.371H199.675L193.298 209.928H197.059L201.842 228.815L208.056 209.928H211.94L218.194 228.774L223.018 209.928H226.575ZM240.755 229.101V232.371H237.975C235.686 232.371 233.969 231.826 232.824 230.736C231.707 229.646 231.148 227.82 231.148 225.258V213.157H227.796V209.928H231.148V204.327H234.909V209.928H240.714V213.157H234.909V225.34C234.909 226.784 235.168 227.779 235.686 228.324C236.231 228.842 237.157 229.101 238.465 229.101H240.755ZM255.228 204.613C253.239 204.586 251.849 204.927 251.059 205.635C250.295 206.344 249.914 207.57 249.914 209.315V209.928H255.228V213.198H249.914V232.371H246.194V213.198H242.964V209.928H246.194V209.028C246.194 203.659 249.205 201.098 255.228 201.343V204.613Z" fill="#FFBF00"/>
</svg>
