<svg width="24" height="24" viewBox="0 0 24 24" fill="none" xmlns="http://www.w3.org/2000/svg">
    <path d="M20.4245 13.045C19.7468 13.225 19.0487 13.3161 18.3475 13.316C16.2125 13.316 14.2075 12.486 12.7015 10.98C11.7125 9.98536 11.0016 8.74887 10.6394 7.39381C10.2773 6.03874 10.2766 4.61242 10.6375 3.25701C10.6826 3.08755 10.6823 2.90921 10.6367 2.73988C10.5911 2.57056 10.5017 2.41621 10.3776 2.29232C10.2535 2.16842 10.099 2.07934 9.92963 2.034C9.76023 1.98866 9.58189 1.98867 9.4125 2.03401C7.71566 2.4862 6.16756 3.37664 4.9235 4.61601C1.0255 8.51401 1.0255 14.859 4.9235 18.759C5.85003 19.6907 6.95214 20.4294 8.16604 20.9323C9.37994 21.4353 10.6815 21.6924 11.9955 21.689C13.3091 21.6927 14.6104 21.4357 15.824 20.9329C17.0376 20.4302 18.1394 19.6916 19.0655 18.76C20.3058 17.5157 21.1967 15.9668 21.6485 14.269C21.6934 14.0996 21.693 13.9214 21.6474 13.7522C21.6018 13.583 21.5126 13.4287 21.3887 13.3048C21.2648 13.1809 21.1105 13.0917 20.9413 13.0461C20.7721 13.0005 20.5939 13.0001 20.4245 13.045ZM17.6525 17.346C16.9115 18.0911 16.03 18.6818 15.0592 19.084C14.0883 19.4862 13.0474 19.6918 11.9965 19.689C10.9453 19.6916 9.904 19.4858 8.93283 19.0835C7.96166 18.6811 7.07988 18.0903 6.3385 17.345C3.2205 14.226 3.2205 9.15001 6.3385 6.03101C6.94101 5.42918 7.6366 4.92843 8.3985 4.54801C8.28698 5.98707 8.48745 7.43325 8.98623 8.7877C9.485 10.1422 10.2703 11.373 11.2885 12.396C12.3093 13.4174 13.5397 14.2049 14.8948 14.704C16.2498 15.2032 17.6971 15.4021 19.1365 15.287C18.754 16.0476 18.2531 16.7426 17.6525 17.346Z" fill="#FFBF00"/>
</svg>
