<svg width="116" height="122" viewBox="0 0 116 122" fill="none" xmlns="http://www.w3.org/2000/svg">
    <circle opacity="0.23" cx="58" cy="64" r="45" fill="#FFBF00"/>
    <circle cx="58" cy="64" r="35" fill="#FFBF00"/>
    <circle opacity="0.1" cx="58" cy="64" r="56.5" stroke="#FFBF00" stroke-width="3"/>
    <g clip-path="url(#clip0)">
        <path d="M67.9877 41.2234C77.1943 45.0498 83.653 54.0134 83.653 64.46C83.653 78.3887 72.1701 89.676 58 89.676C43.8298 89.676 32.3469 78.3887 32.3469 64.46C32.3469 53.9274 38.9201 44.8976 48.2546 41.1241V38.5423V23.3954H67.7453V38.0126L67.9877 41.2234Z" fill="#FCFCFC"/>
        <path d="M58 91C43.116 91 31 79.097 31 64.46C31 53.9472 37.2163 44.5467 46.9077 40.2568V22.0714H69.0923V37.9597L69.2741 40.3363C78.8578 44.6658 85.0067 54.0465 85.0067 64.46C85 79.097 72.8907 91 58 91ZM49.6016 24.7195V42.0178L48.7665 42.3554C39.6139 46.0494 33.6939 54.7284 33.6939 64.46C33.6939 77.634 44.5977 88.3519 58 88.3519C71.4023 88.3519 82.3061 77.634 82.3061 64.46C82.3061 54.8343 76.4804 46.1951 67.4625 42.4415L66.7082 42.1237L66.3984 38.006V24.7195H49.6016Z" fill="#190134"/>
        <path d="M72.3923 24.7195H43.6076C42.8668 24.7195 42.2606 24.1236 42.2606 23.3954C42.2606 22.6672 42.8668 22.0714 43.6076 22.0714H72.3923C73.1332 22.0714 73.7393 22.6672 73.7393 23.3954C73.7393 24.1236 73.1399 24.7195 72.3923 24.7195Z" fill="#190134"/>
        <path d="M53.3057 19.3109C55.7011 19.3109 57.643 17.4021 57.643 15.0475C57.643 12.6929 55.7011 10.7842 53.3057 10.7842C50.9104 10.7842 48.9685 12.6929 48.9685 15.0475C48.9685 17.4021 50.9104 19.3109 53.3057 19.3109Z" fill="#FCFCFC"/>
        <path d="M53.3058 20.6349C50.1674 20.6349 47.6216 18.1259 47.6216 15.0475C47.6216 11.9692 50.1741 9.46014 53.3058 9.46014C56.4375 9.46014 58.99 11.9692 58.99 15.0475C58.99 18.1259 56.4375 20.6349 53.3058 20.6349ZM53.3058 12.1082C51.6558 12.1082 50.3155 13.4256 50.3155 15.0475C50.3155 16.6694 51.6558 17.9868 53.3058 17.9868C54.9558 17.9868 56.2961 16.6694 56.2961 15.0475C56.2961 13.4256 54.9558 12.1082 53.3058 12.1082Z" fill="#190134"/>
        <path d="M59.9734 2.38325C58.5388 3.79333 58.5388 6.07727 59.9734 7.48735C61.4079 8.89743 63.7314 8.89743 65.1659 7.48735C66.6004 6.07727 66.6004 3.79333 65.1659 2.38325C63.7314 0.973163 61.4079 0.973163 59.9734 2.38325Z" fill="#FCFCFC"/>
        <path d="M62.5663 9.86396C61.2799 9.86396 59.9936 9.38069 59.017 8.42078C58.0674 7.48734 57.5488 6.24938 57.5488 4.93198C57.5488 3.61458 58.0741 2.37662 59.017 1.44318C59.9666 0.516368 61.2261 0 62.5663 0C63.9065 0 65.1659 0.516368 66.1156 1.44318C68.0754 3.36301 68.0754 6.49433 66.1156 8.42078C65.139 9.38069 63.8526 9.86396 62.5663 9.86396ZM62.5663 2.64804C61.9467 2.64804 61.3608 2.88637 60.923 3.31667C60.4852 3.74698 60.2428 4.32293 60.2428 4.93198C60.2428 5.54103 60.4852 6.11698 60.923 6.54729C61.8255 7.43438 63.3004 7.43438 64.2096 6.54729C65.1188 5.66019 65.1121 4.21039 64.2096 3.31667C63.7718 2.88637 63.1859 2.64804 62.5663 2.64804Z" fill="#190134"/>
        <path d="M40.6039 71.0006H74.6823C75.5915 71.0006 76.3121 71.7619 76.2448 72.6556C75.4164 83.976 65.8731 83.976 57.6364 83.976C49.4199 83.976 39.9103 83.3471 39.0347 72.6556C38.9674 71.7685 39.6947 71.0006 40.6039 71.0006Z" fill="#FFBF00"/>
        <path d="M57.6431 85.3001C51.0295 85.3001 38.7249 85.3001 37.7012 72.7616C37.6339 71.9672 37.9167 71.1794 38.4622 70.5968C39.0145 70.0076 39.7957 69.67 40.6039 69.67H74.6822C75.4904 69.67 76.2649 70.001 76.8172 70.5836C77.3694 71.1661 77.6523 71.9539 77.5917 72.7417C76.669 85.3 65.671 85.3001 57.6431 85.3001ZM40.6039 72.3246C40.5231 72.3246 40.4692 72.3644 40.4423 72.3975C40.4153 72.4306 40.3817 72.4835 40.3884 72.5563C41.1562 81.8841 48.9888 82.6586 57.6498 82.6586C65.772 82.6586 74.1771 82.6586 74.918 72.563C74.9247 72.4835 74.891 72.4306 74.8573 72.3975C74.8304 72.3644 74.7765 72.3246 74.6957 72.3246H40.6039Z" fill="#190134"/>
        <path d="M75.2681 56.251H40.0179C39.5128 56.251 39.1626 55.7413 39.3579 55.2779C42.3347 48.2274 49.3996 43.269 57.6498 43.269C65.8999 43.269 72.9648 48.2274 75.9349 55.2779C76.1302 55.7413 75.78 56.251 75.2681 56.251Z" fill="#FFBF00"/>
        <path d="M75.2682 57.5751H40.018C39.3243 57.5751 38.6845 57.2374 38.3006 56.6747C37.9167 56.112 37.8493 55.4037 38.112 54.7747C41.3986 46.9829 49.0629 41.9516 57.6431 41.9516C66.2232 41.9516 73.8875 46.9829 77.1741 54.7747C77.4368 55.397 77.3694 56.112 76.9855 56.6747C76.6016 57.2374 75.9618 57.5751 75.2682 57.5751ZM40.9878 54.927H74.2983C71.2474 48.618 64.8089 44.5996 57.6431 44.5996C50.4772 44.5996 44.0454 48.6247 40.9878 54.927Z" fill="#190134"/>
        <path d="M44.7861 51.7295C44.5302 51.7295 44.281 51.6368 44.0857 51.4515C43.6816 51.0675 43.6749 50.4386 44.0588 50.048C47.1568 46.8968 51.1034 44.838 55.4811 44.1032C56.0333 44.0105 56.5519 44.3746 56.6462 44.9108C56.7405 45.4537 56.3701 45.9634 55.8245 46.0561C51.8779 46.7181 48.3152 48.5784 45.5135 51.425C45.3182 51.6302 45.0555 51.7295 44.7861 51.7295Z" fill="#FCFCFC"/>
        <path d="M53.0296 48.9689C52.7131 49.2933 52.1877 49.3132 51.8577 49.002C51.5277 48.6909 51.5075 48.1745 51.8241 47.8501C52.1406 47.5257 53.5347 46.6055 53.8647 46.9167C54.2015 47.2212 53.3461 48.6445 53.0296 48.9689Z" fill="#190134"/>
        <path d="M44.7997 53.8148C44.4226 54.073 43.904 53.9803 43.6413 53.6096C43.3786 53.2389 43.4729 52.7291 43.8501 52.4709C44.2272 52.2127 45.783 51.5971 46.0456 51.9612C46.3083 52.3385 45.1769 53.5566 44.7997 53.8148Z" fill="#190134"/>
        <path d="M56.781 52.8615C56.7204 53.3051 56.3028 53.6229 55.8516 53.5633C55.4003 53.5037 55.0771 53.0932 55.1377 52.6497C55.1983 52.2061 55.7775 50.657 56.2355 50.71C56.6867 50.7762 56.8416 52.418 56.781 52.8615Z" fill="#190134"/>
        <path d="M63.5158 47.4264C63.8324 47.7574 63.8122 48.2738 63.4822 48.5783C63.1454 48.8895 62.6201 48.8696 62.3103 48.5452C61.9938 48.2142 61.1452 46.7975 61.4752 46.4864C61.8052 46.1818 63.1993 47.102 63.5158 47.4264Z" fill="#190134"/>
        <path d="M65.9337 53.0337C66.2772 53.3382 66.2974 53.8546 65.9943 54.1856C65.6845 54.5232 65.1592 54.543 64.8224 54.2451C64.4789 53.9406 63.5159 52.5901 63.8257 52.2591C64.1287 51.9215 65.5969 52.7291 65.9337 53.0337Z" fill="#190134"/>
        <path d="M70.2238 49.909C70.4931 50.2731 70.4123 50.7828 70.0486 51.0476C69.6782 51.3124 69.1596 51.233 68.8902 50.8755C68.6209 50.5114 67.9474 48.9954 68.3178 48.7306C68.6815 48.4592 69.9476 49.5448 70.2238 49.909Z" fill="#190134"/>
        <path d="M43.0958 53.5566C43.4641 53.5566 43.7626 53.2632 43.7626 52.9012C43.7626 52.5393 43.4641 52.2458 43.0958 52.2458C42.7276 52.2458 42.4291 52.5393 42.4291 52.9012C42.4291 53.2632 42.7276 53.5566 43.0958 53.5566Z" fill="#FCFCFC"/>
        <path d="M75.8271 62.9572H39.4589C38.3544 62.9572 37.5327 61.9576 37.7685 60.8984C37.9436 60.1172 38.644 59.5611 39.4589 59.5611H75.8271C76.9585 59.5611 77.7869 60.6137 77.4973 61.6928C77.2953 62.4342 76.6083 62.9572 75.8271 62.9572Z" fill="#FFBF00"/>
        <path d="M75.8271 64.2812H39.4589C38.5228 64.2812 37.6473 63.8708 37.0613 63.1558C36.4754 62.4408 36.2532 61.514 36.4552 60.6137C36.7583 59.2367 38.0244 58.2371 39.4589 58.2371H75.8271C76.7902 58.2371 77.6725 58.6674 78.2651 59.4154C78.8511 60.1635 79.0464 61.1168 78.8039 62.0304C78.447 63.3544 77.2212 64.2812 75.8271 64.2812ZM39.4589 60.8851C39.2838 60.8851 39.1222 61.0109 39.0885 61.1764C39.0549 61.3287 39.1222 61.4412 39.1626 61.4942C39.203 61.5471 39.2973 61.6332 39.4589 61.6332H75.8271C76.0022 61.6332 76.1504 61.5206 76.1975 61.3551C76.2379 61.2029 76.1706 61.0837 76.1302 61.0307C76.0898 60.9778 75.9955 60.8851 75.8271 60.8851H39.4589Z" fill="#190134"/>
        <path d="M70.9174 70.0341C68.7151 70.0341 67.577 68.9683 66.6677 68.1077C65.9067 67.3861 65.4016 66.916 64.2769 66.916C63.1589 66.916 62.6538 67.3927 61.8927 68.1077C60.9768 68.9683 59.8453 70.0341 57.6431 70.0341C55.4408 70.0341 54.3093 68.9683 53.3934 68.1077C52.6323 67.3927 52.1272 66.916 51.0092 66.916C49.8912 66.916 49.3861 67.3927 48.6251 68.1077C47.7092 68.9683 46.5777 70.0341 44.3754 70.0341C42.1731 70.0341 41.0417 68.9683 40.1257 68.1077C39.3849 67.4059 38.9202 67.0087 38.0581 66.9293C37.3173 66.8631 36.7718 66.2143 36.8458 65.4861C36.9132 64.7579 37.5665 64.2283 38.314 64.2945C40.1459 64.4666 41.1696 65.4265 41.9913 66.1945C42.7523 66.916 43.2574 67.3861 44.3754 67.3861C45.4934 67.3861 45.9985 66.9094 46.7595 66.1945C47.6755 65.3338 48.8069 64.268 51.0092 64.268C53.2115 64.268 54.343 65.3338 55.2589 66.1945C56.02 66.916 56.5251 67.3861 57.6431 67.3861C58.761 67.3861 59.2662 66.9094 60.0339 66.1945C60.9499 65.3338 62.0813 64.268 64.2836 64.268C66.4859 64.268 67.6241 65.3338 68.5333 66.1945C69.2943 66.916 69.7994 67.3861 70.9242 67.3861C72.0422 67.3861 72.5473 66.9094 73.3083 66.1945C74.13 65.4199 75.1469 64.46 76.9855 64.2945C77.7264 64.2217 78.3864 64.7579 78.4537 65.4861C78.5211 66.2143 77.9823 66.8631 77.2415 66.9293C76.3794 67.0087 75.9214 67.4059 75.1739 68.1077C74.2512 68.9617 73.1197 70.0341 70.9174 70.0341Z" fill="#190134"/>
    </g>
    <defs>
        <clipPath id="clip0">
            <rect width="54" height="91" fill="white" transform="translate(31)"/>
        </clipPath>
    </defs>
</svg>
