<svg width="12" height="12" viewBox="0 0 12 12" fill="none" xmlns="http://www.w3.org/2000/svg">
    <path d="M12 6C12 2.69161 9.30839 0 6 0C2.69161 0 0 2.69161 0 6C0 9.30814 2.69161 12 6 12C9.30863 12 12 9.30863 12 6ZM6.58922 5.99082C6.58922 6.30549 6.33425 6.55998 6.02006 6.55998C5.70563 6.55998 5.45066 6.305 5.45066 5.99082V3.02949C5.45066 2.71506 5.70563 2.46008 6.02006 2.46008C6.33449 2.46008 6.58922 2.71482 6.58922 3.02949V5.99082ZM9.87441 6.00991C9.87441 8.14614 8.13647 9.88383 6 9.88383C3.86353 9.88383 2.12559 8.14614 2.12559 6.00991C2.12559 4.9743 2.52896 4.00081 3.26174 3.26923C3.37292 3.15806 3.51841 3.10272 3.66414 3.10272C3.80988 3.10272 3.95585 3.1583 4.06703 3.26972C4.28937 3.49231 4.28913 3.85265 4.06654 4.075C3.54959 4.59172 3.26464 5.27882 3.26464 6.00991C3.26464 7.51801 4.49166 8.74454 6 8.74454C7.50834 8.74454 8.73512 7.51801 8.73512 6.00991C8.73512 5.2793 8.4509 4.59244 7.93442 4.07573C7.71208 3.85314 7.71232 3.49279 7.93467 3.2702C8.15726 3.04761 8.5176 3.04809 8.74019 3.27044C9.47128 4.00226 9.87441 4.97527 9.87441 6.00991Z" fill="#FCFCFC"/>
</svg>
