<svg width="74" height="89" viewBox="0 0 74 89" fill="none" xmlns="http://www.w3.org/2000/svg">
    <path d="M12.1638 32.5818C12.1638 33.2279 11.6444 33.7472 10.9984 33.7472C10.3524 33.7472 9.83301 33.2279 9.83301 32.5818C9.83301 31.9358 10.3524 31.4165 10.9984 31.4165C11.6444 31.4165 12.1638 31.9358 12.1638 32.5818Z" fill="#FCFCFC"/>
    <path d="M64.4535 28.4123H9.22494C6.79286 28.4123 4.63945 27.1456 3.46141 25.0049C2.28337 22.8768 2.35937 20.3814 3.65141 18.3293C10.8843 6.85291 23.2854 0 36.8392 0C50.3931 0 62.7942 6.85291 70.0271 18.3293C71.3191 20.3814 71.3951 22.8768 70.2171 25.0049C69.039 27.1329 66.8856 28.4123 64.4535 28.4123ZM36.8392 3.39479C24.4635 3.39479 13.1264 9.65234 6.52685 20.1407C5.90616 21.1287 5.86816 22.3448 6.43818 23.3708C7.0082 24.3969 8.0469 25.0175 9.22494 25.0175H64.4662C65.6443 25.0175 66.683 24.3969 67.253 23.3708C67.823 22.3448 67.785 21.1414 67.1643 20.1407C60.5521 9.65234 49.215 3.39479 36.8392 3.39479Z" fill="#190134"/>
    <path d="M13.9632 16.5559C13.6465 16.5559 13.3299 16.4419 13.0765 16.2012C12.5698 15.7072 12.5572 14.9092 13.0385 14.4025C18.384 8.87964 25.1863 5.26951 32.7232 3.97747C33.4199 3.86346 34.0786 4.31948 34.1926 5.01617C34.3066 5.71286 33.8506 6.37155 33.1539 6.48555C26.1616 7.68893 19.8408 11.033 14.8753 16.1759C14.6346 16.4166 14.3052 16.5559 13.9632 16.5559Z" fill="#FCFCFC"/>
    <path d="M68.5958 32.7318H5.08295C3.15755 32.7318 1.72617 30.9457 2.13151 29.071C2.43553 27.6903 3.66423 26.7023 5.08295 26.7023H68.6085C70.5846 26.7023 72.0286 28.577 71.5219 30.4897C71.1673 31.8071 69.9766 32.7318 68.5958 32.7318Z" fill="#FFBF00"/>
    <path d="M35.88 54.04C35.88 55.5333 35.48 56.9067 34.68 58.16C33.88 59.4133 32.6934 60.4133 31.12 61.16C29.5467 61.9067 27.6534 62.28 25.44 62.28V65.48H23.72V62.2C20.8134 61.96 18.44 61.08 16.6 59.56C14.7867 58.04 13.7867 56.0133 13.6 53.48H20.88C20.96 54.3333 21.24 55.0533 21.72 55.64C22.2267 56.2267 22.8934 56.6267 23.72 56.84V50.48C23.2667 50.3467 22.9734 50.2533 22.84 50.2C20.8934 49.64 19.2934 49.08 18.04 48.52C16.8134 47.9333 15.7467 47.08 14.84 45.96C13.96 44.8133 13.52 43.3067 13.52 41.44C13.52 39.8133 13.96 38.3867 14.84 37.16C15.7467 35.9333 16.9734 35 18.52 34.36C20.0667 33.6933 21.8 33.3333 23.72 33.28V30H25.44V33.32C28.3734 33.5067 30.7067 34.3467 32.44 35.84C34.1734 37.3067 35.1467 39.2533 35.36 41.68H27.96C27.8534 40.88 27.5867 40.2267 27.16 39.72C26.7334 39.2133 26.16 38.8667 25.44 38.68V44.92L26.68 45.32C28.6267 45.9333 30.2 46.5333 31.4 47.12C32.6267 47.68 33.68 48.52 34.56 49.64C35.44 50.76 35.88 52.2267 35.88 54.04ZM20.84 41.16C20.84 41.88 21.08 42.4933 21.56 43C22.0667 43.48 22.7867 43.92 23.72 44.32V38.52C22.8134 38.5733 22.1067 38.8267 21.6 39.28C21.0934 39.7333 20.84 40.36 20.84 41.16ZM25.44 57.04C26.4 57.0133 27.16 56.7467 27.72 56.24C28.28 55.7067 28.56 55.0267 28.56 54.2C28.56 53.4533 28.2934 52.84 27.76 52.36C27.2267 51.8533 26.4534 51.4133 25.44 51.04V57.04Z" fill="#FFBF00"/>
    <path d="M60.88 54.04C60.88 55.5333 60.48 56.9067 59.68 58.16C58.88 59.4133 57.6934 60.4133 56.12 61.16C54.5467 61.9067 52.6534 62.28 50.44 62.28V65.48H48.72V62.2C45.8134 61.96 43.44 61.08 41.6 59.56C39.7867 58.04 38.7867 56.0133 38.6 53.48H45.88C45.96 54.3333 46.24 55.0533 46.72 55.64C47.2267 56.2267 47.8934 56.6267 48.72 56.84V50.48C48.2667 50.3467 47.9734 50.2533 47.84 50.2C45.8934 49.64 44.2934 49.08 43.04 48.52C41.8134 47.9333 40.7467 47.08 39.84 45.96C38.96 44.8133 38.52 43.3067 38.52 41.44C38.52 39.8133 38.96 38.3867 39.84 37.16C40.7467 35.9333 41.9734 35 43.52 34.36C45.0667 33.6933 46.8 33.3333 48.72 33.28V30H50.44V33.32C53.3734 33.5067 55.7067 34.3467 57.44 35.84C59.1734 37.3067 60.1467 39.2533 60.36 41.68H52.96C52.8534 40.88 52.5867 40.2267 52.16 39.72C51.7334 39.2133 51.16 38.8667 50.44 38.68V44.92L51.68 45.32C53.6267 45.9333 55.2 46.5333 56.4 47.12C57.6267 47.68 58.68 48.52 59.56 49.64C60.44 50.76 60.88 52.2267 60.88 54.04ZM45.84 41.16C45.84 41.88 46.08 42.4933 46.56 43C47.0667 43.48 47.7867 43.92 48.72 44.32V38.52C47.8134 38.5733 47.1067 38.8267 46.6 39.28C46.0934 39.7333 45.84 40.36 45.84 41.16ZM50.44 57.04C51.4 57.0133 52.16 56.7467 52.72 56.24C53.28 55.7067 53.56 55.0267 53.56 54.2C53.56 53.4533 53.2934 52.84 52.76 52.36C52.2267 51.8533 51.4534 51.4133 50.44 51.04V57.04Z" fill="#FFBF00"/>
    <path d="M68.596 34.4292H5.08308C3.6517 34.4292 2.30898 33.7832 1.40962 32.6685C0.51025 31.5538 0.168241 30.1097 0.472252 28.7037C0.940935 26.5502 2.879 24.9922 5.08308 24.9922H68.6086C70.078 24.9922 71.4461 25.6636 72.3454 26.8289C73.2448 27.9943 73.5488 29.4764 73.1688 30.9077C72.6241 32.9725 70.7367 34.4292 68.596 34.4292ZM5.08308 28.387C4.46239 28.387 3.93037 28.8177 3.79103 29.4257C3.67703 29.9577 3.90504 30.3504 4.05704 30.5404C4.20905 30.7177 4.53839 31.0344 5.08308 31.0344H68.6086C69.204 31.0344 69.736 30.6291 69.888 30.0464C69.9894 29.6537 69.9134 29.2357 69.66 28.9063C69.4067 28.577 69.0267 28.387 68.6086 28.387H5.08308Z" fill="#190134"/>
    <path d="M26.123 17.7719C25.6797 18.4433 24.7803 18.6333 24.1216 18.1899C23.4502 17.7466 23.2602 16.8472 23.7036 16.1885C24.1469 15.5172 26.2497 13.4778 26.921 13.9211C27.5797 14.3518 26.5537 17.1006 26.123 17.7719Z" fill="#190134"/>
    <path d="M16.7621 19.5327C16.2555 20.1534 15.3434 20.242 14.7227 19.7227C14.102 19.216 14.0134 18.304 14.5327 17.6833C15.0394 17.0626 17.3702 15.2765 17.9782 15.7832C18.5989 16.3026 17.2815 18.912 16.7621 19.5327Z" fill="#190134"/>
    <path d="M37.3334 20.318C37.2828 21.1161 36.5987 21.7241 35.8007 21.6734C35.0027 21.6228 34.3947 20.9387 34.4453 20.1407C34.496 19.3427 35.3194 16.5306 36.1174 16.5812C36.9154 16.6192 37.3841 19.52 37.3334 20.318Z" fill="#190134"/>
    <path d="M35.8643 10.9571C35.5476 11.6918 34.6863 12.0211 33.9516 11.7044C33.2169 11.3877 32.8875 10.5264 33.2042 9.79169C33.5209 9.057 35.269 6.70092 36.0037 7.0176C36.7383 7.34694 36.181 10.2224 35.8643 10.9571Z" fill="#190134"/>
    <path d="M48.7086 9.22168C49.2026 9.85503 49.1013 10.7671 48.4679 11.2611C47.8346 11.7551 46.9225 11.6538 46.4285 11.0204C45.9345 10.3871 44.6678 7.73963 45.2885 7.24561C45.9218 6.75159 48.2019 8.58832 48.7086 9.22168Z" fill="#190134"/>
    <path d="M48.7465 21.2427C48.9618 22.0154 48.5058 22.8135 47.7458 23.0288C46.9731 23.2441 46.1751 22.7881 45.9597 22.0281C45.7444 21.2554 45.605 18.3293 46.3777 18.114C47.1378 17.8986 48.5312 20.4827 48.7465 21.2427Z" fill="#190134"/>
    <path d="M58.412 16.0745C58.8807 16.7206 58.7413 17.6326 58.108 18.1013C57.4619 18.57 56.5499 18.4306 56.0812 17.7973C55.6126 17.1512 54.4345 14.4658 55.0805 13.9845C55.7266 13.5031 57.9433 15.4285 58.412 16.0745Z" fill="#190134"/>
    <path d="M29.9867 30.3251H5.53913C5.07045 30.3251 4.69043 29.9451 4.69043 29.4764C4.69043 29.0077 5.07045 28.6277 5.53913 28.6277H29.974C30.4427 28.6277 30.8227 29.0077 30.8227 29.4764C30.8227 29.9451 30.4553 30.3251 29.9867 30.3251Z" fill="#FCFCFC"/>
    <path d="M38.8027 30.3251H33.1785C32.7098 30.3251 32.3298 29.9451 32.3298 29.4764C32.3298 29.0077 32.7098 28.6277 33.1785 28.6277H38.7901C39.2587 28.6277 39.6388 29.0077 39.6388 29.4764C39.6388 29.9451 39.2714 30.3251 38.8027 30.3251Z" fill="#FCFCFC"/>
    <path d="M36.8402 88.2596C24.7051 88.2596 4.39969 88.2596 2.65163 66.5862C2.5503 65.3575 2.96831 64.1414 3.817 63.2294C4.65303 62.3174 5.84374 61.798 7.08512 61.798H66.6205C67.8493 61.798 69.0273 62.3174 69.876 63.2167C70.712 64.1161 71.1427 65.3321 71.054 66.5608C69.4706 88.2596 51.3693 88.2596 36.8402 88.2596ZM7.07245 65.1928C6.67977 65.1928 6.42643 65.4081 6.29976 65.5348C6.18575 65.6615 5.99575 65.9275 6.03375 66.3075C7.41446 83.4208 22.007 84.8648 36.8402 84.8648C51.3313 84.8648 66.3165 84.8648 67.6466 66.3202C67.6719 65.9275 67.4819 65.6615 67.3679 65.5348C67.2539 65.4081 67.0005 65.2055 66.6079 65.2055H7.07245V65.1928Z" fill="#190134"/>
    <path d="M2.05591 63.5588C2.05591 64.0021 2.39792 64.3695 2.84127 64.4075C7.87011 64.8888 8.12346 69.9176 13.6463 69.9176C19.4352 69.9176 19.4352 64.3694 25.2367 64.3694C31.0383 64.3694 31.0383 69.9176 36.8271 69.9176C42.6287 69.9176 42.6287 64.3694 48.4175 64.3694C54.2191 64.3694 54.2191 69.9176 60.0079 69.9176C65.5308 69.9176 65.7968 64.8888 70.8257 64.4075C71.269 64.3695 71.611 64.0021 71.611 63.5588C71.611 63.0901 71.231 62.6974 70.7497 62.6974H2.91727C2.44859 62.6974 2.05591 63.0774 2.05591 63.5588Z" fill="#FFBF00"/>
    <path d="M60.0203 71.615C56.4355 71.615 54.5608 69.8163 53.0534 68.3723C51.7107 67.0802 50.6466 66.0668 48.4299 66.0668C46.2131 66.0668 45.1491 67.0802 43.8064 68.3723C42.299 69.8163 40.4116 71.615 36.8395 71.615C33.2547 71.615 31.3799 69.8163 29.8726 68.3723C28.5298 67.0802 27.4658 66.0668 25.2491 66.0668C23.0323 66.0668 21.9683 67.0802 20.6256 68.3723C19.1182 69.8163 17.2308 71.615 13.6587 71.615C10.0739 71.615 8.19913 69.8163 6.69174 68.3723C5.46303 67.1942 4.48766 66.2695 2.68893 66.1048C1.37155 65.9782 0.37085 64.8888 0.37085 63.5588C0.37085 62.1527 1.52356 61 2.92961 61H70.7747C72.1807 61 73.3334 62.1527 73.3334 63.5588C73.3334 64.8888 72.3327 65.9782 71.0027 66.1048C69.2039 66.2695 68.2286 67.2069 66.9999 68.3723C65.4925 69.8163 63.6051 71.615 60.0203 71.615ZM53.6614 64.3948C54.3201 64.8888 54.8774 65.4208 55.3968 65.9148C56.7395 67.2069 57.8035 68.2202 60.0203 68.2202C62.237 68.2202 63.3011 67.2069 64.6438 65.9148C65.1631 65.4208 65.7205 64.8888 66.3792 64.3948H53.6614ZM30.4806 64.3948C31.1393 64.8888 31.6966 65.4208 32.216 65.9148C33.5587 67.2069 34.6227 68.2202 36.8395 68.2202C39.0562 68.2202 40.1202 67.2069 41.463 65.9148C41.9823 65.4208 42.5397 64.8888 43.1984 64.3948H30.4806ZM7.2871 64.3948C7.94579 64.8888 8.50314 65.4208 9.02249 65.9148C10.3652 67.1942 11.4292 68.2202 13.646 68.2202C15.8627 68.2202 16.9268 67.2069 18.2695 65.9148C18.7888 65.4208 19.3462 64.8888 20.0049 64.3948H7.2871ZM2.99294 62.7101C3.00561 62.7101 3.00561 62.7101 2.99294 62.7101C3.00561 62.7101 3.00561 62.7101 2.99294 62.7101Z" fill="#190134"/>
</svg>
