<svg width="74" height="59" viewBox="0 0 74 59" fill="none" xmlns="http://www.w3.org/2000/svg">
    <path d="M36.84 58.9766C24.7049 58.9766 4.39957 58.9766 2.65151 37.3032C2.55017 36.0744 2.96819 34.8584 3.81688 33.9464C4.65291 33.0343 5.84362 32.515 7.085 32.515H66.6204C67.8491 32.515 69.0272 33.0343 69.8759 33.9337C70.7119 34.8331 71.1426 36.0491 71.0539 37.2778C69.4705 58.9766 51.3692 58.9766 36.84 58.9766ZM7.07233 35.9098C6.67965 35.9098 6.42631 36.1251 6.29963 36.2518C6.18563 36.3785 5.99562 36.6445 6.03363 37.0245C7.41434 54.1377 22.0069 55.5818 36.84 55.5818C51.3312 55.5818 66.3164 55.5818 67.6465 37.0371C67.6718 36.6445 67.4818 36.3785 67.3678 36.2518C67.2538 36.1251 67.0004 35.9224 66.6077 35.9224H7.07233V35.9098Z" fill="#190134"/>
    <path d="M64.4535 28.8669H9.22494C6.79286 28.8669 4.63945 27.6001 3.46141 25.4594C2.28337 23.3313 2.35937 20.8359 3.65141 18.7838C10.8843 7.30744 23.2854 0.454529 36.8392 0.454529C50.3931 0.454529 62.7942 7.30744 70.0271 18.7838C71.3191 20.8359 71.3951 23.3313 70.2171 25.4594C69.039 27.5875 66.8856 28.8669 64.4535 28.8669ZM36.8392 3.84931C24.4635 3.84931 13.1264 10.1069 6.52685 20.5952C5.90616 21.5833 5.86816 22.7993 6.43818 23.8253C7.0082 24.8514 8.0469 25.4721 9.22494 25.4721H64.4662C65.6443 25.4721 66.683 24.8514 67.253 23.8253C67.823 22.7993 67.785 21.5959 67.1643 20.5952C60.5521 10.1069 49.215 3.84931 36.8392 3.84931Z" fill="#190134"/>
    <path d="M13.9631 17.0104C13.6464 17.0104 13.3297 16.8964 13.0764 16.6558C12.5697 16.1617 12.557 15.3637 13.0384 14.857C18.3839 9.33417 25.1862 5.72404 32.7231 4.432C33.4198 4.31799 34.0785 4.77401 34.1925 5.4707C34.3065 6.16739 33.8505 6.82608 33.1538 6.94008C26.1615 8.14346 19.8406 11.4876 14.8751 16.6304C14.6345 16.8711 14.3051 17.0104 13.9631 17.0104Z" fill="#FCFCFC"/>
    <path d="M68.5958 33.1863H5.08295C3.15755 33.1863 1.72617 31.4003 2.13151 29.5255C2.43553 28.1448 3.66423 27.1568 5.08295 27.1568H68.6085C70.5846 27.1568 72.0286 29.0315 71.5219 30.9443C71.1673 32.2616 69.9766 33.1863 68.5958 33.1863Z" fill="#FFBF00"/>
    <path d="M68.596 34.8837H5.08308C3.6517 34.8837 2.30898 34.2377 1.40962 33.123C0.51025 32.0083 0.168241 30.5642 0.472252 29.1582C0.940935 27.0048 2.879 25.4467 5.08308 25.4467H68.6086C70.078 25.4467 71.4461 26.1181 72.3454 27.2835C73.2448 28.4488 73.5488 29.9309 73.1688 31.3623C72.6241 33.427 70.7367 34.8837 68.596 34.8837ZM5.08308 28.8415C4.46239 28.8415 3.93037 29.2722 3.79103 29.8802C3.67703 30.4122 3.90504 30.8049 4.05704 30.9949C4.20905 31.1723 4.53839 31.4889 5.08308 31.4889H68.6086C69.204 31.4889 69.736 31.0836 69.888 30.5009C69.9894 30.1082 69.9134 29.6902 69.66 29.3609C69.4067 29.0315 69.0267 28.8415 68.6086 28.8415H5.08308Z" fill="#190134"/>
    <path d="M2.05591 34.2757C2.05591 34.7191 2.39792 35.0864 2.84127 35.1244C7.87011 35.6058 8.12346 40.6346 13.6463 40.6346C19.4352 40.6346 19.4352 35.0864 25.2367 35.0864C31.0383 35.0864 31.0383 40.6346 36.8271 40.6346C42.6287 40.6346 42.6287 35.0864 48.4175 35.0864C54.2191 35.0864 54.2191 40.6346 60.0079 40.6346C65.5308 40.6346 65.7968 35.6058 70.8257 35.1244C71.269 35.0864 71.611 34.7191 71.611 34.2757C71.611 33.807 71.231 33.4144 70.7497 33.4144H2.91727C2.44859 33.4144 2.05591 33.7944 2.05591 34.2757Z" fill="#FFBF00"/>
    <path d="M60.0203 42.332C56.4355 42.332 54.5608 40.5333 53.0534 39.0892C51.7107 37.7972 50.6466 36.7838 48.4299 36.7838C46.2131 36.7838 45.1491 37.7972 43.8064 39.0892C42.299 40.5333 40.4116 42.332 36.8395 42.332C33.2547 42.332 31.3799 40.5333 29.8726 39.0892C28.5298 37.7972 27.4658 36.7838 25.2491 36.7838C23.0323 36.7838 21.9683 37.7972 20.6256 39.0892C19.1182 40.5333 17.2308 42.332 13.6587 42.332C10.0739 42.332 8.19913 40.5333 6.69174 39.0892C5.46303 37.9112 4.48766 36.9865 2.68893 36.8218C1.37155 36.6952 0.37085 35.6058 0.37085 34.2757C0.37085 32.8697 1.52356 31.717 2.92961 31.717H70.7747C72.1807 31.717 73.3334 32.8697 73.3334 34.2757C73.3334 35.6058 72.3327 36.6952 71.0027 36.8218C69.2039 36.9865 68.2286 37.9239 66.9999 39.0892C65.4925 40.5333 63.6051 42.332 60.0203 42.332ZM53.6614 35.1118C54.3201 35.6058 54.8774 36.1378 55.3968 36.6318C56.7395 37.9239 57.8035 38.9372 60.0203 38.9372C62.237 38.9372 63.3011 37.9239 64.6438 36.6318C65.1631 36.1378 65.7205 35.6058 66.3792 35.1118H53.6614ZM30.4806 35.1118C31.1393 35.6058 31.6966 36.1378 32.216 36.6318C33.5587 37.9239 34.6227 38.9372 36.8395 38.9372C39.0562 38.9372 40.1202 37.9239 41.463 36.6318C41.9823 36.1378 42.5397 35.6058 43.1984 35.1118H30.4806ZM7.2871 35.1118C7.94579 35.6058 8.50314 36.1378 9.02249 36.6318C10.3652 37.9112 11.4292 38.9372 13.646 38.9372C15.8627 38.9372 16.9268 37.9239 18.2695 36.6318C18.7888 36.1378 19.3462 35.6058 20.0049 35.1118H7.2871ZM2.99294 33.427C3.00561 33.427 3.00561 33.427 2.99294 33.427C3.00561 33.427 3.00561 33.427 2.99294 33.427Z" fill="#190134"/>
    <path d="M26.123 18.2265C25.6797 18.8978 24.7803 19.0878 24.1216 18.6445C23.4502 18.2011 23.2602 17.3018 23.7036 16.6431C24.1469 15.9717 26.2497 13.9323 26.921 14.3757C27.5797 14.8063 26.5537 17.5551 26.123 18.2265Z" fill="#190134"/>
    <path d="M16.7621 19.9872C16.2555 20.6079 15.3434 20.6966 14.7227 20.1772C14.102 19.6705 14.0134 18.7585 14.5327 18.1378C15.0394 17.5171 17.3702 15.731 17.9782 16.2377C18.5989 16.7571 17.2815 19.3665 16.7621 19.9872Z" fill="#190134"/>
    <path d="M37.3334 20.7726C37.2828 21.5706 36.5987 22.1786 35.8007 22.128C35.0027 22.0773 34.3947 21.3933 34.4453 20.5952C34.496 19.7972 35.3194 16.9851 36.1174 17.0358C36.9154 17.0738 37.3841 19.9745 37.3334 20.7726Z" fill="#190134"/>
    <path d="M35.8642 11.4116C35.5475 12.1463 34.6862 12.4756 33.9515 12.159C33.2168 11.8423 32.8874 10.9809 33.2041 10.2462C33.5208 9.51153 35.2688 7.15545 36.0035 7.47213C36.7382 7.80147 36.1809 10.6769 35.8642 11.4116Z" fill="#190134"/>
    <path d="M48.7087 9.6762C49.2027 10.3096 49.1014 11.2216 48.4681 11.7156C47.8347 12.2096 46.9227 12.1083 46.4286 11.4749C45.9346 10.8416 44.6679 8.19416 45.2886 7.70014C45.922 7.20612 48.202 9.04285 48.7087 9.6762Z" fill="#190134"/>
    <path d="M48.7464 21.6973C48.9617 22.47 48.5057 23.268 47.7457 23.4833C46.973 23.6987 46.1749 23.2427 45.9596 22.4826C45.7443 21.7099 45.6049 18.7838 46.3776 18.5685C47.1376 18.3531 48.531 20.9372 48.7464 21.6973Z" fill="#190134"/>
    <path d="M58.412 16.5291C58.8807 17.1751 58.7413 18.0871 58.108 18.5558C57.4619 19.0245 56.5499 18.8852 56.0812 18.2518C55.6126 17.6058 54.4345 14.9204 55.0805 14.439C55.7266 13.9577 57.9433 15.883 58.412 16.5291Z" fill="#190134"/>
    <path d="M12.1638 19.5818C12.1638 20.2279 11.6444 20.7472 10.9984 20.7472C10.3524 20.7472 9.83301 20.2279 9.83301 19.5818C9.83301 18.9358 10.3524 18.4165 10.9984 18.4165C11.6444 18.4165 12.1638 18.9358 12.1638 19.5818Z" fill="#FCFCFC"/>
    <path d="M29.9865 30.7796H5.53901C5.07032 30.7796 4.69031 30.3996 4.69031 29.9309C4.69031 29.4623 5.07032 29.0822 5.53901 29.0822H29.9739C30.4425 29.0822 30.8226 29.4623 30.8226 29.9309C30.8226 30.3996 30.4552 30.7796 29.9865 30.7796Z" fill="#FCFCFC"/>
    <path d="M38.8027 30.7796H33.1785C32.7098 30.7796 32.3298 30.3996 32.3298 29.9309C32.3298 29.4623 32.7098 29.0822 33.1785 29.0822H38.7901C39.2587 29.0822 39.6388 29.4623 39.6388 29.9309C39.6388 30.3996 39.2714 30.7796 38.8027 30.7796Z" fill="#FCFCFC"/>
</svg>
