<svg width="24" height="24" viewBox="0 0 24 24" fill="none" xmlns="http://www.w3.org/2000/svg">
    <path d="M16.6048 4.9787L18.4456 6.51385C18.5724 6.61958 18.7264 6.67117 18.8795 6.67117C19.0737 6.67117 19.2664 6.58819 19.4005 6.42741C19.6403 6.13985 19.6016 5.71232 19.314 5.47253L17.4731 3.93734C17.1857 3.69754 16.7581 3.73622 16.5183 4.02382C16.2785 4.31138 16.3172 4.73887 16.6048 4.9787Z" fill="black"/>
    <path d="M5.12057 6.67112C5.27366 6.67112 5.42766 6.61952 5.5544 6.51379L7.39525 4.97868C7.68281 4.73888 7.72155 4.31135 7.48176 4.02379C7.24199 3.73627 6.81444 3.69752 6.52688 3.93732L4.686 5.47247C4.39844 5.71227 4.35969 6.13979 4.59949 6.42735C4.73362 6.58813 4.92637 6.67112 5.12057 6.67112Z" fill="black"/>
    <path d="M17.6568 7.02111C16.3068 5.67107 14.5591 4.86351 12.678 4.70667V3.99999C12.678 3.62555 12.3744 3.32202 12 3.32202C11.6256 3.32202 11.322 3.62555 11.322 3.99999V4.70667C9.44088 4.86351 7.69319 5.67104 6.34315 7.02107C4.83214 8.53209 4 10.5411 4 12.678C4 14.8148 4.83214 16.8238 6.34315 18.3348C7.85414 19.8458 9.86312 20.678 12 20.678C13.7205 20.678 15.3599 20.14 16.7412 19.1222C17.0426 18.9001 17.1069 18.4757 16.8848 18.1743C16.6626 17.8728 16.2382 17.8085 15.9368 18.0306C14.7903 18.8755 13.4289 19.322 12 19.322C8.33644 19.322 5.35593 16.3415 5.35593 12.678C5.35593 9.01439 8.33644 6.03389 12 6.03389C15.6636 6.03389 18.6441 9.01439 18.6441 12.678C18.6441 13.7969 18.3609 14.903 17.8251 15.8765C17.6445 16.2045 17.7641 16.6168 18.0921 16.7973C18.42 16.9778 18.8324 16.8583 19.0129 16.5303C19.6587 15.357 20 14.0249 20 12.678C20 10.5411 19.1679 8.53209 17.6568 7.02111Z" fill="black"/>
    <path d="M15.3028 8.59664C15.0118 8.36115 14.5849 8.40607 14.3493 8.69715L12.2117 11.3387C12.1427 11.3278 12.072 11.322 12 11.322C11.2523 11.322 10.644 11.9303 10.644 12.678C10.644 13.4256 11.2523 14.0339 12 14.0339C12.7476 14.0339 13.3559 13.4256 13.3559 12.678C13.3559 12.5067 13.3237 12.3429 13.2655 12.1919L15.4033 9.55014C15.6389 9.25905 15.5939 8.83214 15.3028 8.59664Z" fill="black"/>
</svg>
