<svg clip-rule="evenodd" fill-rule="evenodd" stroke-linejoin="round" stroke-miterlimit="1.41421" viewBox="0 0 560 400" xmlns="http://www.w3.org/2000/svg"><g fill="#ff007a" transform="matrix(.539784 0 0 .539784 144.995 65)"><g fill-rule="nonzero"><path d="m203.2 113.8c-5.4-.8-5.7-1-3.1-1.3 4.9-.8 16.3.3 24.3 2.1 18.6 4.4 35.3 15.7 53.1 35.6l4.6 5.4 6.7-1c28.6-4.6 58-1 82.6 10.3 6.7 3.1 17.3 9.3 18.6 10.8.5.5 1.3 3.9 1.8 7.2 1.8 12.1 1 21.2-2.8 28.1-2.1 3.9-2.1 4.9-.8 8.3 1 2.6 4.1 4.4 7 4.4 6.2 0 12.6-9.8 15.7-23.5l1.3-5.4 2.3 2.6c13.2 14.7 23.5 35.1 25 49.5l.5 3.9-2.3-3.4c-3.9-5.9-7.5-9.8-12.4-13.2-8.8-5.9-18.1-7.7-42.6-9-22.2-1.3-34.8-3.1-47.2-7.2-21.2-7-32-16-57-49.3-11.1-14.7-18.1-22.7-25-29.4-15.2-14.7-30.5-22.4-50.3-25.5z"/><path d="m395.4 146.5c.5-9.8 1.8-16.3 4.6-22.2 1-2.3 2.1-4.4 2.3-4.4.3 0-.3 1.8-1 3.9-2.1 5.7-2.3 13.7-1 22.7 1.8 11.6 2.6 13.2 15 25.8 5.7 5.9 12.4 13.4 15 16.5l4.4 5.7-4.4-4.1c-5.4-5.2-17.8-15-20.6-16.3-1.8-1-2.1-1-3.4.3-1 1-1.3 2.6-1.3 10.1-.3 11.6-1.8 18.8-5.7 26.3-2.1 3.9-2.3 3.1-.5-1.3 1.3-3.4 1.5-4.9 1.5-16 0-22.4-2.6-27.9-18.3-36.9-3.9-2.3-10.6-5.7-14.4-7.5-4.1-1.8-7.2-3.4-7-3.4.5-.5 15.7 3.9 21.7 6.4 9 3.6 10.6 3.9 11.6 3.6.7-.6 1.2-2.7 1.5-9.2z"/><path d="m213.8 185c-10.8-15-17.8-38.2-16.3-55.5l.5-5.4 2.6.5c4.6.8 12.6 3.9 16.5 6.2 10.3 6.2 15 14.7 19.3 35.9 1.3 6.2 3.1 13.4 3.9 15.7 1.3 3.9 6.2 12.9 10.3 18.6 2.8 4.1 1 6.2-5.4 5.7-9.8-1.1-22.9-10.1-31.4-21.7z"/><path d="m382.2 297.2c-51.1-20.6-69.1-38.4-69.1-68.6 0-4.4.3-8 .3-8 .3 0 2.1 1.5 4.4 3.4 10.3 8.3 21.9 11.9 54.2 16.5 18.8 2.8 29.7 4.9 39.5 8.3 31.2 10.3 50.6 31.5 55.2 60.1 1.3 8.3.5 24-1.5 32.2-1.8 6.4-7 18.3-8.3 18.6-.3 0-.8-1.3-.8-3.4-.5-10.8-5.9-21.2-15-29.2-10.9-9.2-24.8-16.2-58.9-29.9z"/><path d="m346.1 305.7c-.5-3.9-1.8-8.8-2.6-10.8l-1.3-3.9 2.3 2.8c3.4 3.9 5.9 8.5 8.3 15 1.8 4.9 1.8 6.4 1.8 14.4 0 7.7-.3 9.5-1.8 13.9-2.6 7-5.7 11.9-10.8 17.3-9.3 9.5-21.4 14.7-38.7 17-3.1.3-11.9 1-19.6 1.5-19.3 1-32.2 3.1-43.9 7.2-1.5.5-3.1 1-3.4.8-.5-.5 7.5-5.2 13.9-8.3 9-4.4 18.3-6.7 38.7-10.3 10.1-1.5 20.4-3.6 23-4.6 25.6-7.9 38.2-27.7 34.1-52z"/><path d="m369.6 347.3c-6.7-14.7-8.3-28.6-4.6-41.8.5-1.3 1-2.6 1.5-2.6s2.1.8 3.6 1.8c3.1 2.1 9.5 5.7 26.1 14.7 20.9 11.4 32.8 20.1 41 30.2 7.2 8.8 11.6 18.8 13.7 31.2 1.3 7 .5 23.7-1.3 30.7-5.7 21.9-18.6 39.5-37.4 49.5-2.8 1.5-5.2 2.6-5.4 2.6s.8-2.6 2.3-5.7c6.2-13.2 7-25.8 2.3-40-2.8-8.8-8.8-19.3-20.6-37.2-14.3-20.5-17.6-26-21.2-33.4z"/><path d="m177.4 426.2c19.1-16 42.6-27.3 64.2-31 9.3-1.5 24.8-1 33.3 1.3 13.7 3.6 26.1 11.4 32.5 20.9 6.2 9.3 9 17.3 11.9 35.1 1 7 2.3 14.2 2.6 15.7 2.1 9.3 6.2 16.5 11.4 20.4 8 5.9 21.9 6.2 35.6 1 2.3-.8 4.4-1.5 4.4-1.3.5.5-6.4 5.2-11.1 7.5-6.4 3.4-11.6 4.4-18.6 4.4-12.4 0-23-6.4-31.5-19.3-1.8-2.6-5.4-10.1-8.5-17-9-20.9-13.7-27.1-24.3-34.1-9.3-5.9-21.2-7.2-30.2-2.8-11.9 5.7-15 20.9-6.7 30.2 3.4 3.9 9.5 7 14.7 7.7 9.5 1.3 17.8-6.2 17.8-15.7 0-6.2-2.3-9.8-8.5-12.6-8.3-3.6-17.3.5-17 8.5 0 3.4 1.5 5.4 4.9 7 2.1 1 2.1 1 .5.8-7.5-1.5-9.3-10.8-3.4-16.8 7.2-7.2 22.4-4.1 27.6 5.9 2.1 4.1 2.3 12.4.5 17.5-4.4 11.4-16.8 17.3-29.4 13.9-8.5-2.3-12.1-4.6-22.4-15.2-18.1-18.6-25-22.2-50.8-26.1l-4.9-.8z"/></g><path d="m41.7 11.1c60.1 73 152.7 186.5 157.4 192.7 3.9 5.2 2.3 10.1-4.1 13.7-3.6 2.1-11.1 4.1-14.7 4.1-4.1 0-9-2.1-12.4-5.4-2.3-2.3-12.4-17-35.1-52.4-17.3-27.1-32-49.5-32.2-49.8-1-.5-1-.5 30.4 55.7 19.9 35.3 26.3 48 26.3 49.5 0 3.4-1 5.2-5.2 9.8-7 7.7-10.1 16.5-12.4 34.8-2.6 20.4-9.5 34.8-29.4 59.3-11.6 14.4-13.4 17-16.3 23-3.6 7.2-4.6 11.4-5.2 20.6-.5 9.8.5 16 3.4 25.3 2.6 8.3 5.4 13.7 12.4 24.3 5.9 9.3 9.5 16.3 9.5 18.8 0 2.1.5 2.1 9.8 0 22.2-5.2 40.5-13.9 50.6-24.8 6.2-6.7 7.7-10.3 7.7-19.6 0-5.9-.3-7.2-1.8-10.8-2.6-5.7-7.5-10.3-18.1-17.5-13.9-9.5-19.9-17.3-21.4-27.6-1.3-8.8.3-14.7 8-31 8-16.8 10.1-23.7 11.4-40.8.8-10.8 2.1-15.2 5.2-18.6 3.4-3.6 6.2-4.9 14.2-5.9 13.2-1.8 21.7-5.2 28.4-11.6 5.9-5.4 8.5-10.8 8.8-18.8l.3-5.9-3.4-3.6c-12.2-13.9-180.1-198.6-180.9-198.6-.3 0 3.9 4.9 8.8 11.1zm79.2 366.9c2.8-4.9 1.3-11.1-3.4-14.2-4.4-2.8-11.1-1.5-11.1 2.3 0 1 .5 2.1 2.1 2.6 2.3 1.3 2.6 2.6.8 5.4s-1.8 5.4.5 7.2c3.6 2.9 8.5 1.3 11.1-3.3z"/><path d="m225.4 242.3c-6.2 1.8-12.1 8.5-13.9 15.2-1 4.1-.5 11.6 1.3 13.9 2.8 3.6 5.4 4.6 12.6 4.6 14.2 0 26.3-6.2 27.6-13.7 1.3-6.2-4.1-14.7-11.6-18.6-3.9-2-11.9-2.7-16-1.4zm16.5 12.9c2.1-3.1 1.3-6.4-2.6-8.8-7-4.4-17.5-.8-17.5 5.9 0 3.4 5.4 7 10.6 7 3.3 0 7.9-2.1 9.5-4.1z"/></g></svg>