<svg width="238" height="66" viewBox="0 0 238 66" fill="none" xmlns="http://www.w3.org/2000/svg">
    <circle cx="33" cy="33" r="33" fill="#F9EEE5"/>
    <path d="M33.4948 49.4862C26.3438 49.4862 14.3781 49.4862 13.348 36.7144C13.2883 35.9903 13.5346 35.2737 14.0348 34.7363C14.5274 34.1988 15.2291 33.8928 15.9606 33.8928H51.044C51.768 33.8928 52.4622 34.1988 52.9624 34.7288C53.455 35.2588 53.7088 35.9754 53.6566 36.6994C52.7235 49.4862 42.0567 49.4862 33.4948 49.4862ZM15.9531 35.8933C15.7217 35.8933 15.5725 36.0202 15.4978 36.0948C15.4306 36.1695 15.3187 36.3262 15.3411 36.5501C16.1547 46.6347 24.7538 47.4857 33.4948 47.4857C42.0343 47.4857 50.8648 47.4857 51.6486 36.5576C51.6635 36.3262 51.5516 36.1695 51.4844 36.0948C51.4172 36.0202 51.2679 35.9007 51.0365 35.9007H15.9531V35.8933Z" fill="#190134"/>
    <path d="M49.7672 31.743H17.2218C15.7886 31.743 14.5196 30.9965 13.8254 29.735C13.1312 28.481 13.176 27.0105 13.9374 25.8012C18.1997 19.0383 25.5074 15 33.4945 15C41.4816 15 48.7894 19.0383 53.0516 25.8012C53.813 27.0105 53.8578 28.481 53.1636 29.735C52.4694 30.9891 51.2004 31.743 49.7672 31.743ZM33.4945 17.0005C26.2016 17.0005 19.5209 20.688 15.6318 26.8686C15.2661 27.4509 15.2437 28.1675 15.5796 28.7721C15.9155 29.3767 16.5276 29.7425 17.2218 29.7425H49.7747C50.4689 29.7425 51.081 29.3767 51.4169 28.7721C51.7528 28.1675 51.7304 27.4583 51.3646 26.8686C47.4681 20.688 40.7874 17.0005 33.4945 17.0005Z" fill="#190134"/>
    <path d="M20.0139 24.7562C19.8273 24.7562 19.6407 24.689 19.4914 24.5472C19.1928 24.256 19.1853 23.7858 19.469 23.4872C22.619 20.2326 26.6275 18.1053 31.0689 17.3439C31.4795 17.2767 31.8676 17.5454 31.9348 17.956C32.002 18.3665 31.7333 18.7547 31.3227 18.8218C27.2023 19.531 23.4775 21.5016 20.5514 24.5322C20.4095 24.6741 20.2155 24.7562 20.0139 24.7562Z" fill="#FCFCFC"/>
    <path d="M52.2082 34.2884H14.781C13.6464 34.2884 12.8029 33.2359 13.0418 32.1311C13.2209 31.3175 13.945 30.7353 14.781 30.7353H52.2157C53.3802 30.7353 54.2311 31.84 53.9326 32.9672C53.7235 33.7435 53.0219 34.2884 52.2082 34.2884Z" fill="#FFBF00"/>
    <path d="M52.2083 35.2886H14.781C13.9375 35.2886 13.1463 34.9079 12.6163 34.2511C12.0863 33.5942 11.8848 32.7432 12.0639 31.9147C12.3401 30.6457 13.4822 29.7275 14.781 29.7275H52.2157C53.0816 29.7275 53.8878 30.1232 54.4178 30.8099C54.9478 31.4966 55.1269 32.37 54.903 33.2135C54.582 34.4302 53.4698 35.2886 52.2083 35.2886ZM14.781 31.728C14.4153 31.728 14.1017 31.9818 14.0196 32.3401C13.9525 32.6536 14.0868 32.885 14.1764 32.997C14.266 33.1015 14.46 33.2881 14.781 33.2881H52.2157C52.5666 33.2881 52.8801 33.0493 52.9697 32.7059C53.0294 32.4745 52.9846 32.2282 52.8353 32.0341C52.686 31.84 52.4621 31.728 52.2157 31.728H14.781Z" fill="#190134"/>
    <path d="M12.9969 34.9303C12.9969 35.1916 13.1985 35.4081 13.4597 35.4305C16.4232 35.7141 16.5725 38.6776 19.827 38.6776C23.2383 38.6776 23.2383 35.4081 26.6571 35.4081C30.0758 35.4081 30.0758 38.6776 33.4871 38.6776C36.9059 38.6776 36.9059 35.4081 40.3172 35.4081C43.736 35.4081 43.736 38.6776 47.1473 38.6776C50.4018 38.6776 50.5586 35.7141 53.522 35.4305C53.7832 35.4081 53.9848 35.1916 53.9848 34.9303C53.9848 34.6542 53.7608 34.4228 53.4772 34.4228H13.5045C13.2283 34.4228 12.9969 34.6467 12.9969 34.9303Z" fill="#FFBF00"/>
    <path d="M47.1547 39.6778C45.0422 39.6778 43.9375 38.6178 43.0492 37.7669C42.258 37.0055 41.6309 36.4083 40.3246 36.4083C39.0184 36.4083 38.3913 37.0055 37.6001 37.7669C36.7118 38.6178 35.5996 39.6778 33.4946 39.6778C31.3821 39.6778 30.2774 38.6178 29.3891 37.7669C28.5978 37.0055 27.9708 36.4083 26.6645 36.4083C25.3582 36.4083 24.7312 37.0055 23.94 37.7669C23.0517 38.6178 21.9395 39.6778 19.8345 39.6778C17.722 39.6778 16.6172 38.6178 15.729 37.7669C15.0049 37.0727 14.4301 36.5278 13.3702 36.4307C12.5939 36.3561 12.0042 35.7141 12.0042 34.9304C12.0042 34.1018 12.6834 33.4225 13.512 33.4225H53.4921C54.3207 33.4225 54.9999 34.1018 54.9999 34.9304C54.9999 35.7141 54.4102 36.3561 53.6265 36.4307C52.5665 36.5278 51.9917 37.0801 51.2677 37.7669C50.3794 38.6178 49.2672 39.6778 47.1547 39.6778ZM43.4075 35.423C43.7957 35.7141 44.1241 36.0276 44.4301 36.3188C45.2214 37.0801 45.8484 37.6773 47.1547 37.6773C48.461 37.6773 49.088 37.0801 49.8793 36.3188C50.1853 36.0276 50.5138 35.7141 50.9019 35.423H43.4075ZM29.7474 35.423C30.1355 35.7141 30.464 36.0276 30.77 36.3188C31.5613 37.0801 32.1883 37.6773 33.4946 37.6773C34.8009 37.6773 35.4279 37.0801 36.2191 36.3188C36.5252 36.0276 36.8536 35.7141 37.2418 35.423H29.7474ZM16.0798 35.423C16.468 35.7141 16.7964 36.0276 17.1024 36.3188C17.8937 37.0727 18.5207 37.6773 19.827 37.6773C21.1333 37.6773 21.7603 37.0801 22.5516 36.3188C22.8576 36.0276 23.186 35.7141 23.5742 35.423H16.0798ZM13.5493 34.4302C13.5568 34.4302 13.5568 34.4302 13.5493 34.4302C13.5568 34.4302 13.5568 34.4302 13.5493 34.4302Z" fill="#190134"/>
    <path d="M27.1795 25.4727C26.9183 25.8684 26.3883 25.9803 26.0001 25.7191C25.6045 25.4578 25.4926 24.9278 25.7538 24.5397C26.0151 24.1441 27.2542 22.9423 27.6498 23.2035C28.038 23.4573 27.4333 25.0771 27.1795 25.4727Z" fill="#190134"/>
    <path d="M21.6634 26.5103C21.3648 26.8761 20.8273 26.9283 20.4616 26.6223C20.0958 26.3237 20.0436 25.7863 20.3496 25.4205C20.6482 25.0547 22.0217 24.0022 22.38 24.3008C22.7457 24.6069 21.9694 26.1446 21.6634 26.5103Z" fill="#190134"/>
    <path d="M33.7857 26.9731C33.7558 27.4434 33.3527 27.8017 32.8825 27.7718C32.4122 27.742 32.0539 27.3389 32.0838 26.8686C32.1136 26.3984 32.5988 24.7412 33.0691 24.7711C33.5394 24.7935 33.8155 26.5029 33.7857 26.9731Z" fill="#190134"/>
    <path d="M32.9199 21.4568C32.7333 21.8898 32.2257 22.0839 31.7928 21.8973C31.3598 21.7106 31.1657 21.2031 31.3523 20.7701C31.539 20.3372 32.5691 18.9488 33.002 19.1354C33.435 19.3295 33.1065 21.0239 32.9199 21.4568Z" fill="#190134"/>
    <path d="M40.4891 20.4342C40.7802 20.8074 40.7205 21.3449 40.3473 21.636C39.974 21.9271 39.4366 21.8674 39.1455 21.4942C38.8544 21.1209 38.1079 19.5608 38.4737 19.2697C38.8469 18.9786 40.1905 20.061 40.4891 20.4342Z" fill="#190134"/>
    <path d="M40.5112 27.518C40.6381 27.9734 40.3694 28.4436 39.9215 28.5705C39.4662 28.6974 38.9959 28.4287 38.869 27.9808C38.7421 27.5255 38.66 25.8012 39.1153 25.6743C39.5632 25.5474 40.3843 27.0702 40.5112 27.518Z" fill="#190134"/>
    <path d="M46.207 24.4725C46.4832 24.8532 46.4011 25.3906 46.0278 25.6668C45.6471 25.943 45.1097 25.8609 44.8335 25.4877C44.5573 25.107 43.8631 23.5245 44.2438 23.2408C44.6245 22.9572 45.9308 24.0918 46.207 24.4725Z" fill="#190134"/>
    <path d="M18.9536 26.2715C18.9536 26.6521 18.6475 26.9582 18.2668 26.9582C17.8861 26.9582 17.5801 26.6521 17.5801 26.2715C17.5801 25.8908 17.8861 25.5847 18.2668 25.5847C18.6475 25.5847 18.9536 25.8908 18.9536 26.2715Z" fill="#FCFCFC"/>
    <path d="M29.4563 32.8702H15.0497C14.7735 32.8702 14.5496 32.6462 14.5496 32.37C14.5496 32.0938 14.7735 31.8699 15.0497 31.8699H29.4488C29.725 31.8699 29.9489 32.0938 29.9489 32.37C29.9489 32.6462 29.7325 32.8702 29.4563 32.8702Z" fill="#FCFCFC"/>
    <path d="M34.6517 32.8702H31.3374C31.0612 32.8702 30.8373 32.6462 30.8373 32.37C30.8373 32.0938 31.0612 31.8699 31.3374 31.8699H34.6442C34.9204 31.8699 35.1443 32.0938 35.1443 32.37C35.1443 32.6462 34.9279 32.8702 34.6517 32.8702Z" fill="#FCFCFC"/>
    <path d="M99.2489 27.13L96.7429 37H95.1889L92.9069 28.936L90.6249 37H89.0709L86.5509 27.13H87.9649L89.8549 35.516L92.1929 27.13H93.6069L95.9449 35.488L97.8489 27.13H99.2489ZM107.264 27.004C108.178 27.004 109 27.2187 109.728 27.648C110.465 28.0773 111.044 28.6793 111.464 29.454C111.884 30.2193 112.094 31.0873 112.094 32.058C112.094 33.0287 111.884 33.9013 111.464 34.676C111.044 35.4413 110.465 36.0387 109.728 36.468C109 36.8973 108.178 37.112 107.264 37.112C106.349 37.112 105.518 36.8973 104.772 36.468C104.034 36.0387 103.456 35.4413 103.036 34.676C102.616 33.9013 102.406 33.0287 102.406 32.058C102.406 31.0873 102.616 30.2193 103.036 29.454C103.456 28.6793 104.034 28.0773 104.772 27.648C105.518 27.2187 106.349 27.004 107.264 27.004ZM107.264 28.194C106.582 28.194 105.971 28.3527 105.43 28.67C104.898 28.978 104.478 29.426 104.17 30.014C103.871 30.5927 103.722 31.274 103.722 32.058C103.722 32.8327 103.871 33.514 104.17 34.102C104.478 34.69 104.898 35.1427 105.43 35.46C105.971 35.768 106.582 35.922 107.264 35.922C107.936 35.922 108.538 35.7633 109.07 35.446C109.611 35.1287 110.031 34.6807 110.33 34.102C110.638 33.514 110.792 32.8327 110.792 32.058C110.792 31.274 110.638 30.5927 110.33 30.014C110.031 29.426 109.611 28.978 109.07 28.67C108.538 28.3527 107.936 28.194 107.264 28.194ZM121.052 37L118.476 32.968H117.09V37H115.816V27.13H119.064C120.184 27.13 121.024 27.4007 121.584 27.942C122.144 28.474 122.424 29.1833 122.424 30.07C122.424 30.8727 122.2 31.5213 121.752 32.016C121.304 32.5013 120.655 32.8047 119.806 32.926L122.494 37H121.052ZM117.09 32.044H118.952C120.399 32.044 121.122 31.4093 121.122 30.14C121.122 28.8707 120.399 28.236 118.952 28.236H117.09V32.044ZM132.222 34.438C132.222 34.9047 132.11 35.3387 131.886 35.74C131.662 36.1413 131.321 36.468 130.864 36.72C130.407 36.972 129.842 37.098 129.17 37.098C128.517 37.098 127.933 36.9813 127.42 36.748C126.916 36.5053 126.51 36.1787 126.202 35.768C125.903 35.348 125.731 34.872 125.684 34.34H127.042C127.07 34.62 127.163 34.8953 127.322 35.166C127.49 35.4273 127.723 35.6467 128.022 35.824C128.33 35.992 128.699 36.076 129.128 36.076C129.688 36.076 130.117 35.9267 130.416 35.628C130.715 35.3293 130.864 34.9467 130.864 34.48C130.864 34.0787 130.757 33.752 130.542 33.5C130.337 33.248 130.08 33.052 129.772 32.912C129.464 32.7627 129.044 32.604 128.512 32.436C127.887 32.2307 127.383 32.0393 127 31.862C126.627 31.6753 126.305 31.4 126.034 31.036C125.773 30.672 125.642 30.1913 125.642 29.594C125.642 29.0807 125.763 28.628 126.006 28.236C126.258 27.844 126.613 27.5407 127.07 27.326C127.537 27.1113 128.083 27.004 128.708 27.004C129.679 27.004 130.449 27.242 131.018 27.718C131.587 28.1847 131.919 28.782 132.012 29.51H130.64C130.565 29.118 130.365 28.7727 130.038 28.474C129.711 28.1753 129.268 28.026 128.708 28.026C128.195 28.026 127.784 28.1613 127.476 28.432C127.168 28.6933 127.014 29.0667 127.014 29.552C127.014 29.9347 127.112 30.2473 127.308 30.49C127.513 30.7233 127.765 30.91 128.064 31.05C128.363 31.1807 128.773 31.33 129.296 31.498C129.931 31.7033 130.439 31.8993 130.822 32.086C131.214 32.2727 131.545 32.5573 131.816 32.94C132.087 33.3133 132.222 33.8127 132.222 34.438ZM141.983 27.13V28.166H139.197V37H137.923V28.166H135.137V27.13H141.983ZM156.953 34.438C156.953 34.9047 156.841 35.3387 156.617 35.74C156.393 36.1413 156.052 36.468 155.595 36.72C155.137 36.972 154.573 37.098 153.901 37.098C153.247 37.098 152.664 36.9813 152.151 36.748C151.647 36.5053 151.241 36.1787 150.933 35.768C150.634 35.348 150.461 34.872 150.415 34.34H151.773C151.801 34.62 151.894 34.8953 152.053 35.166C152.221 35.4273 152.454 35.6467 152.753 35.824C153.061 35.992 153.429 36.076 153.859 36.076C154.419 36.076 154.848 35.9267 155.147 35.628C155.445 35.3293 155.595 34.9467 155.595 34.48C155.595 34.0787 155.487 33.752 155.273 33.5C155.067 33.248 154.811 33.052 154.503 32.912C154.195 32.7627 153.775 32.604 153.243 32.436C152.617 32.2307 152.113 32.0393 151.731 31.862C151.357 31.6753 151.035 31.4 150.765 31.036C150.503 30.672 150.373 30.1913 150.373 29.594C150.373 29.0807 150.494 28.628 150.737 28.236C150.989 27.844 151.343 27.5407 151.801 27.326C152.267 27.1113 152.813 27.004 153.439 27.004C154.409 27.004 155.179 27.242 155.749 27.718C156.318 28.1847 156.649 28.782 156.743 29.51H155.371C155.296 29.118 155.095 28.7727 154.769 28.474C154.442 28.1753 153.999 28.026 153.439 28.026C152.925 28.026 152.515 28.1613 152.207 28.432C151.899 28.6933 151.745 29.0667 151.745 29.552C151.745 29.9347 151.843 30.2473 152.039 30.49C152.244 30.7233 152.496 30.91 152.795 31.05C153.093 31.1807 153.504 31.33 154.027 31.498C154.661 31.7033 155.17 31.8993 155.553 32.086C155.945 32.2727 156.276 32.5573 156.547 32.94C156.817 33.3133 156.953 33.8127 156.953 34.438ZM166.448 34.718H162.108L161.282 37H159.91L163.564 27.312H165.006L168.646 37H167.274L166.448 34.718ZM166.084 33.724L164.278 28.74L162.472 33.724H166.084ZM179.607 37H178.333L173.209 29.202V37H171.935V27.13H173.209L178.333 34.942V27.13H179.607V37ZM191.972 32.058C191.972 33.0567 191.771 33.9293 191.37 34.676C190.968 35.4133 190.376 35.9873 189.592 36.398C188.817 36.7993 187.884 37 186.792 37H183.656V27.13H186.792C187.884 27.13 188.817 27.3307 189.592 27.732C190.376 28.124 190.968 28.6933 191.37 29.44C191.771 30.1773 191.972 31.05 191.972 32.058ZM186.694 35.852C187.982 35.852 188.966 35.5207 189.648 34.858C190.329 34.1953 190.67 33.262 190.67 32.058C190.67 30.854 190.329 29.9207 189.648 29.258C188.976 28.586 187.991 28.25 186.694 28.25H184.93V35.852H186.694ZM207.829 27.13L205.323 37H203.769L201.487 28.936L199.205 37H197.651L195.131 27.13H196.545L198.435 35.516L200.773 27.13H202.187L204.525 35.488L206.429 27.13H207.829ZM212.596 27.13V37H211.322V27.13H212.596ZM221.012 27.032C222.216 27.032 223.21 27.3307 223.994 27.928C224.778 28.516 225.319 29.3233 225.618 30.35H224.274C224.022 29.6967 223.616 29.1787 223.056 28.796C222.496 28.404 221.81 28.208 220.998 28.208C220.354 28.208 219.775 28.3667 219.262 28.684C218.758 28.992 218.357 29.44 218.058 30.028C217.769 30.6067 217.624 31.288 217.624 32.072C217.624 32.8467 217.769 33.5233 218.058 34.102C218.357 34.6807 218.758 35.1287 219.262 35.446C219.775 35.754 220.354 35.908 220.998 35.908C221.81 35.908 222.496 35.7167 223.056 35.334C223.616 34.942 224.022 34.4193 224.274 33.766H225.618C225.319 34.7927 224.778 35.6047 223.994 36.202C223.21 36.79 222.216 37.084 221.012 37.084C220.088 37.084 219.271 36.874 218.562 36.454C217.853 36.0247 217.297 35.432 216.896 34.676C216.504 33.9107 216.308 33.0427 216.308 32.072C216.308 31.092 216.504 30.2193 216.896 29.454C217.297 28.6887 217.853 28.096 218.562 27.676C219.271 27.2467 220.088 27.032 221.012 27.032ZM236.896 27.13V37H235.608V32.436H230.596V37H229.322V27.13H230.596V31.4H235.608V27.13H236.896Z" fill="black"/>
</svg>
